<svg width="91" height="30" viewBox="0 0 91 30" fill="none" xmlns="http://www.w3.org/2000/svg">
<g clip-path="url(#clip0_380_3106)">
<path d="M0.84259 7.25642C0.84259 5.04652 0.84259 3.94157 1.20362 3.06996C1.685 1.90782 2.60831 0.984495 3.77046 0.503121C4.64207 0.14209 5.74702 0.14209 7.95692 0.14209H83.1659C85.3759 0.14209 86.4807 0.14209 87.352 0.503121C88.5141 0.984495 89.4377 1.90782 89.9192 3.06996C90.2798 3.94157 90.2798 5.04652 90.2798 7.25642V22.8403C90.2798 25.0502 90.2798 26.1551 89.9192 27.0267C89.4377 28.1888 88.5141 29.1122 87.352 29.5936C86.4807 29.9546 85.3759 29.9546 83.1659 29.9546H7.95692C5.74702 29.9546 4.64207 29.9546 3.77046 29.5936C2.60831 29.1122 1.685 28.1888 1.20362 27.0267C0.84259 26.1551 0.84259 25.0502 0.84259 22.8403V7.25642Z" fill="#0C0D10"/>
<path d="M61.6047 14.4529V16.1604H60.5349V17.2802H61.6047V21.085C61.6047 22.3842 62.1925 22.9039 63.6713 22.9039C63.9312 22.9039 64.1787 22.8729 64.3953 22.8358V21.7284C64.2097 21.7469 64.0921 21.7593 63.8879 21.7593C63.2259 21.7593 62.935 21.45 62.935 20.7447V17.2802H64.3953V16.1604H62.935V14.4529H61.6047Z" fill="white"/>
<path d="M68.1617 22.9966C70.1294 22.9966 71.3354 21.6789 71.3354 19.495C71.3354 17.3235 70.1232 15.9995 68.1617 15.9995C66.1941 15.9995 64.9819 17.3235 64.9819 19.495C64.9819 21.6789 66.1879 22.9966 68.1617 22.9966ZM68.1617 21.815C67.0047 21.815 66.355 20.9674 66.355 19.495C66.355 18.0349 67.0047 17.1812 68.1617 17.1812C69.3126 17.1812 69.9685 18.0349 69.9685 19.495C69.9685 20.9612 69.3126 21.815 68.1617 21.815Z" fill="white"/>
<path d="M72.3676 22.8667H73.6979V18.8887C73.6979 17.9421 74.4094 17.3049 75.418 17.3049C75.6526 17.3049 76.0486 17.3482 76.1599 17.3853V16.0738C76.0176 16.0366 75.7639 16.0181 75.5659 16.0181C74.6879 16.0181 73.9392 16.5006 73.7474 17.1626H73.6484V16.1294H72.3676V22.8667Z" fill="white"/>
<path d="M79.463 17.1317C80.4468 17.1317 81.0897 17.8184 81.1206 18.8763H77.7181C77.7923 17.8246 78.4791 17.1317 79.463 17.1317ZM81.1145 21.0478C80.867 21.5737 80.3168 21.8645 79.5125 21.8645C78.4482 21.8645 77.7614 21.1159 77.7181 19.9343V19.86H82.4757V19.396C82.4757 17.2802 81.3434 15.9995 79.4691 15.9995C77.5696 15.9995 76.3636 17.3668 76.3636 19.5197C76.3636 21.6727 77.5448 22.9966 79.4753 22.9966C81.0155 22.9966 82.0921 22.2542 82.3953 21.0478H81.1145Z" fill="white"/>
<path d="M52.882 20.3788C52.9846 22.0332 54.3633 23.0912 56.4153 23.0912C58.6083 23.0912 59.9802 21.9819 59.9802 20.2121C59.9802 18.8206 59.1983 18.0511 57.2999 17.6087L56.2806 17.3586C55.075 17.0765 54.5877 16.6981 54.5877 16.0377C54.5877 15.2041 55.3444 14.659 56.4794 14.659C57.5564 14.659 58.3006 15.1913 58.435 16.0441H59.8328C59.7496 14.4859 58.3776 13.3894 56.4986 13.3894C54.4787 13.3894 53.1321 14.4859 53.1321 16.1338C53.1321 17.4933 53.8952 18.3012 55.5688 18.6924L56.7615 18.9809C57.9861 19.2695 58.525 19.6927 58.525 20.398C58.525 21.2188 57.6785 21.8151 56.5243 21.8151C55.2866 21.8151 54.4274 21.2573 54.3056 20.3788H52.882Z" fill="white"/>
<path d="M39.1032 16.0181C38.1876 16.0181 37.3957 16.4759 36.9874 17.243H36.8884V16.1294H35.6077V25.1063H36.9379V21.8459H37.0431C37.3957 22.5574 38.1566 22.9781 39.1156 22.9781C40.8169 22.9781 41.8996 21.6356 41.8996 19.495C41.8996 17.3544 40.8169 16.0181 39.1032 16.0181ZM38.7258 21.784C37.6123 21.784 36.9131 20.9055 36.9131 19.5012C36.9131 18.0906 37.6123 17.2121 38.732 17.2121C39.858 17.2121 40.5324 18.072 40.5324 19.495C40.5324 20.9241 39.858 21.784 38.7258 21.784Z" fill="white"/>
<path d="M46.554 16.0181C45.6383 16.0181 44.8464 16.4759 44.4381 17.243H44.3391V16.1294H43.0585V25.1063H44.3886V21.8459H44.4938C44.8464 22.5574 45.6074 22.9781 46.5663 22.9781C48.2677 22.9781 49.3503 21.6356 49.3503 19.495C49.3503 17.3544 48.2677 16.0181 46.554 16.0181ZM46.1766 21.784C45.0629 21.784 44.3639 20.9055 44.3639 19.5012C44.3639 18.0906 45.0629 17.2121 46.1828 17.2121C47.3087 17.2121 47.983 18.072 47.983 19.495C47.983 20.9241 47.3087 21.784 46.1766 21.784Z" fill="white"/>
<path d="M33.2212 22.8667H34.7473L31.4065 13.6138H29.8612L26.5204 22.8667H27.9952L28.848 20.4108H32.3748L33.2212 22.8667ZM30.5601 15.2938H30.6691L32.0093 19.2053H29.2135L30.5601 15.2938Z" fill="white"/>
<path d="M27.4138 6.63428V11.098H29.0255C30.3556 11.098 31.1259 10.2783 31.1259 8.85222C31.1259 7.44782 30.3494 6.63428 29.0255 6.63428H27.4138ZM28.1068 7.26535H28.9481C29.8731 7.26535 30.4205 7.85305 30.4205 8.8615C30.4205 9.88536 29.8823 10.4669 28.9481 10.4669H28.1068V7.26535Z" fill="white"/>
<path d="M33.4849 11.1631C34.4686 11.1631 35.0717 10.5042 35.0717 9.41229C35.0717 8.3265 34.4655 7.66455 33.4849 7.66455C32.5012 7.66455 31.8949 8.3265 31.8949 9.41229C31.8949 10.5042 32.4981 11.1631 33.4849 11.1631ZM33.4849 10.5723C32.9064 10.5723 32.5816 10.1485 32.5816 9.41229C32.5816 8.68223 32.9064 8.25534 33.4849 8.25534C34.0602 8.25534 34.3881 8.68223 34.3881 9.41229C34.3881 10.1454 34.0602 10.5723 33.4849 10.5723Z" fill="white"/>
<path d="M40.2085 7.72949H39.5435L38.9433 10.3H38.8907L38.1978 7.72949H37.5606L36.8677 10.3H36.8182L36.215 7.72949H35.5406L36.4687 11.0981H37.1523L37.8452 8.61723H37.8978L38.5938 11.0981H39.2836L40.2085 7.72949Z" fill="white"/>
<path d="M40.9744 11.0982H41.6395V9.12767C41.6395 8.60179 41.9519 8.27391 42.4438 8.27391C42.9356 8.27391 43.1707 8.54306 43.1707 9.08436V11.0982H43.8358V8.91735C43.8358 8.11618 43.4212 7.66455 42.6696 7.66455C42.1623 7.66455 41.8282 7.89034 41.6643 8.26463H41.6148V7.72952H40.9744V11.0982Z" fill="white"/>
<path d="M44.8832 11.0981H45.5482V6.41479H44.8832V11.0981Z" fill="white"/>
<path d="M48.0496 11.1631C49.0332 11.1631 49.6364 10.5042 49.6364 9.41229C49.6364 8.3265 49.0301 7.66455 48.0496 7.66455C47.0659 7.66455 46.4595 8.3265 46.4595 9.41229C46.4595 10.5042 47.0628 11.1631 48.0496 11.1631ZM48.0496 10.5723C47.4711 10.5723 47.1463 10.1485 47.1463 9.41229C47.1463 8.68223 47.4711 8.25534 48.0496 8.25534C48.6249 8.25534 48.9528 8.68223 48.9528 9.41229C48.9528 10.1454 48.6249 10.5723 48.0496 10.5723Z" fill="white"/>
<path d="M51.618 10.5939C51.2561 10.5939 50.9931 10.4176 50.9931 10.1145C50.9931 9.81752 51.2035 9.65974 51.6675 9.6288L52.4903 9.57621V9.85774C52.4903 10.2753 52.1191 10.5939 51.618 10.5939ZM51.4478 11.1538C51.8902 11.1538 52.2583 10.962 52.4594 10.6249H52.512V11.0982H53.1522V8.79669C53.1522 8.08524 52.6759 7.66455 51.8314 7.66455C51.0673 7.66455 50.5229 8.03574 50.4549 8.61416H51.0983C51.1725 8.376 51.4293 8.23988 51.8005 8.23988C52.2552 8.23988 52.4903 8.44097 52.4903 8.79669V9.08745L51.5777 9.14004C50.7766 9.18954 50.325 9.53908 50.325 10.1454C50.325 10.7609 50.7982 11.1538 51.4478 11.1538Z" fill="white"/>
<path d="M55.4092 11.1537C55.8732 11.1537 56.266 10.9341 56.4671 10.566H56.5197V11.0981H57.157V6.41479H56.4919V8.26458H56.4424C56.2599 7.89338 55.8701 7.67378 55.4092 7.67378C54.5585 7.67378 54.011 8.34811 54.011 9.41225C54.011 10.4794 54.5523 11.1537 55.4092 11.1537ZM55.5979 8.27076C56.1547 8.27076 56.5043 8.71311 56.5043 9.41534C56.5043 10.1206 56.1578 10.5568 55.5979 10.5568C55.0349 10.5568 54.6977 10.1268 54.6977 9.41225C54.6977 8.70383 55.038 8.27076 55.5979 8.27076Z" fill="white"/>
<path d="M61.4697 11.1631C62.4535 11.1631 63.0565 10.5042 63.0565 9.41229C63.0565 8.3265 62.4501 7.66455 61.4697 7.66455C60.4859 7.66455 59.8795 8.3265 59.8795 9.41229C59.8795 10.5042 60.4831 11.1631 61.4697 11.1631ZM61.4697 10.5723C60.8915 10.5723 60.5663 10.1485 60.5663 9.41229C60.5663 8.68223 60.8915 8.25534 61.4697 8.25534C62.0451 8.25534 62.3731 8.68223 62.3731 9.41229C62.3731 10.1454 62.0451 10.5723 61.4697 10.5723Z" fill="white"/>
<path d="M63.9368 11.0982H64.6017V9.12767C64.6017 8.60179 64.9145 8.27391 65.4061 8.27391C65.8983 8.27391 66.1334 8.54306 66.1334 9.08436V11.0982H66.7983V8.91735C66.7983 8.11618 66.3837 7.66455 65.6322 7.66455C65.1248 7.66455 64.7907 7.89034 64.6265 8.26463H64.577V7.72952H63.9368V11.0982Z" fill="white"/>
<path d="M69.8611 6.89111V7.74488H69.3262V8.30473H69.8611V10.2072C69.8611 10.8567 70.1553 11.1166 70.8944 11.1166C71.0244 11.1166 71.1481 11.1011 71.2561 11.0826V10.5289C71.1633 10.5381 71.1048 10.5443 71.003 10.5443C70.6717 10.5443 70.5265 10.3896 70.5265 10.037V8.30473H71.2561V7.74488H70.5265V6.89111H69.8611Z" fill="white"/>
<path d="M72.1494 11.0981H72.8142V9.13071C72.8142 8.6203 73.1174 8.27695 73.6619 8.27695C74.1322 8.27695 74.3825 8.5492 74.3825 9.0874V11.0981H75.0474V8.92349C75.0474 8.12232 74.6052 7.6676 73.8875 7.6676C73.3801 7.6676 73.0246 7.89338 72.8604 8.27076H72.808V6.41479H72.1494V11.0981Z" fill="white"/>
<path d="M77.447 8.23059C77.9386 8.23059 78.2604 8.574 78.2755 9.10292H76.5745C76.6117 8.57709 76.9548 8.23059 77.447 8.23059ZM78.2727 10.1887C78.149 10.4516 77.8734 10.597 77.4717 10.597C76.9396 10.597 76.5959 10.2227 76.5745 9.63189V9.59477H78.9534V9.36279C78.9534 8.30484 78.3869 7.66455 77.4498 7.66455C76.5003 7.66455 75.8967 8.34816 75.8967 9.42467C75.8967 10.5011 76.4879 11.1631 77.4532 11.1631C78.2232 11.1631 78.7615 10.7919 78.9129 10.1887H78.2727Z" fill="white"/>
<path d="M19.3033 15.2725C19.3194 14.0196 19.9923 12.8341 21.0597 12.1779C20.3863 11.2162 19.2585 10.6064 18.085 10.5698C16.8335 10.4384 15.6201 11.3187 14.9823 11.3187C14.3322 11.3187 13.3503 10.5828 12.2929 10.6045C10.9146 10.6491 9.62969 11.4327 8.95913 12.6376C7.51773 15.1333 8.59289 18.801 9.97366 20.8183C10.6645 21.806 11.4719 22.9094 12.5283 22.8703C13.5621 22.8275 13.9482 22.2111 15.1961 22.2111C16.4324 22.2111 16.7946 22.8703 17.8725 22.8455C18.9818 22.8274 19.6807 21.8533 20.3473 20.8561C20.8437 20.1523 21.2256 19.3744 21.479 18.5512C20.1754 17.9998 19.3048 16.6879 19.3033 15.2725Z" fill="white"/>
<path d="M17.2674 9.24322C17.8722 8.51709 18.1702 7.58385 18.098 6.6416C17.1739 6.73863 16.3203 7.18031 15.7074 7.87854C15.1079 8.56074 14.796 9.47756 14.8549 10.3838C15.7793 10.3933 16.6881 9.96367 17.2674 9.24322Z" fill="white"/>
<path d="M7.95693 0.819718H83.1659V-0.5354H7.95693V0.819718ZM89.6026 7.25649V22.8403H90.9576V7.25649H89.6026ZM83.1659 29.2771H7.95693V30.6322H83.1659V29.2771ZM1.52015 22.8403V7.25649H0.165039V22.8403H1.52015ZM7.95693 29.2771C6.84273 29.2771 6.04098 29.2767 5.40796 29.2335C4.78103 29.1908 4.36924 29.1083 4.02976 28.9676L3.51118 30.2196C4.0433 30.44 4.61979 30.538 5.31572 30.5855C6.00556 30.6326 6.86124 30.6322 7.95693 30.6322V29.2771ZM0.165039 22.8403C0.165039 23.936 0.164672 24.7917 0.21174 25.4815C0.259222 26.1775 0.357234 26.754 0.577646 27.2861L1.82961 26.7675C1.68899 26.428 1.60648 26.0162 1.56371 25.3893C1.52052 24.7563 1.52015 23.9545 1.52015 22.8403H0.165039ZM4.02976 28.9676C3.03363 28.555 2.24222 27.7636 1.82961 26.7675L0.577646 27.2861C1.12779 28.6142 2.18301 29.6695 3.51118 30.2196L4.02976 28.9676ZM89.6026 22.8403C89.6026 23.9545 89.602 24.7563 89.5593 25.3893C89.5159 26.0162 89.4338 26.428 89.2932 26.7675L90.5453 27.2861C90.7653 26.754 90.8637 26.1775 90.9109 25.4815C90.9582 24.7917 90.9576 23.936 90.9576 22.8403H89.6026ZM83.1659 30.6322C84.2616 30.6322 85.1172 30.6326 85.8068 30.5855C86.5026 30.538 87.0792 30.44 87.6113 30.2196L87.0927 28.9676C86.7535 29.1083 86.3418 29.1908 85.7146 29.2335C85.0817 29.2767 84.2802 29.2771 83.1659 29.2771V30.6322ZM89.2932 26.7675C88.8803 27.7636 88.0889 28.555 87.0927 28.9676L87.6113 30.2196C88.9399 29.6695 89.9946 28.6142 90.5453 27.2861L89.2932 26.7675ZM83.1659 0.819718C84.2802 0.819718 85.0817 0.820084 85.7146 0.863273C86.3418 0.906051 86.7535 0.988553 87.0927 1.12917L87.6113 -0.12279C87.0792 -0.343203 86.5026 -0.441215 85.8068 -0.488696C85.1172 -0.535766 84.2616 -0.5354 83.1659 -0.5354V0.819718ZM90.9576 7.25649C90.9576 6.1608 90.9582 5.30512 90.9109 4.61528C90.8637 3.91935 90.7653 3.34286 90.5453 2.81074L89.2932 3.32932C89.4338 3.6688 89.5159 4.08059 89.5593 4.70753C89.602 5.34054 89.6026 6.14229 89.6026 7.25649H90.9576ZM87.0927 1.12917C88.0889 1.54178 88.8803 2.3332 89.2932 3.32932L90.5453 2.81074C89.9946 1.48257 88.9399 0.427353 87.6113 -0.12279L87.0927 1.12917ZM7.95693 -0.5354C6.86124 -0.5354 6.00556 -0.535766 5.31572 -0.488696C4.61979 -0.441215 4.0433 -0.343203 3.51118 -0.12279L4.02976 1.12917C4.36924 0.988553 4.78103 0.906051 5.40796 0.863273C6.04098 0.820084 6.84273 0.819718 7.95693 0.819718V-0.5354ZM1.52015 7.25649C1.52015 6.14229 1.52052 5.34054 1.56371 4.70753C1.60648 4.08059 1.68899 3.6688 1.82961 3.32932L0.577646 2.81074C0.357234 3.34286 0.259222 3.91935 0.21174 4.61528C0.164672 5.30512 0.165039 6.1608 0.165039 7.25649H1.52015ZM3.51118 -0.12279C2.18301 0.427353 1.12779 1.48257 0.577646 2.81074L1.82961 3.32932C2.24222 2.3332 3.03363 1.54178 4.02976 1.12917L3.51118 -0.12279Z" fill="#A6A6A6"/>
</g>
<defs>
<clipPath id="clip0_380_3106">
<rect width="90" height="29.8125" fill="white" transform="translate(0.655029 0.14209)"/>
</clipPath>
</defs>
</svg>
