<svg width="47" height="15" viewBox="0 0 47 15" fill="none" xmlns="http://www.w3.org/2000/svg">
<path fill-rule="evenodd" clip-rule="evenodd" d="M10.2481 3.34592C9.91579 3.34592 10.0145 3.04761 10.0145 2.64006C10.0145 2.16448 8.99688 2.19086 8.58396 2.19086C7.79202 2.19086 7.06915 2.37855 6.42334 2.54379L6.45935 2.56832C6.57158 2.6234 7.31214 2.62132 7.71285 3.14805C7.81918 3.28784 7.89141 3.40633 7.97058 3.57064L8.81642 3.50538C8.9455 3.50885 9.84757 3.58707 9.95306 3.63799C10.2485 3.78078 10.0143 4.0946 10.0143 4.34084C10.0143 4.69956 9.97833 4.85438 10.3354 4.85438C10.9078 4.85438 12.1987 3.79282 12.7709 3.55213C14.2541 2.92819 16.1037 3.831 17.4846 2.70024C17.6097 2.59771 17.711 2.50977 17.7514 2.3193C17.4749 2.24848 17.3096 2.57596 16.5543 2.57596C15.2393 2.57596 14.2893 1.41927 11.9414 2.57642C11.5521 2.76828 10.6551 3.34616 10.2476 3.34616L10.2481 3.34592Z" fill="#F7931E"/>
<path fill-rule="evenodd" clip-rule="evenodd" d="M10.2481 5.81659C9.91581 5.81659 10.0146 5.51828 10.0146 5.11073C10.0146 4.58886 8.50944 4.61547 8.20433 4.69346C8.08999 5.23246 7.9407 5.73605 7.50419 6.07417L7.32837 6.20169L8.01229 6.05473C8.71937 5.93555 8.69452 6.0147 9.13861 6.00914C9.31527 6.00706 9.3736 6.0265 9.51889 6.04038C10.4275 6.12601 10.0144 6.38869 10.0144 6.81151C10.0144 7.17022 9.97835 7.32482 10.3355 7.32482C10.9535 7.32482 12.1253 6.29426 12.7711 6.02256C12.9317 5.95499 13.0636 5.91009 13.247 5.8719C14.475 5.61664 15.9909 6.04247 17.1094 5.43172C17.3418 5.30467 17.6882 5.08736 17.7514 4.78974C17.4633 4.71591 17.3604 5.04639 16.496 5.04639C15.7386 5.04639 14.9812 4.53308 13.8098 4.53308C12.8058 4.53308 11.9537 5.03621 11.1434 5.48518C10.9606 5.58655 10.4875 5.81659 10.2481 5.81659Z" fill="#00A24E"/>
<path fill-rule="evenodd" clip-rule="evenodd" d="M1.45986 0.842721H4.29197C4.2667 0.961908 4.20922 1.02277 4.15552 1.14196L3.25999 2.94943L3.10459 3.26001L2.51121 4.469C2.46194 4.57892 2.41351 4.65368 2.36466 4.75713L2.06734 5.36093C2.01028 5.46368 1.95321 5.56412 1.92689 5.68794C1.96585 5.74626 2.23748 5.98 2.3356 6.00893C2.36782 5.85734 2.43815 5.77495 2.50111 5.64535L4.11088 2.44098C4.37704 1.96053 4.99168 0.634203 5.19698 0.297241H1.45986V0.842721ZM4.0294 3.53818C4.18858 3.57892 4.27892 3.69 4.4381 3.73073L5.53852 1.5708L5.71708 1.22157C5.76804 1.12923 5.87711 0.940616 5.89796 0.842721H7.91245V0.297241H5.72277C5.61412 0.297241 5.54105 0.540011 5.48357 0.643923L5.06812 1.47082L4.85924 1.883L4.0294 3.53818ZM10.8322 11.7211H11.5912V12.6197H10.8322V11.7211ZM16.7297 11.7211H17.1386C17.5656 11.7183 17.489 11.5799 17.489 12.5556H16.6714C16.8651 12.1532 16.7619 11.9958 16.7297 11.7211ZM13.3722 10.4376C13.3825 10.5746 13.4202 10.5894 13.4305 10.7264C13.7371 10.6984 13.9953 10.5151 14.1896 11.4323H10.1023V11.7211H10.5403V12.6197C10.3763 12.6197 10.0823 12.6107 10.3066 13.0048C10.379 13.1321 10.8324 13.6494 10.8324 12.9085H11.5915V13.8713H11.9126V11.7213C12.0391 11.7213 12.1038 11.7447 12.1781 11.747C12.2672 11.75 12.3053 11.7213 12.4381 11.7213H13.3724V12.0423C12.9273 12.0423 12.3506 11.9507 12.3506 12.5237C12.3506 12.6836 12.4653 12.8095 12.5257 12.9088C12.3392 12.9634 12.3213 13.2457 12.3213 13.4221C12.3213 13.8192 12.7325 14.1682 12.9928 14.4168L13.204 14.1997C12.9696 14.0226 12.6133 13.7012 12.6133 13.358C12.6133 12.8824 13.5183 12.8535 13.5183 13.2617C13.5183 13.4989 13.4154 13.4985 13.2556 13.5827C13.265 13.7072 13.301 13.784 13.3432 13.8715C13.6582 13.7056 13.8104 13.6577 13.8104 13.1976C13.8104 13.03 13.6716 12.8787 13.5767 12.8127C13.0905 12.4758 12.6426 12.9766 12.6426 12.4915C12.6426 12.2501 13.4103 12.3311 13.6935 12.3311V11.7213C13.8108 11.7213 13.8708 11.7389 13.9353 11.7449C14.0563 11.756 14.0446 11.7213 14.1898 11.7213V13.8713H14.5112V11.7213C14.6377 11.7213 14.7022 11.7447 14.7765 11.747C14.854 11.7495 15.3934 11.6998 15.6482 11.7229C16.2048 11.7736 15.8889 11.7213 16.3797 11.7213C16.4768 11.7213 16.5238 12.192 16.3797 12.4915C16.0628 12.2585 16.2852 12.299 15.6206 12.299C15.4326 12.299 15.2237 12.352 15.1064 12.4399C14.5428 12.8613 15.0946 13.6239 15.4745 13.9035L15.6857 13.6864C15.1692 13.3751 14.987 12.706 15.4189 12.623C15.5686 12.5943 15.6813 12.5878 15.8542 12.5878C15.9325 12.9581 16.6303 13.7607 16.876 13.9035L17.058 13.7183C16.9375 13.529 16.5471 13.2474 16.3212 12.8766C16.5911 12.7975 16.2745 12.7817 16.7048 12.8396C17.0295 12.8833 17.17 12.8766 17.4892 12.8766V13.8713H17.7811V11.7213C17.9076 11.7213 17.9722 11.7447 18.0466 11.747C18.1356 11.75 18.1738 11.7213 18.3066 11.7213H19.2702C19.3373 11.7213 19.3578 11.7435 19.3578 11.8176C19.3578 12.6922 19.4953 12.9995 18.8983 13.1122C18.3374 13.2182 18.2877 12.3631 18.8322 12.3631L19.2409 12.3952V12.0745C19.0301 12.0745 18.7145 11.9606 18.4102 12.1883C17.9579 12.5267 18.1032 13.4223 18.8029 13.4223C19.0312 13.4223 19.1872 13.3054 19.3578 13.2619V13.8715H19.6496V11.7215H20V11.4327H14.54C14.4088 11.4327 14.4387 11.1393 14.2579 10.7801C14.0521 10.3712 13.6643 10.2839 13.3722 10.438V10.4376ZM7.82485 7.61366C7.82485 7.0094 8.35885 7.14409 8.54983 7.45884C8.62416 7.58126 8.74608 7.79186 8.75934 7.96683H7.91266C7.88339 7.82843 7.82506 7.79094 7.82506 7.6139L7.82485 7.61366ZM7.62039 7.96659H1.72285V8.25542H1.98564V8.8009C1.98564 8.96591 1.55651 9.11935 1.28487 8.96128C1.40153 8.76966 1.51839 8.78609 1.51839 8.44774C1.51839 8.0027 1.17412 7.93443 0.875955 7.93443C0.65065 7.93443 0.571687 8.02121 0.40892 8.06287C0.418395 8.18738 0.454402 8.26421 0.496515 8.35169C0.548314 8.3385 1.22634 7.99483 1.22634 8.48014C1.22634 8.75137 0.972605 8.76896 0.78836 8.76896C0.78836 9.36489 0.86269 8.87519 1.10168 9.13022C1.35626 9.40169 1.26171 9.76365 1.0802 9.76365C0.78857 9.76365 0.72519 9.77267 0.503885 9.43455C0.439031 9.3355 0.288476 9.01821 0.262787 8.8974C0.179192 8.91893 0.0694868 8.95711 0 8.99368C0.081068 9.37623 0.47588 10.0846 0.934282 10.0846C1.45986 10.0846 1.62115 9.80021 1.51818 9.31444C1.71822 9.31444 1.85319 9.28783 1.98522 9.21817V10.4054H2.27727V8.25542H2.89044V10.4054H3.1825V8.25542H5.40144V8.67269H4.43789C4.42884 8.79234 4.3922 8.84256 4.3503 8.92934C4.62972 9.13508 4.83207 9.3635 4.67141 9.73148C4.07235 9.88492 4.02224 9.32277 3.7664 8.73679C3.65311 8.74721 3.58321 8.78678 3.50361 8.83307C3.53499 8.90481 3.54278 8.95827 3.57394 9.04459C3.60426 9.12814 3.62616 9.15985 3.65775 9.24131C4.13573 10.4714 5.02179 10.1934 5.02179 9.50699C5.02179 9.24756 4.88366 9.11819 4.78828 8.96151H5.40144V10.3094C5.40144 10.4561 5.72256 10.4561 5.72256 10.3094V8.25565H6.21886V10.3094C6.21886 10.4561 6.53998 10.4561 6.53998 10.3094V8.25565H7.76631V8.60858C7.49932 8.60858 7.2738 8.67593 7.1224 8.79951C6.79918 9.06334 6.82571 9.74374 7.22032 9.97888C7.48563 10.1369 7.55954 10.1168 7.9415 10.1168L8.17502 10.5982C8.31568 10.5852 8.30957 10.5348 8.43781 10.5019L8.20429 10.0527C8.53509 9.86038 8.35569 9.44312 8.05837 9.44312C7.78758 9.44312 7.82485 9.70347 7.82485 9.82822C7.43446 9.82822 7.21168 9.75763 7.21168 9.3149C7.21168 8.88074 7.77747 8.89764 8.08764 8.89764V8.25588H8.7884V10.4059H9.08046V8.25588H9.46011V7.96706H9.0514C9.03519 7.75229 8.868 7.43292 8.77177 7.27948C8.43086 6.73654 7.72546 6.8268 7.56101 7.25981C7.47131 7.4961 7.52332 7.76502 7.6206 7.96706L7.62039 7.96659ZM6.04388 11.7931H6.7737V12.6595H6.04388V11.7931ZM3.21177 11.5683C3.21556 11.7563 3.25767 11.6912 3.27009 11.8572C3.41033 11.8442 3.81799 11.5896 3.98118 11.8458C4.14247 12.0992 3.92137 12.2763 3.59142 12.3064V12.5952C3.73081 12.5952 3.71249 12.5734 3.82493 12.563C3.92495 12.7271 4.05845 12.7553 4.05845 13.0444C4.05845 13.274 3.70744 13.5237 3.32379 12.9854C3.24904 12.8805 3.09532 12.5739 3.06584 12.4346C2.93424 12.4378 2.9115 12.4709 2.80306 12.4987C2.81948 12.7151 3.21345 13.5896 3.70807 13.5896C4.48822 13.5896 4.34335 13.112 4.32124 12.8194C4.40568 12.8194 4.49454 12.8275 4.57708 12.8118C4.65288 12.7975 4.68573 12.7648 4.78849 12.7553V13.9106H5.08054V11.7928H5.72277V12.6593C5.50357 12.6593 5.43071 12.6459 5.43071 12.8518C5.43071 13.1335 6.02809 13.7264 6.04388 12.9481H6.7737V13.9109C6.28877 14.0349 6.3551 14.9377 6.9489 14.9377C7.19273 14.9377 7.27843 14.9403 7.50374 14.8093C7.47047 14.7329 7.43572 14.6123 7.41614 14.5205C6.64652 14.968 6.47954 14.1192 7.1243 14.1034C7.05586 13.7808 7.09503 12.2388 7.09503 11.7931H8.70081V12.3385C8.38875 12.3385 7.92571 12.3034 7.6903 12.4795C7.32644 12.7519 7.42941 13.2369 7.68588 13.5503L8.05858 13.943C8.14596 13.8787 8.20324 13.8484 8.26304 13.7505C8.08174 13.4786 7.76673 13.4177 7.76673 12.9484C7.76673 12.772 7.87897 12.6896 8.00678 12.6667C8.26641 12.6204 8.44265 12.6274 8.70102 12.6274V13.9109H8.99307V11.7931C9.43273 11.7931 9.37251 11.8546 9.37251 11.4721H4.52549V11.7931H4.78828V12.3064C4.78828 12.4573 4.47748 12.563 4.32124 12.563C4.23596 12.563 4.16984 12.52 4.08772 12.4989C4.12099 12.3624 4.14605 12.4475 4.24122 12.2825C4.44063 11.937 4.28039 11.4399 3.70807 11.4399C3.50087 11.4399 3.38043 11.5251 3.21177 11.5683ZM9.63509 8.99345H10.511V9.69931C10.511 9.8789 9.9562 10.1187 9.9562 9.6352C9.9562 9.31166 10.4188 9.43964 10.4525 9.44265V9.21794C10.2354 9.21794 9.75174 9.16309 9.75174 9.66714C9.75174 10.0721 10.1343 10.2652 10.5108 9.98813V10.4373H10.7151C10.7151 9.91986 10.6189 9.48107 11.0947 9.60303C11.1512 9.86964 11.1356 9.94601 11.0071 10.2129C11.0747 10.2626 11.1019 10.2992 11.2116 10.3091C11.2708 10.03 11.3285 10.239 11.3285 9.69931C11.3285 9.44289 11.0819 9.26144 10.7153 9.47459V8.99322H11.5912V10.4373C11.8865 10.4373 11.7957 10.5503 11.7957 8.99322H12.0292V8.80067H9.63509V8.99345ZM4.17532 10.598C4.17532 10.8646 4.58403 10.9356 4.58403 10.598C4.58403 10.2603 4.17532 10.3313 4.17532 10.598ZM6.20117 2.72911C6.64964 2.75038 7.07206 2.96653 7.37555 3.33004C7.67905 3.69355 7.83876 4.17465 7.81959 4.66756C7.80029 5.1605 7.60364 5.62484 7.2729 5.95845C6.94215 6.29206 6.50439 6.46764 6.05588 6.44656C5.85922 6.43731 5.67202 6.39148 5.49915 6.31534V6.08646C5.67673 6.17661 5.86866 6.22763 6.0641 6.23666C6.26238 6.24842 6.46082 6.21684 6.64793 6.14374C6.83504 6.07064 7.00709 5.95748 7.15414 5.81081C7.30119 5.66413 7.4203 5.48686 7.50459 5.28924C7.58888 5.09163 7.63667 4.8776 7.64519 4.65955C7.65371 4.4415 7.6228 4.22376 7.55424 4.01893C7.48567 3.8141 7.38083 3.62625 7.24577 3.46626C7.11071 3.30626 6.94811 3.1773 6.7674 3.08684C6.58668 2.99638 6.39144 2.94621 6.19296 2.93924C5.95409 2.92761 5.71616 2.97912 5.49915 3.08944V2.86056C5.72199 2.7624 5.96134 2.71743 6.20117 2.72911Z" fill="#A08B63"/>
<path fill-rule="evenodd" clip-rule="evenodd" d="M5.62058 2.9125C5.63441 2.91315 5.64799 2.9168 5.66054 2.92323C5.67308 2.92965 5.68435 2.93874 5.6937 2.94996C5.70305 2.96118 5.71029 2.97432 5.71502 2.98862C5.71974 3.00292 5.72185 3.01811 5.72123 3.03331C5.7204 3.05623 5.71338 3.07837 5.70108 3.0969C5.68877 3.11544 5.67173 3.12953 5.65211 3.13739C5.6325 3.14526 5.6112 3.14653 5.59093 3.14106C5.57066 3.13559 5.55232 3.12362 5.53825 3.10667C5.52407 3.08982 5.51477 3.06871 5.51153 3.04603C5.50829 3.02336 5.51126 3.00013 5.52006 2.97932C5.52887 2.9585 5.54311 2.94103 5.56097 2.92913C5.57883 2.91724 5.59972 2.91145 5.62058 2.9125ZM5.8063 6.31591C5.78565 6.30158 5.77017 6.27981 5.76252 6.25433C5.75486 6.22884 5.75551 6.20122 5.76434 6.1762C5.77317 6.15117 5.78964 6.1303 5.81094 6.11716C5.83223 6.10402 5.85701 6.09942 5.88105 6.10415C5.90158 6.10809 5.92058 6.11863 5.93565 6.13444C5.95072 6.15025 5.96118 6.17062 5.96571 6.19297C5.97024 6.21532 5.96864 6.23865 5.9611 6.26C5.95357 6.28134 5.94044 6.29976 5.92338 6.3129C5.90632 6.32608 5.8861 6.33341 5.86525 6.33394C5.84441 6.33448 5.82389 6.3282 5.8063 6.31591ZM6.22449 6.34854C6.21128 6.344 6.19901 6.33665 6.18839 6.3269C6.17777 6.31715 6.169 6.3052 6.16258 6.29172C6.15617 6.27825 6.15223 6.26351 6.151 6.24836C6.14977 6.23321 6.15128 6.21794 6.15542 6.20343C6.16165 6.18156 6.17364 6.16221 6.18989 6.14784C6.20614 6.13346 6.2259 6.12472 6.24668 6.12271C6.26745 6.1207 6.2883 6.12552 6.30658 6.13656C6.32486 6.14759 6.33975 6.16434 6.34935 6.18469C6.35905 6.205 6.36305 6.22802 6.36082 6.25083C6.35859 6.27364 6.35024 6.29521 6.33684 6.31279C6.32344 6.33038 6.30558 6.34319 6.28553 6.34959C6.26549 6.356 6.24417 6.35571 6.22427 6.34877L6.22449 6.34854ZM6.63614 6.26129C6.62231 6.26064 6.60873 6.25699 6.59619 6.25056C6.58364 6.24413 6.57237 6.23505 6.56302 6.22383C6.55367 6.21261 6.54643 6.19947 6.54171 6.18517C6.53698 6.17087 6.53487 6.15568 6.53549 6.14048C6.53633 6.11756 6.54334 6.09542 6.55565 6.07689C6.56796 6.05835 6.585 6.04426 6.60461 6.0364C6.62422 6.02853 6.64552 6.02725 6.66579 6.03273C6.68607 6.0382 6.7044 6.05017 6.71847 6.06712C6.73266 6.08397 6.74196 6.10508 6.7452 6.12776C6.74843 6.15043 6.74546 6.17366 6.73666 6.19447C6.72786 6.21529 6.71362 6.23276 6.69576 6.24465C6.67789 6.25655 6.65722 6.26234 6.63635 6.26129H6.63614ZM7.01306 6.05995C6.98924 6.06586 6.96429 6.0625 6.94248 6.05043C6.92067 6.03835 6.90336 6.01833 6.89351 5.99377C6.88365 5.96921 6.88187 5.94165 6.88847 5.91581C6.89507 5.88997 6.90963 5.86746 6.92967 5.85212C6.94672 5.83894 6.96695 5.83162 6.98779 5.83109C7.00863 5.83056 7.02914 5.83683 7.04673 5.84913C7.06432 5.86142 7.07819 5.87918 7.08659 5.90015C7.09499 5.92111 7.09754 5.94435 7.09391 5.96691C7.09033 5.98947 7.08073 6.01036 7.06633 6.02692C7.05194 6.04348 7.0334 6.05497 7.01306 6.05995ZM7.32975 5.75793C7.31748 5.76501 7.30405 5.76936 7.29025 5.77072C7.27644 5.77209 7.26253 5.77045 7.24931 5.76589C7.23608 5.76133 7.2238 5.75395 7.21318 5.74416C7.20256 5.73438 7.1938 5.72238 7.1874 5.70887C7.1777 5.68856 7.17371 5.66553 7.17594 5.64272C7.17816 5.61991 7.18651 5.59834 7.19992 5.58076C7.21332 5.56317 7.23118 5.55036 7.25122 5.54396C7.27126 5.53755 7.29259 5.53784 7.31248 5.54478C7.33238 5.55163 7.34999 5.56481 7.36307 5.58267C7.37614 5.60053 7.3841 5.62225 7.38592 5.64508C7.38775 5.66791 7.38337 5.69083 7.37333 5.71092C7.36329 5.73101 7.34826 5.74737 7.32975 5.75793ZM7.56474 5.3763C7.55454 5.38659 7.5426 5.39456 7.52959 5.39976C7.51659 5.40497 7.50278 5.40731 7.48895 5.40664C7.47512 5.40597 7.46155 5.40232 7.44901 5.39588C7.43647 5.38944 7.42521 5.38035 7.41587 5.36913C7.40176 5.35227 7.39252 5.33118 7.38932 5.30854C7.38612 5.28591 7.38911 5.26274 7.39791 5.24197C7.4067 5.2212 7.42091 5.20377 7.43872 5.19188C7.45654 5.17999 7.47717 5.17418 7.49799 5.17519C7.51885 5.17611 7.53899 5.18382 7.55585 5.19734C7.57272 5.21087 7.58554 5.2296 7.59269 5.25116C7.59985 5.27271 7.60101 5.29612 7.59603 5.3184C7.59106 5.34068 7.58016 5.36084 7.56474 5.3763ZM7.7014 4.94075C7.69403 4.95348 7.68434 4.96459 7.67297 4.97338C7.66022 4.98322 7.64564 4.98983 7.63028 4.99272C7.61492 4.99562 7.59917 4.99473 7.58417 4.99013C7.56916 4.98552 7.55527 4.97731 7.5435 4.96609C7.53173 4.95487 7.52237 4.94092 7.5161 4.92524C7.5076 4.90428 7.50497 4.88101 7.50854 4.8584C7.51211 4.83578 7.52172 4.81485 7.53614 4.79825C7.55057 4.78165 7.56916 4.77014 7.58954 4.76519C7.60993 4.76023 7.6312 4.76205 7.65065 4.77042C7.66518 4.7766 7.67828 4.78626 7.689 4.79868C7.69972 4.81111 7.7078 4.82599 7.71266 4.84227C7.71751 4.85854 7.71902 4.87579 7.71707 4.89278C7.71513 4.90977 7.70977 4.92608 7.7014 4.94052V4.94075ZM7.7313 4.48113C7.72408 4.5068 7.70896 4.52892 7.68853 4.54368C7.66811 4.55844 7.64364 4.56492 7.61934 4.56202C7.59503 4.55912 7.5724 4.54701 7.55533 4.52778C7.53826 4.50854 7.52782 4.48338 7.52578 4.4566C7.52388 4.43375 7.5282 4.4108 7.5382 4.39066C7.54819 4.37051 7.56341 4.35409 7.58191 4.34347C7.60042 4.33286 7.62138 4.32853 7.64213 4.33103C7.66288 4.33354 7.68248 4.34277 7.69845 4.35755C7.71445 4.37225 7.72611 4.39185 7.73195 4.41385C7.7378 4.43586 7.73757 4.45927 7.7313 4.48113ZM7.65191 4.02892C7.65132 4.04412 7.648 4.05904 7.64215 4.07283C7.6363 4.08662 7.62804 4.09901 7.61783 4.10928C7.60762 4.11956 7.59567 4.12752 7.58266 4.13271C7.56964 4.1379 7.55583 4.14022 7.542 4.13954C7.52114 4.13862 7.501 4.13091 7.48413 4.11739C7.46727 4.10386 7.45445 4.08513 7.44729 4.06357C7.44014 4.04202 7.43898 4.01861 7.44395 3.99633C7.44893 3.97405 7.45983 3.95389 7.47525 3.93843C7.49058 3.92284 7.50978 3.91262 7.53042 3.90906C7.55105 3.9055 7.57218 3.90876 7.59112 3.91844C7.61006 3.92812 7.62595 3.94377 7.63678 3.9634C7.6476 3.98303 7.65287 4.00599 7.65191 4.02892ZM7.46872 3.61466C7.47173 3.6295 7.47205 3.64486 7.46966 3.65984C7.46727 3.67482 7.46221 3.68914 7.45478 3.70197C7.44735 3.71481 7.43769 3.7259 7.42635 3.73463C7.41501 3.74335 7.40222 3.74954 7.38871 3.75282C7.36834 3.75791 7.34705 3.75622 7.32756 3.74798C7.30807 3.73973 7.29125 3.7253 7.27924 3.70652C7.26723 3.68774 7.26057 3.66545 7.26012 3.6425C7.25966 3.61955 7.26543 3.59697 7.27668 3.57763C7.28784 3.55824 7.30399 3.54293 7.32307 3.53365C7.34216 3.52436 7.36333 3.52152 7.38389 3.52549C7.40445 3.52946 7.42347 3.54006 7.43853 3.55593C7.4536 3.57181 7.46404 3.59225 7.46851 3.61466H7.46872ZM7.19372 3.26636C7.20016 3.27984 7.20412 3.2946 7.20536 3.30977C7.2066 3.32494 7.20511 3.34023 7.20096 3.35477C7.19681 3.3693 7.1901 3.3828 7.18119 3.39447C7.17229 3.40615 7.16138 3.41577 7.14908 3.4228C7.1306 3.43347 7.10965 3.43785 7.0889 3.43541C7.06815 3.43296 7.04852 3.42378 7.03252 3.40905C7.01652 3.39432 7.00487 3.37469 6.99904 3.35266C6.99321 3.33063 6.99347 3.3072 6.99979 3.28533C7.00598 3.26339 7.01797 3.24397 7.03424 3.22955C7.05051 3.21512 7.07031 3.20634 7.09114 3.20433C7.11196 3.20232 7.13285 3.20717 7.15116 3.21826C7.16947 3.22934 7.18436 3.24617 7.19393 3.26659L7.19372 3.26636ZM6.84671 3.00831C6.86331 3.02802 6.87316 3.05347 6.87456 3.08029C6.87596 3.1071 6.86883 3.13362 6.85439 3.15529C6.83995 3.17697 6.8191 3.19244 6.79542 3.19907C6.77173 3.20569 6.74669 3.20305 6.72458 3.1916C6.70563 3.18199 6.68971 3.16641 6.67884 3.14683C6.66797 3.12726 6.66263 3.10457 6.66351 3.08166C6.66439 3.05875 6.67145 3.03663 6.68378 3.01814C6.69612 2.99964 6.71318 2.98558 6.73279 2.97776C6.75237 2.96992 6.77362 2.96863 6.79386 2.97407C6.8141 2.97951 6.83263 2.99142 6.84671 3.00831ZM6.45021 2.85765C6.47086 2.87198 6.48634 2.89375 6.494 2.91923C6.50165 2.94472 6.50101 2.97234 6.49217 2.99736C6.48334 3.02238 6.46687 3.04325 6.44558 3.0564C6.42429 3.06954 6.3995 3.07414 6.37546 3.06941C6.35494 3.06547 6.33594 3.05493 6.32087 3.03912C6.3058 3.02331 6.29533 3.00294 6.2908 2.98059C6.28627 2.95824 6.28787 2.93491 6.29541 2.91356C6.30295 2.89221 6.31608 2.8738 6.33314 2.86066C6.35021 2.84751 6.37045 2.84022 6.39129 2.83973C6.41213 2.83924 6.43264 2.84532 6.45021 2.85765ZM6.03224 2.82525C6.04547 2.82978 6.05776 2.83714 6.0684 2.84691C6.07904 2.85667 6.08782 2.86865 6.09423 2.88215C6.10065 2.89566 6.10458 2.91042 6.10579 2.9256C6.10701 2.94077 6.10548 2.95606 6.1013 2.97059C6.09508 2.99246 6.08308 3.01181 6.06683 3.02618C6.05059 3.04056 6.03082 3.0493 6.01005 3.05131C5.98927 3.05332 5.96842 3.0485 5.95014 3.03746C5.93186 3.02643 5.91698 3.00968 5.90737 2.98933C5.89767 2.96902 5.89368 2.946 5.8959 2.92319C5.89813 2.90038 5.90648 2.87881 5.91988 2.86123C5.93329 2.84364 5.95115 2.83083 5.97119 2.82443C5.99123 2.81802 6.01256 2.81831 6.03245 2.82525H6.03224Z" fill="#A08B63"/>
<path fill-rule="evenodd" clip-rule="evenodd" d="M6.09596 4.86437C6.10835 4.86656 6.12093 4.86718 6.13345 4.86622C6.19198 5.3918 6.08312 5.62832 6.06733 6.24369L6.05259 6.243C6.08544 5.73501 5.99889 5.32422 6.09596 4.86437ZM6.16229 4.86414C6.17451 4.86298 6.18672 4.85974 6.19893 4.85535C6.37918 5.34644 6.32969 5.60564 6.4594 6.20458L6.44487 6.20829C6.35707 5.70817 6.17682 5.33603 6.16229 4.86414Z" fill="#A08B63"/>
<path fill-rule="evenodd" clip-rule="evenodd" d="M6.22607 4.84535C6.23766 4.84072 6.24861 4.83424 6.25934 4.82637C6.54908 5.24943 6.56235 5.51395 6.82872 6.0555L6.81566 6.06313C6.6131 5.60513 6.35136 5.29687 6.22607 4.84512V4.84535ZM6.28377 4.80855C6.29397 4.80049 6.3033 4.79117 6.31156 4.78078C6.691 5.1071 6.76618 5.35866 7.15088 5.80625L7.13993 5.81735C6.8363 5.43249 6.51097 5.20939 6.28377 4.80855ZM6.33052 4.75694C6.33845 4.74627 6.34524 4.73462 6.35073 4.72223C6.79418 4.92936 6.926 5.1513 7.40293 5.47391L7.39514 5.4878C7.01128 5.20244 6.64447 5.07932 6.33052 4.75694ZM6.36336 4.69376C6.36842 4.6815 6.37221 4.6683 6.37473 4.65442C6.85188 4.72848 7.03128 4.90506 7.56822 5.08118L7.5638 5.09668C7.12582 4.93028 6.74259 4.9157 6.36336 4.69376Z" fill="#A08B63"/>
<path fill-rule="evenodd" clip-rule="evenodd" d="M6.38049 4.6232C6.38248 4.60959 6.38305 4.59577 6.38218 4.58201C6.86037 4.51767 7.07557 4.63732 7.63547 4.65468L7.63484 4.67088C7.17264 4.63477 6.79889 4.72989 6.38049 4.6232ZM6.38007 4.5503C6.37881 4.53659 6.37613 4.52308 6.37207 4.51003C6.81889 4.31193 7.05473 4.36632 7.59967 4.22375L7.60304 4.23972C7.14801 4.33623 6.80942 4.53433 6.38007 4.5503Z" fill="#A08B63"/>
<path fill-rule="evenodd" clip-rule="evenodd" d="M6.36275 4.47988C6.35829 4.467 6.35249 4.45473 6.34549 4.44331C6.7304 4.12486 6.97108 4.11028 7.4638 3.81752L7.47075 3.83187C7.05383 4.05451 6.77378 4.34217 6.36275 4.47988ZM6.32948 4.41669C6.32233 4.40559 6.3139 4.39563 6.30422 4.38615C6.60111 3.96911 6.83 3.88649 7.23724 3.46367L7.24734 3.4757C6.89717 3.80942 6.69418 4.16698 6.32948 4.41669ZM6.28232 4.36532C6.27261 4.35659 6.26201 4.34914 6.25073 4.3431C6.43919 3.85571 6.64112 3.71083 6.93465 3.18665L6.94729 3.19521C6.68766 3.61711 6.57564 4.02026 6.28232 4.36532Z" fill="#A08B63"/>
<path fill-rule="evenodd" clip-rule="evenodd" d="M6.22476 4.32925C6.2136 4.32369 6.2016 4.31953 6.18896 4.31675C6.25635 3.79233 6.41701 3.59515 6.57725 3.005L6.59136 3.00986C6.43996 3.49124 6.4269 3.91244 6.22476 4.32925Z" fill="#A08B63"/>
<path fill-rule="evenodd" clip-rule="evenodd" d="M6.16059 4.31047C6.14821 4.30822 6.13563 4.3076 6.12311 4.30862C6.06457 3.78305 6.17343 3.54652 6.18923 2.93115L6.20397 2.93185C6.17112 3.43984 6.25745 3.85062 6.16038 4.31071L6.16059 4.31047ZM6.09447 4.31071C6.08226 4.31209 6.07005 4.3151 6.05783 4.3195C5.87759 3.82841 5.92707 3.5692 5.79736 2.97026L5.81189 2.96656C5.8997 3.46668 6.07994 3.83882 6.09447 4.31071Z" fill="#A08B63"/>
<path fill-rule="evenodd" clip-rule="evenodd" d="M6.03042 4.3296C6.01883 4.33423 6.00788 4.34071 5.99715 4.34858C5.70741 3.92552 5.69414 3.661 5.42777 3.11945L5.44083 3.11182C5.64339 3.56982 5.90513 3.87785 6.03042 4.3296ZM5.97314 4.36617C5.96294 4.37422 5.95361 4.38354 5.94535 4.39394C5.56591 4.06762 5.49073 3.81606 5.10603 3.36847L5.11698 3.35736C5.42062 3.74223 5.74594 3.96533 5.97314 4.36617ZM5.9264 4.41801C5.91847 4.42869 5.91169 4.44034 5.90618 4.45272C5.46273 4.24559 5.33091 4.02365 4.85398 3.70104L4.86177 3.68715C5.24563 3.9725 5.61244 4.09562 5.9264 4.41801ZM5.89334 4.48119C5.88828 4.49345 5.88449 4.50664 5.88197 4.52053C5.40482 4.44647 5.22542 4.26989 4.68848 4.09377L4.6929 4.07827C5.13088 4.24467 5.51411 4.25925 5.89334 4.48119Z" fill="#A08B63"/>
<path fill-rule="evenodd" clip-rule="evenodd" d="M5.87631 4.55161C5.87426 4.56522 5.8737 4.57905 5.87463 4.59281C5.39643 4.65714 5.18123 4.53749 4.62134 4.52014L4.62197 4.50394C5.08416 4.54004 5.45792 4.44515 5.87652 4.55184L5.87631 4.55161ZM5.87652 4.62451C5.87778 4.63823 5.88047 4.65174 5.88452 4.66478C5.4377 4.86288 5.20187 4.8085 4.65692 4.95106L4.65355 4.93509C5.10859 4.83858 5.44718 4.64048 5.87652 4.62451Z" fill="#A08B63"/>
<path fill-rule="evenodd" clip-rule="evenodd" d="M5.89364 4.69507C5.89786 4.7078 5.90375 4.71983 5.91091 4.73163C5.526 5.05008 5.28532 5.06466 4.79259 5.35742L4.78564 5.34307C5.20236 5.12044 5.48262 4.83277 5.89364 4.69507ZM5.92712 4.75802C5.93428 4.76913 5.94271 4.77908 5.95239 4.78857C5.65549 5.2056 5.42661 5.28822 5.01937 5.71105L5.00927 5.69901C5.35944 5.36529 5.56242 5.00796 5.92712 4.75802Z" fill="#A08B63"/>
<path fill-rule="evenodd" clip-rule="evenodd" d="M5.97429 4.80975C5.98402 4.81845 5.99461 4.82591 6.00588 4.83196C5.81742 5.31935 5.61549 5.46423 5.32196 5.98842L5.30933 5.97962C5.56895 5.55773 5.68098 5.15481 5.97429 4.80975ZM6.03178 4.84585C6.04294 4.8514 6.05494 4.85557 6.06758 4.85835C6.0004 5.38277 5.83953 5.58018 5.67929 6.17009L5.66518 6.16523C5.81658 5.68386 5.82985 5.26265 6.03178 4.84585ZM6.13327 4.45936C6.14864 4.46005 6.16359 4.46422 6.1777 4.47116C6.19171 4.47814 6.20426 4.48823 6.21455 4.50079C6.2249 4.51325 6.23298 4.52779 6.23834 4.5436C6.24361 4.55934 6.24592 4.57623 6.24529 4.59313C6.24424 4.61858 6.23645 4.64312 6.22276 4.66348C6.20908 4.68385 6.19012 4.69958 6.16844 4.70838C6.14675 4.71717 6.12316 4.71856 6.10063 4.71254C6.07816 4.70648 6.0578 4.69328 6.0421 4.67459C6.02636 4.65589 6.01609 4.63243 6.01262 4.60724C6.00904 4.58202 6.01241 4.55633 6.02209 4.53342C6.03178 4.51051 6.04757 4.49107 6.06736 4.47787C6.08716 4.46468 6.11011 4.4582 6.13327 4.45936Z" fill="#A08B63"/>
<mask id="mask0_380_3312" style="mask-type:luminance" maskUnits="userSpaceOnUse" x="27" y="1" width="20" height="13">
<path d="M27 1.39636H47V13.7542H27V1.39636Z" fill="white"/>
</mask>
<g mask="url(#mask0_380_3312)">
<path d="M45.0934 6.54108C45.0887 6.54922 45.0976 6.56102 45.1023 6.56032C45.121 6.55683 45.1402 6.56024 45.1569 6.57001C45.1863 6.58616 45.2613 6.51538 45.1727 6.49979C45.1718 6.49965 45.1709 6.49951 45.1699 6.49951C45.1492 6.49951 45.1003 6.52914 45.0934 6.54108Z" fill="url(#paint0_radial_380_3312)"/>
<path d="M45.1467 6.47303C45.157 6.49859 45.2779 6.44213 45.2916 6.42037C45.2981 6.41012 45.2902 6.40576 45.2754 6.40576C45.2328 6.40576 45.1335 6.44073 45.1467 6.47303Z" fill="url(#paint1_radial_380_3312)"/>
<path d="M45.0528 6.48561C45.0472 6.49319 45.0431 6.49656 45.0338 6.49642C44.9936 6.49544 44.9704 6.51384 44.9621 6.53223C44.9502 6.55906 44.97 6.58574 45.0157 6.5526C45.0358 6.53799 45.0556 6.52395 45.079 6.51524C45.1125 6.50274 45.1294 6.46384 45.1115 6.4609C45.105 6.45977 45.0993 6.45935 45.0945 6.45935C45.0733 6.45935 45.0651 6.46904 45.0528 6.48561Z" fill="url(#paint2_radial_380_3312)"/>
<path d="M45.2493 5.91022C45.2396 5.91809 45.2361 5.93789 45.2263 5.94224C45.2195 5.94519 45.2107 5.93719 45.2012 5.92918C45.1904 5.91991 45.1786 5.91079 45.1683 5.91823C45.1098 5.95994 45.1347 5.956 45.1059 6.05332C45.063 6.19965 45.1354 6.1175 45.1316 6.18729C45.1305 6.20766 45.1229 6.22577 45.1222 6.26004C45.1211 6.30076 45.1915 6.28573 45.2016 6.22366C45.2144 6.14362 45.2129 6.12312 45.2276 6.12255C45.2553 6.12129 45.2305 6.17114 45.2705 6.17662C45.2959 6.18013 45.2754 6.21187 45.3139 6.20457C45.3443 6.19881 45.3777 6.1564 45.3523 6.14053C45.3188 6.11989 45.3659 6.10865 45.3245 6.0706C45.3192 6.06568 45.3156 6.05543 45.3153 6.04742C45.3138 5.99139 45.266 5.98353 45.2926 5.95502C45.2982 5.94884 45.3037 5.94112 45.3107 5.93789C45.3309 5.9289 45.3481 5.87329 45.3171 5.87329C45.3041 5.87329 45.2826 5.88312 45.2493 5.91022Z" fill="url(#paint3_radial_380_3312)"/>
<path d="M45.0712 4.46542C44.9746 4.47259 45.0679 4.65206 45.0303 4.67368C45.0168 4.68141 45.0137 4.69292 45.0207 4.70921C45.0299 4.73084 45.0305 4.78266 45.0628 4.79403C45.0794 4.79979 45.0865 4.80765 45.0853 4.82661C45.0844 4.84079 45.0994 4.84655 45.1019 4.8568C45.1049 4.86972 45.0886 4.89486 45.098 4.90076C45.1093 4.90778 45.1092 4.92168 45.1149 4.93165C45.1564 5.00285 45.1939 4.91227 45.1704 4.87562C45.1667 4.86986 45.1599 4.86537 45.1586 4.85933C45.1554 4.84304 45.1615 4.82478 45.1778 4.83012C45.194 4.83546 45.2041 4.83209 45.2121 4.82844C45.2238 4.82324 45.2314 4.8179 45.2506 4.84079C45.2698 4.86368 45.3072 4.84276 45.3 4.82324C45.2966 4.81369 45.2771 4.76131 45.2677 4.76103C45.2387 4.76019 45.2079 4.746 45.1826 4.77395C45.1729 4.78476 45.1705 4.77648 45.167 4.76763C45.1106 4.62481 45.1775 4.66315 45.1674 4.59659C45.1695 4.55797 45.1711 4.55628 45.1619 4.54378C45.1347 4.50657 45.1663 4.46472 45.0913 4.46472L45.0712 4.46556V4.46542Z" fill="url(#paint4_radial_380_3312)"/>
<path d="M40.658 5.16699C40.6911 5.26023 40.8118 5.16965 40.6742 5.14185C40.6619 5.14157 40.6606 5.15617 40.658 5.16699Z" fill="url(#paint5_radial_380_3312)"/>
<path d="M42.0846 8.60881C42.1303 8.60881 42.1072 8.56064 42.0846 8.55797L42.0709 8.55713C42.0146 8.55713 42.0418 8.60881 42.0846 8.60881Z" fill="url(#paint6_radial_380_3312)"/>
<path d="M42.4111 5.61602C42.4128 5.67008 42.395 5.69873 42.3872 5.75279C42.412 5.87764 42.3878 5.84267 42.4395 5.90109C42.4585 5.92272 42.5444 5.91499 42.5716 5.85573C42.6108 5.77035 42.4663 5.5979 42.423 5.5979C42.4152 5.5979 42.4106 5.60338 42.4111 5.61602Z" fill="url(#paint7_radial_380_3312)"/>
<path d="M40.4545 6.84414C40.4532 6.85088 40.4555 6.85846 40.4541 6.86506C40.4464 6.90227 40.4325 6.86099 40.4162 6.92629C40.4128 6.93921 40.408 6.94988 40.3957 6.95325C40.266 6.9892 40.2727 6.94763 40.2668 7.00268C40.2584 7.08188 40.2888 7.08511 40.3225 7.16684C40.3663 7.27287 40.2262 7.15687 40.4029 7.43661C40.4209 7.46512 40.4996 7.53463 40.5639 7.52803C40.6385 7.52017 40.5745 7.32385 40.589 7.25082C40.6091 7.15069 40.5666 7.0861 40.6036 7.06531C40.6186 7.05689 40.621 7.04734 40.6109 7.03667C40.5682 6.99131 40.5896 6.92853 40.5158 6.84343C40.5056 6.8315 40.49 6.82251 40.4771 6.82251C40.4665 6.82251 40.4576 6.82855 40.4545 6.84414Z" fill="url(#paint8_radial_380_3312)"/>
<path d="M43.6969 6.21234C43.7343 6.21191 43.7461 6.18074 43.7378 6.17372C43.7108 6.15125 43.6914 6.14282 43.6788 6.14282C43.6477 6.14282 43.6576 6.1938 43.6969 6.21234Z" fill="url(#paint9_radial_380_3312)"/>
<path d="M44.3794 6.33597C44.3831 6.38751 44.505 6.31069 44.4259 6.28064C44.3943 6.28654 44.3757 6.28541 44.3794 6.33597Z" fill="url(#paint10_radial_380_3312)"/>
<path d="M44.9062 4.0951C44.923 4.22499 44.991 4.23272 44.999 4.18469C45.0027 4.16306 45.0226 4.10535 45.0054 4.02839C45.0005 4.00676 45.0312 3.98865 44.9947 3.96056C44.9866 3.95352 44.9768 3.94931 44.9666 3.94849C44.9309 3.94849 44.9226 4.02474 44.9062 4.0951Z" fill="url(#paint11_radial_380_3312)"/>
<path d="M44.8613 5.60421C44.8592 5.62977 44.8376 5.6212 44.8213 5.63665C44.7472 5.7063 44.7745 5.68285 44.7266 5.76697C44.6742 5.85909 44.6052 5.80236 44.5977 5.90038C44.5946 5.94138 44.5806 5.93914 44.5385 5.93914V5.93829C44.5213 5.93829 44.4974 5.93506 44.4849 5.95206C44.4349 6.0196 44.4505 6.07072 44.4813 6.14922C44.5035 6.20581 44.538 6.16495 44.5399 6.21199C44.5421 6.2655 44.5217 6.327 44.6312 6.2794C44.6359 6.27743 44.6479 6.28207 44.6478 6.28249C44.645 6.30959 44.6784 6.29316 44.7184 6.27673C44.7603 6.2596 44.8093 6.24232 44.831 6.27504C44.8558 6.31226 44.8683 6.25468 44.9442 6.23235C44.9926 6.21817 44.9583 6.16762 44.9807 6.11032C44.9893 6.08855 44.9652 6.07648 44.9919 6.04011C45.0441 5.96877 45.039 6.01932 45.0417 5.8963C45.0427 5.84603 45.127 5.86176 45.1088 5.8237C45.0888 5.78242 45.056 5.79674 45.0555 5.76023C45.0547 5.72273 44.9948 5.67021 45.0572 5.61165C45.0706 5.59901 45.0883 5.59031 45.0752 5.56517C45.0739 5.56264 45.0776 5.55562 45.0804 5.55211C45.0973 5.53048 45.1253 5.50914 45.0913 5.49664C45.0279 5.47333 45.0262 5.48639 45.0105 5.46069C44.9993 5.44215 44.987 5.43457 44.9746 5.43457C44.9206 5.43457 44.8632 5.58104 44.8613 5.60421Z" fill="url(#paint12_radial_380_3312)"/>
<path d="M38.9785 5.57824C38.9785 7.60212 40.4672 9.24866 42.2971 9.24866C44.127 9.24866 45.6157 7.60212 45.6157 5.57824C45.6157 3.55436 44.127 1.90796 42.2971 1.90796C40.4672 1.90796 38.9785 3.5545 38.9785 5.57824ZM40.0812 3.09937C40.1111 3.08856 40.1313 3.08645 40.1291 3.06159C40.1282 3.05204 40.1256 3.04376 40.1189 3.03856L40.1704 2.98548C40.1877 2.98 40.1948 2.99938 40.211 3.01174C40.2354 3.03028 40.1958 3.03365 40.1848 3.10569C40.1793 3.1408 40.1249 3.18475 40.055 3.29429C40.0043 3.37363 39.9551 3.33964 39.9378 3.30327C39.9308 3.28825 39.924 3.27785 39.9175 3.27013C39.9647 3.21071 40.0137 3.15301 40.0643 3.09712C40.0692 3.09859 40.0742 3.09934 40.0793 3.09937H40.0812ZM44.4264 4.53723C44.4263 4.53372 44.4269 4.52951 44.4255 4.52684C44.3881 4.45677 44.5191 4.43991 44.5694 4.37195C44.5888 4.34583 44.6267 4.34484 44.6349 4.30679C44.6354 4.30454 44.6401 4.30285 44.6432 4.30201C44.7747 4.26761 44.8375 4.01511 44.8571 3.99377C44.8766 3.97242 44.8542 3.94967 44.8597 3.92791C44.8651 3.90614 44.882 3.78958 44.8938 3.76487C44.9262 3.69648 44.9027 3.73299 44.9048 3.67611C44.9063 3.62781 44.8924 3.62331 44.9041 3.5934C45.1401 3.97024 45.3062 4.39445 45.3931 4.84183C45.3571 4.80742 45.2879 4.84871 45.3346 4.89786C45.3689 4.93395 45.3035 4.92749 45.3502 4.98829C45.3834 5.03169 45.3355 5.01778 45.3185 5.05612C45.3173 5.05865 45.3113 5.05935 45.3076 5.05949C45.3015 5.05949 45.3117 5.01582 45.312 5.00866C45.3126 4.98871 45.2883 4.99195 45.2844 4.97566C45.2775 4.94785 45.2571 4.95248 45.2321 4.95712C45.2103 4.96105 45.193 4.96709 45.2014 5.03155C45.2045 5.0564 45.2216 5.05444 45.235 5.05247C45.2464 5.05093 45.2551 5.04924 45.251 5.06328C45.2368 5.11173 45.2258 5.1151 45.2533 5.13659C45.3095 5.18068 45.3033 5.0998 45.333 5.09207C45.3652 5.08379 45.3756 5.06005 45.4011 4.99616C45.4152 4.96133 45.3775 4.97285 45.41 4.93493L45.4258 5.03604C45.4181 5.03801 45.4126 5.0418 45.4132 5.04882C45.4179 5.10583 45.3856 5.09699 45.3714 5.13771C45.3634 5.16046 45.3531 5.15864 45.3405 5.15709C45.3278 5.15555 45.3145 5.15386 45.2989 5.17352C45.2955 5.17773 45.2418 5.24584 45.2414 5.25146C45.2373 5.3096 45.2312 5.33403 45.2508 5.33066C45.2781 5.32603 45.2713 5.31423 45.2833 5.2846C45.2927 5.26143 45.3522 5.22028 45.3522 5.25216C45.3521 5.30103 45.3278 5.33979 45.4307 5.34091C45.4404 5.34105 45.4488 5.33782 45.4558 5.33263C45.4609 5.4138 45.4637 5.49567 45.4637 5.57824L45.463 5.64298C45.4607 5.63933 45.4565 5.63806 45.4512 5.63905C45.417 5.64537 45.4088 5.69452 45.3831 5.70982C45.2947 5.76263 45.2707 5.72934 45.2224 5.75476C45.1961 5.76852 45.1796 5.80489 45.1982 5.82807C45.4397 5.75139 45.4133 5.76543 45.4562 5.67851C45.4594 5.67205 45.4614 5.66671 45.4627 5.66194C45.4573 5.91956 45.4261 6.17575 45.3697 6.42588C45.3684 6.42714 45.3675 6.42826 45.3661 6.42953C45.3508 6.44483 45.3427 6.46688 45.3549 6.48907C45.3088 6.67823 45.2487 6.86121 45.1759 7.03633C45.1677 7.0467 45.1601 7.05757 45.153 7.06891C45.0908 7.16524 44.8962 7.22745 44.8102 7.3082C44.7794 7.33713 44.7461 7.361 44.709 7.37898C44.6626 7.40144 44.6905 7.42588 44.6464 7.49385C44.63 7.51912 44.6288 7.54553 44.6412 7.57389C44.6656 7.62978 44.6067 7.60928 44.6221 7.66363C44.6464 7.74915 44.6484 7.75168 44.6436 7.76965C44.6234 7.84548 44.6955 7.81599 44.5795 7.94028C44.5676 7.95305 44.588 7.9605 44.6139 7.96303C44.0354 8.65001 43.2109 9.08057 42.2971 9.08057C40.7977 9.08057 39.5385 7.92216 39.2125 6.37195C39.3885 6.74072 39.675 7.20021 39.9531 7.46927C40.068 7.58035 40.0246 7.42616 40.0269 7.39639C40.0294 7.36451 40.0191 7.34738 39.9828 7.27464C39.9701 7.24936 39.9727 7.2495 39.9873 7.2495C39.9928 7.2495 40 7.2495 40.0087 7.24824C40.0233 7.24599 40.0336 7.23096 40.0273 7.2179C40.0092 7.18069 40.003 7.13786 39.9768 7.10401C39.9586 7.08042 39.8844 6.96934 39.927 6.96162C39.9695 6.95389 39.9524 6.90123 40.0261 6.91387C40.0678 6.92103 40.1016 6.84661 40.0758 6.79142C40.0577 6.75238 40.0349 6.63891 40.0215 6.5708C40.0058 6.49104 39.9657 6.50873 39.937 6.38866C39.9101 6.27604 39.9432 6.31859 39.9017 6.24402C39.864 6.17647 39.8986 6.13336 39.9247 6.04952C39.9285 6.03731 39.9323 6.02677 39.9428 6.01961C40.0464 5.94785 39.9866 5.92145 40.1725 5.80841C40.2056 5.80728 40.2284 5.78439 40.2517 5.76234C40.4092 5.61405 40.3886 5.56602 40.4379 5.48514C40.4756 5.42335 40.493 5.40734 40.5162 5.33558C40.5179 5.33052 40.5431 5.25623 40.541 5.25146C40.5253 5.21368 40.5648 5.18012 40.5322 5.16355C40.4978 5.146 40.4888 5.15456 40.4789 5.16313C40.4727 5.16847 40.466 5.17394 40.4523 5.17268C40.3657 5.1651 40.298 5.14712 40.2829 5.15625C40.2767 5.16004 40.2657 5.16116 40.2598 5.15765C40.234 5.14221 40.2118 5.14473 40.1931 5.14726C40.1709 5.15021 40.1534 5.1533 40.1405 5.12648C40.0975 5.03829 40.0916 5.03155 40.1134 5.01652C40.1166 5.01427 40.1196 5.00697 40.1187 5.00304C40.1126 4.97664 40.1214 4.98534 40.1411 4.99405C40.1595 5.00206 40.1872 5.0102 40.2207 4.98984C40.2464 4.97425 40.2583 4.98001 40.2718 4.98591C40.2862 4.99326 40.3027 4.99402 40.3177 4.98801C40.3537 4.9758 40.3674 4.9779 40.3794 4.98015C40.3862 4.98141 40.3925 4.98268 40.4021 4.98127C40.4227 4.97818 40.4383 4.95361 40.4613 4.95108C40.6968 4.92496 40.604 4.91471 40.636 4.88227C40.667 4.85095 40.7043 4.85489 40.7382 4.85868C40.7752 4.86289 40.8082 4.8671 40.8247 4.82525C40.8325 4.80573 40.8472 4.80588 40.8622 4.80616C40.8792 4.80644 40.8966 4.80672 40.9049 4.77835C40.9132 4.74998 40.9329 4.75125 40.9513 4.75209C40.9742 4.75307 40.9949 4.75406 40.9895 4.7014C40.9873 4.68005 41.037 4.65814 41.0495 4.63441C41.1005 4.53807 41.1709 4.52277 41.1258 4.46926C41.0819 4.41702 41.1044 4.38936 41.0267 4.34597C40.951 4.30384 40.9593 4.22604 40.982 4.18166C40.9936 4.15877 40.9716 4.11805 40.9482 4.14684C40.9147 4.1877 40.8742 4.2186 40.8313 4.24542C40.8104 4.25848 40.8092 4.25427 40.793 4.25005C40.7816 4.2471 40.7627 4.24415 40.7245 4.2471C40.671 4.25132 40.7005 4.17324 40.7093 4.13069C40.7171 4.09291 40.6947 4.05879 40.6694 4.08055C40.6633 4.08589 40.6582 4.09305 40.6517 4.09769C40.6496 4.09909 40.6414 4.09488 40.6408 4.09207C40.6358 4.06749 40.6586 4.04868 40.6339 3.9838C40.5263 3.70111 40.6505 3.7695 40.6831 3.77371C40.7223 3.88816 40.6964 3.964 40.7443 3.97607C40.7621 3.98057 40.7691 3.99784 40.7773 4.01287C40.8386 4.12493 40.9335 4.14052 40.9692 4.10555C40.979 4.09572 40.9963 4.09909 41.0044 4.11721C41.0231 4.15849 40.9478 4.20806 41.1484 4.27168C41.2278 4.29682 41.2297 4.31971 41.3236 4.32055C41.4082 4.32125 41.4064 4.33501 41.4567 4.33473C41.6154 4.33375 41.5275 4.35186 41.5586 4.37461C41.5937 4.40059 41.5849 4.46294 41.6327 4.47966C41.6507 4.48583 41.669 4.53232 41.6941 4.55184C41.721 4.57276 41.6797 4.57487 41.6899 4.60394C41.6963 4.62247 41.7668 4.71375 41.7785 4.72878C41.7935 4.74844 41.8679 4.75251 41.9005 4.70715C41.9517 4.63595 41.8956 4.91597 41.9438 4.99054C41.9438 4.99054 41.947 5.09109 41.9695 5.12802C41.9801 5.14558 41.9769 5.16706 41.9897 5.18462C42.0467 5.26312 42.0363 5.39273 42.0951 5.45873C42.1269 5.49454 42.1693 5.72443 42.2368 5.74325C42.3099 5.76347 42.2953 5.68834 42.3284 5.6743C42.367 5.65786 42.3649 5.65028 42.3791 5.60534C42.3896 5.57262 42.4283 5.60197 42.4282 5.54046C42.4279 5.48738 42.4003 5.47615 42.4281 5.43992C42.4655 5.39077 42.4473 5.24528 42.4383 5.21874C42.4195 5.16369 42.4795 5.16833 42.4971 5.1467C42.5305 5.10555 42.5869 5.12872 42.5917 5.07045C42.5953 5.02733 42.6816 5.00332 42.7347 4.91864C42.7586 4.88047 42.7921 4.85072 42.831 4.83298C42.9325 4.78607 42.8649 4.72934 42.9127 4.70027C42.9467 4.67963 43.006 4.70238 43.058 4.67092C43.0902 4.6514 43.1428 4.67401 43.1483 4.61278C43.15 4.59495 43.1778 4.59762 43.1831 4.60745C43.2103 4.65899 43.2055 4.73903 43.3003 4.78369C43.3521 4.80812 43.3104 4.83565 43.3572 4.87455C43.4641 4.96372 43.3387 5.06581 43.4147 5.1019C43.4839 5.13476 43.4953 5.08842 43.5719 5.03169C43.6056 5.00669 43.6469 5.11524 43.6406 5.15695C43.64 5.16074 43.6305 5.16313 43.6371 5.16818C43.6622 5.187 43.6607 5.22632 43.686 5.24458C43.6935 5.26831 43.7141 5.28895 43.6972 5.31859C43.6935 5.32505 43.6969 5.34063 43.7019 5.34822C43.7161 5.37054 43.7322 5.51154 43.707 5.53695C43.7049 5.53892 43.7031 5.54482 43.7041 5.54636C43.7285 5.584 43.6968 5.63371 43.7385 5.65393C43.7868 5.67753 43.8641 5.79169 43.8636 5.80798C43.8597 5.92061 43.9622 6.04012 43.9622 6.04012C43.8818 6.04012 43.8958 5.99251 43.788 5.95502C43.7484 5.94125 43.7248 5.8643 43.6732 5.86935C43.6621 5.87048 43.6388 5.86837 43.6134 5.86626C43.5634 5.86219 43.5045 5.85798 43.5105 5.8782C43.5165 5.89842 43.5192 5.92173 43.5311 5.93564C43.5528 5.96063 43.5762 5.98465 43.6092 5.9949C43.6816 6.01723 43.6837 6.09095 43.7178 6.09685C43.8063 6.11202 43.7506 6.20835 43.8206 6.22913C43.8446 6.2363 43.8404 6.24374 43.8901 6.30679C43.9265 6.35299 43.9126 6.39751 43.9904 6.44329C44.0429 6.47418 43.9996 6.48359 44.0962 6.52179C44.154 6.54468 44.1565 6.58358 44.2041 6.55886C44.2236 6.54861 44.2719 6.54665 44.2585 6.58246C44.2458 6.6163 44.2552 6.6295 44.2612 6.62824C44.2838 6.62346 44.2917 6.63062 44.2994 6.63793C44.307 6.64523 44.3142 6.65211 44.335 6.64804C44.3559 6.64396 44.3755 6.63512 44.3948 6.65253C44.3973 6.65478 44.4039 6.65309 44.4079 6.65127C44.462 6.62796 44.513 6.62838 44.5645 6.62866C44.6215 6.62908 44.679 6.6295 44.7421 6.59776C44.7475 6.5951 44.7585 6.59608 44.7712 6.59706C44.8045 6.59959 44.8507 6.60212 44.8471 6.5392C44.8455 6.50803 44.8217 6.51617 44.7987 6.52418C44.7845 6.52923 44.7705 6.53415 44.7622 6.52994C44.7719 6.50831 44.8199 6.50719 44.8124 6.47587C44.8097 6.46506 44.7719 6.47475 44.7628 6.47784C44.6467 6.5173 44.6099 6.47152 44.5671 6.52867C44.5481 6.55395 44.4891 6.55086 44.4678 6.53682C44.4611 6.53246 44.4219 6.53274 44.4117 6.52965C44.3714 6.51828 44.3 6.526 44.3 6.526C44.3263 6.48036 44.2788 6.38347 44.336 6.34906C44.3744 6.32589 44.3303 6.30103 44.3171 6.2759C44.2908 6.2259 44.2389 6.24992 44.2236 6.278C44.2099 6.30286 44.2125 6.25582 44.1949 6.2391C44.1683 6.21383 44.1392 6.21607 44.1392 6.21607C44.1558 6.13589 44.1676 6.17549 44.1036 6.11089C44.0803 6.08744 44.197 6.0991 44.1648 6.04026C44.1458 6.00557 44.1017 5.98113 44.1075 5.88986C44.114 5.78341 43.9798 5.72991 43.9616 5.70828C43.949 5.69353 43.9352 5.69438 43.923 5.69522C43.9061 5.69634 43.8917 5.69747 43.8864 5.65815C43.8835 5.6361 43.8766 5.61447 43.8625 5.60225C43.8279 5.57206 43.8621 5.54229 43.815 5.53457C43.7211 5.5194 43.8421 5.37897 43.8214 5.28446C43.8145 5.25272 43.8449 5.21396 43.8535 5.23377C43.8862 5.30932 43.8156 5.25722 43.9805 5.30721C44.0348 5.32378 43.994 5.37813 44.0381 5.38051C44.0576 5.3815 44.0598 5.40635 44.0762 5.40972C44.1719 5.43037 44.1476 5.42896 44.1601 5.52305C44.162 5.53822 44.1797 5.54552 44.19 5.53555C44.1983 5.52769 44.2047 5.51715 44.2117 5.50774C44.2596 5.44301 44.2526 5.48766 44.2957 5.39386C44.3201 5.34063 44.5374 5.30201 44.401 4.99939C44.3385 4.86106 44.2498 4.88016 44.2127 4.80405C44.1839 4.74479 44.1632 4.77849 44.1503 4.72737C44.1339 4.66165 44.1816 4.61896 44.247 4.51743C44.2748 4.47404 44.3412 4.4812 44.3451 4.49833C44.3516 4.5274 44.3829 4.56785 44.3723 4.57711C44.2908 4.64775 44.303 4.64115 44.3134 4.7108C44.321 4.76122 44.395 4.7306 44.4145 4.72414C44.4268 4.69971 44.4519 4.68342 44.4547 4.65365C44.4569 4.6302 44.4623 4.60843 44.4717 4.58793C44.4776 4.57557 44.4632 4.55001 44.4416 4.55268C44.4406 4.55282 44.4397 4.55282 44.4389 4.55282C44.4306 4.55282 44.4268 4.54734 44.4264 4.53751V4.53723ZM39.9262 3.625C39.9347 3.62275 39.9436 3.6205 39.9516 3.6337C39.9707 3.66488 39.968 3.93296 39.9855 3.96554C40.0366 4.06047 39.9922 4.15091 39.9984 4.25483C40.0013 4.30524 40.0465 4.3301 40.0376 4.37096C40.0693 4.4173 40.0439 4.46463 40.0766 4.54692C40.1328 4.68819 40.0695 4.69409 40.0973 4.84828C40.107 4.90179 40.091 4.964 40.0382 4.80461C40.009 4.71656 39.9698 4.70828 39.9714 4.66741C39.9714 4.66573 39.9714 4.66292 39.9704 4.66236C39.9312 4.6375 39.9556 4.59509 39.9477 4.56785C39.9625 4.40186 39.8738 4.39568 39.9087 4.25356C39.925 4.18686 39.9358 4.11917 39.9087 4.05191C39.8702 3.95599 39.9161 3.98675 39.9 3.88732C39.8956 3.8612 39.9057 3.83564 39.9022 3.80924C39.8978 3.77793 39.8896 3.62008 39.9128 3.62598C39.914 3.62626 39.9153 3.6264 39.9165 3.6264C39.9197 3.6264 39.9229 3.62556 39.9262 3.62472V3.625Z" fill="url(#paint13_radial_380_3312)"/>
<path d="M43.3445 5.2386L43.3488 5.23804C43.347 5.23804 43.3457 5.23832 43.3445 5.2386ZM43.3387 5.23944C43.3399 5.23944 43.3409 5.23958 43.3419 5.23972C43.3427 5.2393 43.3436 5.23888 43.3445 5.2386L43.3387 5.23944ZM43.3377 5.2452C43.3363 5.24997 43.3402 5.25615 43.3446 5.25503C43.3489 5.25391 43.35 5.24857 43.3483 5.24492C43.347 5.24225 43.3446 5.24056 43.3419 5.23986C43.34 5.24113 43.3385 5.24281 43.3377 5.2452Z" fill="url(#paint14_radial_380_3312)"/>
<path d="M43.3117 5.30085C43.3058 5.31068 43.2996 5.32051 43.2991 5.33273C43.2989 5.33834 43.3099 5.36278 43.3101 5.36264C43.3002 5.38749 43.2989 5.41642 43.3065 5.44226C43.3145 5.42822 43.3102 5.40519 43.3235 5.39746C43.3262 5.39592 43.3292 5.39536 43.3317 5.39353C43.3341 5.39171 43.3363 5.3882 43.335 5.38525C43.3337 5.3823 43.3311 5.38188 43.3292 5.37991C43.326 5.37682 43.3256 5.37148 43.3255 5.36671L43.3242 5.31924C43.324 5.31068 43.337 5.2906 43.3291 5.28414C43.3278 5.28301 43.3265 5.28259 43.3253 5.28259C43.3189 5.28259 43.3145 5.29621 43.3117 5.30085Z" fill="url(#paint15_radial_380_3312)"/>
<path d="M43.2851 5.46886C43.2827 5.47322 43.2828 5.47869 43.2832 5.48389C43.2836 5.48908 43.2841 5.49302 43.2864 5.49681C43.2887 5.5006 43.2928 5.50327 43.2967 5.502C43.3027 5.50004 43.3039 5.49105 43.3027 5.48417C43.3016 5.47729 43.2991 5.47027 43.2957 5.46409C43.2949 5.46381 43.294 5.46339 43.2931 5.46339C43.2901 5.46339 43.2868 5.46577 43.2851 5.46886Z" fill="url(#paint16_radial_380_3312)"/>
<path d="M43.3093 5.57431C43.3097 5.57866 43.3141 5.58245 43.3176 5.58063C43.323 5.57782 43.3202 5.56897 43.3166 5.56364L43.315 5.56335C43.3118 5.56588 43.3091 5.56981 43.3093 5.57431Z" fill="url(#paint17_radial_380_3312)"/>
<path d="M43.3299 5.62686L43.3295 5.62489C43.3251 5.62545 43.3258 5.63304 43.3291 5.63599C43.3324 5.63894 43.3373 5.6395 43.3403 5.64301C43.344 5.64722 43.3438 5.6541 43.3439 5.66C43.344 5.6659 43.346 5.6732 43.3512 5.67475C43.3564 5.67629 43.3617 5.66997 43.3614 5.66393C43.3612 5.65789 43.3575 5.6527 43.353 5.64905C43.3509 5.64736 43.3489 5.64596 43.3472 5.64371C43.3449 5.64034 43.3444 5.63585 43.3435 5.63177C43.3426 5.6277 43.3411 5.62307 43.3375 5.62138C43.3324 5.62096 43.3292 5.62363 43.3299 5.62686Z" fill="url(#paint18_radial_380_3312)"/>
<path d="M43.3605 5.71081C43.3613 5.71657 43.365 5.72121 43.3685 5.72556L43.3853 5.74606C43.3862 5.74704 43.3871 5.74803 43.3881 5.74803C43.3891 5.74803 43.3899 5.74747 43.3907 5.74676C43.3929 5.74427 43.3943 5.74092 43.3944 5.73738C43.3946 5.73384 43.3935 5.73037 43.3914 5.72767C43.3878 5.72345 43.3822 5.72233 43.3776 5.71938C43.3743 5.71727 43.3715 5.71278 43.3717 5.70885L43.3683 5.69775C43.3629 5.69789 43.3596 5.70478 43.3605 5.71053V5.71081ZM43.3717 5.70913L43.3738 5.71573L43.3731 5.70534C43.3723 5.70646 43.3717 5.70772 43.3717 5.70913Z" fill="url(#paint19_radial_380_3312)"/>
<path d="M41.9155 5.64689L41.9125 5.64605C41.914 5.66022 41.9171 5.67413 41.9217 5.68748C41.9312 5.6834 41.9342 5.66908 41.9308 5.65841C41.9273 5.64773 41.9192 5.63987 41.9114 5.63257L41.9155 5.64689Z" fill="url(#paint20_radial_380_3312)"/>
<mask id="mask1_380_3312" style="mask-type:luminance" maskUnits="userSpaceOnUse" x="25" y="-2" width="24" height="19">
<path d="M25.8003 -1.3324H48.6048V16.5012H25.8003V-1.3324Z" fill="white"/>
</mask>
<g mask="url(#mask1_380_3312)">
<path d="M39.2258 11.2907L39.2766 11.293L39.3855 11.2978L39.5164 11.2925L39.5527 11.2907L39.5532 11.3385C39.5119 11.3385 39.4858 11.3443 39.475 11.3557C39.4641 11.367 39.4588 11.3953 39.4588 11.4401V12.0101C39.4588 12.0566 39.4641 12.0851 39.475 12.0957C39.4858 12.1064 39.5119 12.1116 39.5532 12.1116V12.1589L39.4493 12.1542L39.3936 12.153L39.3332 12.1542L39.2258 12.1589V12.1116C39.2675 12.1116 39.2935 12.106 39.3042 12.0945C39.3148 12.083 39.3199 12.0549 39.3199 12.0101V11.4401C39.3199 11.3944 39.3145 11.3661 39.3038 11.355C39.293 11.3439 39.2671 11.3384 39.2258 11.3384V11.2907ZM39.6365 11.2905L39.7083 11.2949L39.7609 11.2964L39.8072 11.2949L39.879 11.2905L40.3046 11.9254V11.4653C40.3046 11.4079 40.2983 11.3722 40.2859 11.3588C40.2735 11.3453 40.2449 11.3384 40.2005 11.3384V11.2905L40.2752 11.2949L40.3318 11.2964L40.3719 11.2949L40.4445 11.2905V11.3384C40.4054 11.3395 40.3801 11.3464 40.3687 11.3588C40.3574 11.3711 40.3516 11.4064 40.3516 11.4642V11.8192L40.3508 12.0105L40.3479 12.1658L40.2913 12.1587L39.7839 11.4038V11.9844C39.7839 12.0442 39.7901 12.0804 39.8023 12.0928C39.8146 12.1051 39.8432 12.1113 39.8881 12.1113L39.8876 12.1587L39.809 12.1539L39.7577 12.1528L39.7215 12.1539L39.6397 12.1587V12.1113C39.6815 12.1109 39.7082 12.1043 39.7202 12.0912C39.7322 12.0782 39.7381 12.0427 39.7381 11.9844V11.4399C39.7381 11.3947 39.7324 11.3663 39.7215 11.3553C39.7105 11.3442 39.6853 11.3384 39.6462 11.3384H39.636L39.6365 11.2905ZM40.7602 11.3385V12.1105H40.8371C40.884 12.1105 40.9203 12.1077 40.9457 12.1022C40.9712 12.0967 40.9935 12.0875 41.0127 12.0744C41.0551 12.0473 41.0869 12.0042 41.1081 11.9451C41.1294 11.8859 41.1398 11.8118 41.1398 11.7225C41.1398 11.5854 41.1157 11.4873 41.0675 11.4277C41.0193 11.3682 40.938 11.3385 40.8237 11.3385H40.7602ZM40.5305 11.2907L40.5815 11.2933L40.664 11.2942L40.7629 11.2925L40.8696 11.2907C41.0025 11.2907 41.1064 11.3293 41.1815 11.4065C41.2566 11.4837 41.2942 11.5906 41.2942 11.7273C41.2942 11.8654 41.2585 11.972 41.1874 12.0467C41.1162 12.1214 41.0147 12.1589 40.883 12.1589C40.8609 12.1589 40.8268 12.1581 40.7804 12.1565L40.6753 12.1542L40.6015 12.1553L40.5305 12.1588V12.1115C40.5701 12.1115 40.595 12.1057 40.6056 12.0941C40.6162 12.0824 40.6213 12.0543 40.6213 12.0098V11.4399C40.6213 11.395 40.6161 11.367 40.6056 11.3561C40.5951 11.3451 40.5701 11.3391 40.5305 11.3384V11.2907ZM41.3771 11.2907L41.4278 11.293L41.5368 11.2978L41.6676 11.2925L41.7039 11.2907L41.7044 11.3385C41.6632 11.3385 41.6371 11.3443 41.6262 11.3557C41.6154 11.367 41.61 11.3953 41.61 11.4401V12.0101C41.61 12.0566 41.6154 12.0851 41.6262 12.0957C41.6371 12.1064 41.6632 12.1116 41.7044 12.1116V12.1589L41.6006 12.1542L41.5449 12.153L41.4844 12.1542L41.3771 12.1589V12.1116C41.4188 12.1116 41.4448 12.106 41.4554 12.0945C41.466 12.083 41.4711 12.0549 41.4711 12.0101V11.4401C41.4711 11.3944 41.4658 11.3661 41.4552 11.355C41.4446 11.3439 41.4184 11.3384 41.3771 11.3384V11.2907ZM42.1064 11.4743L42.0018 11.7975H42.2052L42.1064 11.4743ZM42.1251 11.2794H42.1833L42.4359 12.0479C42.4444 12.0738 42.4543 12.091 42.4656 12.0992C42.4768 12.1075 42.4948 12.1116 42.5197 12.1116V12.1589L42.4202 12.1542L42.3703 12.153L42.311 12.1542L42.2073 12.1589V12.1116C42.2344 12.1109 42.2537 12.1068 42.2652 12.0995C42.2767 12.0922 42.2826 12.0806 42.2826 12.0644C42.2826 12.0593 42.2824 12.0542 42.2818 12.0491C42.2814 12.0449 42.2806 12.0408 42.2794 12.0368L42.2211 11.8459H41.9884L41.9435 11.9859L41.9408 11.9948C41.9302 12.0282 41.9248 12.0515 41.9248 12.0644C41.9248 12.081 41.9291 12.0925 41.9374 12.099C41.9457 12.1054 41.9628 12.1096 41.9884 12.1116V12.1589L41.9332 12.1553L41.8847 12.1542L41.8408 12.1553L41.786 12.1589V12.1116C41.8101 12.1116 41.8279 12.1075 41.8389 12.0992C41.8498 12.091 41.8601 12.0724 41.8693 12.0438L42.1251 11.2794Z" fill="#2E2E75"/>
<path fill-rule="evenodd" clip-rule="evenodd" d="M33.7552 11.3701L33.7542 11.4582L33.754 11.4735L33.7529 11.5194L33.7532 11.5271L33.7519 11.5443L33.7517 11.55L33.7504 11.6611L33.7501 11.6688V11.6766L33.7495 11.7301L33.7498 11.7378V11.7607L33.7485 11.7779L33.7482 11.7837L33.7486 11.7933L33.7482 11.799L33.7486 11.8086L33.7482 11.8143L33.7486 11.8239L33.7482 11.8296L33.7481 11.868L33.6229 11.7442L33.6216 11.4661L33.6217 11.4583V11.3665C33.622 11.3662 33.6203 11.3627 33.6206 11.3631L33.624 11.3593C33.6282 11.3614 33.6222 11.3609 33.6289 11.3609H33.6341L33.6428 11.3603L33.6481 11.3609L33.6567 11.3603L33.662 11.3609L33.6707 11.3603L33.6759 11.3609L33.6846 11.3603L33.6898 11.3609L33.6985 11.3603L33.7036 11.3609L33.7123 11.3603L33.7176 11.3609L33.7262 11.3603L33.7315 11.3609L33.7402 11.3603L33.7454 11.3609L33.7558 11.3606V11.3704L33.7552 11.3701ZM33.097 12.0828C33.0862 12.1078 33.0647 12.1557 33.0423 12.1707C33.0239 12.1831 33.022 12.1905 32.9955 12.1995C32.9787 12.2053 32.9667 12.2011 32.9485 12.2011C32.9196 12.1431 32.8946 12.0469 32.9445 11.992C32.9714 11.9625 32.9982 11.9345 33.0341 11.9149C33.0677 11.8963 33.104 11.8768 33.1336 11.8699C33.1336 11.9335 33.1144 12.042 33.0967 12.0828H33.097ZM32.9826 11.4843C32.9701 11.5047 32.948 11.5233 32.9245 11.5233H32.8986C32.8877 11.5233 32.8303 11.5038 32.8293 11.5042C32.8285 11.4939 32.8225 11.4847 32.8202 11.4682C32.8188 11.4587 32.8191 11.4491 32.8212 11.4398C32.8257 11.4245 32.8405 11.3852 32.8587 11.3835L32.857 11.3797C32.8614 11.3793 32.8862 11.3627 32.8937 11.3589C32.8994 11.3561 32.9161 11.3488 32.9241 11.3463C32.9451 11.3395 32.9697 11.3338 32.9903 11.3338L32.9978 11.4026L32.9969 11.4103V11.4179C32.998 11.4305 32.9918 11.4693 32.9826 11.4843ZM37.3037 12.72L37.302 12.7216L37.3041 12.718L37.3028 12.7194L37.2344 12.651L37.23 12.6464L37.1928 12.609L37.1912 12.6106L37.1933 12.6069C37.1764 12.6052 37.1852 12.585 37.1567 12.5877L37.1523 12.6219C37.1474 12.6792 37.132 12.7687 37.107 12.8159L37.0876 12.856C37.0816 12.8673 37.0677 12.8896 37.0619 12.8963C37.0449 12.9166 37.011 12.958 36.9903 12.9702C36.9827 12.9747 36.9779 12.98 36.9717 12.9841L36.9498 12.9983L36.9025 13.0226C36.8923 13.0283 36.8707 13.0368 36.8597 13.0401L36.8182 13.0521C36.8017 13.0582 36.7469 13.0681 36.728 13.0692L36.679 13.0741L36.6339 13.0759L36.627 13.0758H36.5855L36.5665 13.0747L36.5648 13.0741C36.5321 13.0741 36.522 13.0737 36.4893 13.0698L36.4223 13.0618C36.4071 13.0612 36.3731 13.0549 36.3496 13.0505L36.2864 13.0376C36.2773 13.0342 36.2225 13.023 36.2135 13.0213C36.1925 13.0174 36.1663 13.0088 36.1454 13.0046C36.1222 12.9998 36.1002 12.9914 36.0761 12.9854L36.0058 12.9647C35.9878 12.956 35.9575 12.9489 35.9383 12.9427L35.9055 12.9305C35.9037 12.9298 35.8793 12.9215 35.8742 12.9206C35.855 12.9174 35.8291 12.9024 35.8095 12.8973C35.79 12.8923 35.7699 12.8802 35.7463 12.8743C35.7265 12.8692 35.6924 12.8501 35.6733 12.8454C35.6537 12.8403 35.6285 12.8265 35.6092 12.8195L35.4702 12.7607L35.2112 12.6415L34.9544 12.5118L34.891 12.4787L34.8263 12.4449L34.7571 12.4074C34.7505 12.4054 34.7115 12.3818 34.7007 12.3767C34.6947 12.3738 34.6806 12.3651 34.6702 12.3589L34.6404 12.3422L34.6072 12.3217L34.5771 12.303L34.4493 12.2165L34.4989 12.1792L34.4976 12.1763L34.499 12.178L34.5331 12.1481L34.5322 12.1457C34.5403 12.1449 34.5647 12.1164 34.5706 12.1094C34.5764 12.1023 34.6044 12.0766 34.6016 12.0691H34.6067C34.6047 12.0636 34.6205 12.0463 34.6254 12.0399C34.6312 12.0323 34.6383 12.0178 34.6438 12.0085C34.6585 11.9841 34.6634 11.9696 34.6728 11.9487C34.6909 11.9064 34.7019 11.8609 34.7053 11.8143L34.7084 11.7722L34.7083 11.7569L34.7061 11.736L34.707 11.734C34.707 11.7041 34.6921 11.6295 34.6797 11.5978C34.6717 11.5774 34.666 11.5579 34.6521 11.5325C34.6468 11.5229 34.6251 11.4823 34.6153 11.4814C34.6173 11.4759 34.6091 11.4668 34.6013 11.4661L34.6033 11.4623L34.5336 11.3953L34.5292 11.3906L34.4986 11.3596L34.5096 11.3595L34.5165 11.359H34.605L35.2532 11.3592V11.4599L35.2526 11.4929L35.2525 11.5006L35.2517 11.5312L35.2491 11.6499L35.2488 11.6576L35.1175 11.6478C35.1129 11.6475 35.1132 11.6473 35.1072 11.6479L35.1002 11.6476L35.0777 11.6465L35.0708 11.6462H35.0501L35.0241 11.6473C34.9654 11.6493 34.8965 11.6614 34.8403 11.7087C34.8045 11.7389 34.7958 11.7619 34.7796 11.7996C34.7695 11.8327 34.7644 11.8675 34.7645 11.9025L34.7643 11.9101V11.9178L34.7687 11.9834C34.7709 12.0045 34.7801 12.0307 34.7826 12.0486C34.7875 12.0831 34.8166 12.1457 34.8246 12.1644C34.8414 12.2014 34.862 12.2361 34.886 12.2679C34.8951 12.2794 34.9562 12.3588 34.9705 12.3602L34.9686 12.364L34.97 12.3626L35.0383 12.4308L35.0399 12.4293L35.0378 12.4329L35.0391 12.4315L35.1004 12.4923L35.1021 12.4906L35.1 12.4943C35.1069 12.495 35.1238 12.5132 35.1324 12.5183C35.1431 12.5246 35.1545 12.5344 35.1657 12.5408C35.1769 12.5471 35.2318 12.5792 35.2318 12.5538V12.5519C35.2318 12.5469 35.2109 12.5238 35.204 12.5232L35.2054 12.5214L35.1363 12.4523L35.1347 12.4541L35.1367 12.4505C35.1301 12.4496 35.0962 12.4131 35.0885 12.4058C35.0816 12.3992 35.0388 12.3783 35.0309 12.3776C35.0299 12.3728 35.0221 12.3595 35.0193 12.3561C35.0137 12.3494 35.0134 12.3456 35.0105 12.3401C35.0031 12.3258 34.9947 12.3147 34.9901 12.3025C34.9817 12.2805 34.968 12.2563 34.9596 12.229C34.9399 12.1658 34.9288 12.1212 34.9288 12.0502C34.9288 11.8557 35.0566 11.8166 35.1971 11.8128L35.2111 11.8133H35.2249L35.2457 11.8143L35.2466 11.8166L35.2434 12.0884L35.2436 12.0962V12.2494C35.2449 12.2654 35.2355 12.2873 35.2512 12.3044C35.258 12.3117 35.2964 12.3522 35.3027 12.3527L35.3008 12.3564L35.3022 12.3548L35.3704 12.4232L35.3719 12.4217L35.3699 12.4253C35.3857 12.4273 35.3925 12.4627 35.4081 12.4368L35.4092 12.1075L35.4099 12.1018L35.4095 12.0922L35.4099 12.0865L35.4095 12.0769L35.4099 12.0712L35.412 11.9371L35.4117 11.9313L35.412 11.9217L35.4117 11.916L35.4127 11.8508L35.4132 11.8431V11.8354L35.4135 11.8239H35.4342C35.4389 11.8239 35.4428 11.8195 35.4428 11.8142C35.4428 11.807 35.4417 11.8107 35.4412 11.8028C35.4307 11.8018 35.423 11.7857 35.4152 11.7799L35.416 11.7184H35.4166V11.359H35.6057V11.3588H35.7237C35.7362 11.3588 35.7434 11.343 35.7359 11.3319L35.6552 11.2103C35.6474 11.1985 35.635 11.1917 35.6218 11.1917H35.1189L35.0981 11.1912H35.0341L34.8265 11.1917L33.3917 11.194H33.0264V11.1978H33.023V11.2074C33.023 11.2131 33.081 11.272 33.087 11.2725L33.0851 11.2763L33.0865 11.2748L33.1547 11.3432L33.1563 11.3416L33.1542 11.3453L33.1733 11.3609L33.4573 11.3607L33.4564 11.5599L33.4573 11.6805H33.4521C33.4466 11.6805 33.4209 11.674 33.4122 11.673L33.3703 11.6674C33.3464 11.6634 33.304 11.6613 33.2911 11.6613H33.2668C33.2623 11.6377 33.255 11.6138 33.2449 11.5801C33.2397 11.5629 33.2365 11.5555 33.2308 11.5403L33.2167 11.5038L33.1789 11.434C33.1724 11.4224 33.1648 11.4114 33.1559 11.4019C33.1518 11.3972 33.1481 11.3923 33.1446 11.3871C33.1403 11.3808 33.133 11.3803 33.1352 11.3741L33.1338 11.3758L33.0379 11.2803L33.0363 11.2821L33.0383 11.2784C33.0279 11.277 32.9875 11.2221 32.9742 11.2209L32.9761 11.2172C32.966 11.2114 32.9564 11.2047 32.9472 11.1973C32.9378 11.1897 32.9269 11.1874 32.9162 11.1818C32.9038 11.1752 32.869 11.1674 32.8583 11.1674H32.8393L32.8306 11.1678L32.7892 11.1755C32.7811 11.1808 32.7551 11.1869 32.7433 11.1931C32.7259 11.2022 32.712 11.211 32.6971 11.2224C32.6697 11.2433 32.654 11.278 32.654 11.3242L32.5149 11.1873L32.5018 11.1858L32.4949 11.1862C32.4379 11.1912 32.3831 11.1873 32.3646 11.1873H32.2729C32.239 11.1873 32.2179 11.1866 32.1764 11.1863C32.1222 11.186 32.043 11.1825 31.9962 11.1863L31.9893 11.186H31.9339C31.9249 11.187 31.9301 11.1867 31.9219 11.1901V11.1998C31.9267 11.2075 31.9647 11.2488 31.9722 11.2497L31.9702 11.2533L31.9716 11.2519L32.0401 11.3199L32.0479 11.3287L32.0466 11.3301C32.0619 11.3315 32.0577 11.3533 32.0863 11.3531H32.1469L32.2663 11.3534H32.3287L32.3356 11.3541L32.5502 11.3534H32.578L32.5849 11.3531C32.5966 11.3541 32.6566 11.3484 32.6603 11.354C32.6619 11.3567 32.6697 11.3762 32.6733 11.3835L32.6865 11.4092C32.6973 11.4234 32.7639 11.5012 32.7754 11.5026L32.7733 11.5062L32.7747 11.5047L32.843 11.5731L32.8445 11.5715L32.8426 11.5753C32.8477 11.5759 32.8786 11.6063 32.8837 11.6121C32.8968 11.6268 32.9126 11.635 32.9284 11.6469C32.9535 11.6656 33.0032 11.6858 33.0295 11.6882C33.0053 11.6977 32.9809 11.7063 32.9563 11.7142C32.936 11.7194 32.9007 11.74 32.878 11.7524C32.8379 11.7742 32.7738 11.834 32.7592 11.8755C32.7396 11.9307 32.7544 11.9858 32.771 12.0342C32.7816 12.0651 32.7975 12.091 32.8095 12.1118C32.816 12.1231 32.8534 12.1754 32.8652 12.1765L32.8632 12.1801L32.8647 12.1786L32.933 12.2466L32.9374 12.2513L33.0023 12.3159L33.0037 12.3144L33.0018 12.3182C33.0095 12.3189 33.0227 12.3353 33.0303 12.3402C33.0413 12.3474 33.0514 12.3517 33.0627 12.3581C33.0818 12.3686 33.1086 12.3689 33.1216 12.3689C33.1707 12.3692 33.2084 12.326 33.2324 12.2898C33.2541 12.2572 33.2722 12.2102 33.2797 12.1653C33.2872 12.1203 33.2977 12.0644 33.2977 12.0251V11.8873L33.2943 11.8337L33.2994 11.8333L33.3548 11.8296L33.3722 11.8281L33.4328 11.8285L33.4518 11.8299C33.4581 11.8302 33.4528 11.8303 33.4574 11.8279L33.459 12.1648V12.1877L33.4593 12.1954L33.459 12.2068L33.5216 12.2697L33.523 12.2683L33.5209 12.272L33.5226 12.2703L33.5908 12.3387L33.5922 12.3373L33.5903 12.3411C33.6005 12.3423 33.6042 12.3564 33.611 12.3564H33.6197C33.6217 12.3503 33.6231 12.3523 33.6231 12.3449L33.6222 12.0787L33.6231 11.8528C33.6313 11.8572 33.6698 11.8674 33.6833 11.8709C33.7007 11.8754 33.7395 11.8961 33.7478 11.8968L33.7482 11.9063L33.7478 11.9159L33.7482 11.9216L33.7478 11.9312L33.7482 11.9369L33.7478 11.9465L33.7481 11.9522L33.7494 11.9733V11.981L33.7491 11.9887L33.7498 12.0347L33.7496 12.0424L33.7531 12.1457L33.7564 12.2109L33.7595 12.2533C33.761 12.2693 33.7587 12.2661 33.7671 12.2755C33.7721 12.281 33.7779 12.2904 33.7859 12.2914L33.7839 12.295L33.7854 12.2935L33.8536 12.3619L33.8552 12.3603L33.8532 12.364C33.8654 12.3655 33.9032 12.4176 33.912 12.4176H33.9207V12.4138H33.9242L33.9238 12.3965L33.9228 12.3755L33.9169 12.2511L33.9165 12.23L33.9156 12.1841C33.9155 12.181 33.9138 12.1748 33.9141 12.1745L33.9138 12.1668C33.9148 12.1514 33.9129 12.1184 33.9129 12.1127V12.0764V12.0046V11.9328C33.9129 11.9149 33.9107 11.8824 33.9141 11.8376V11.8299V11.8222L33.9156 11.7992L33.9151 11.7934L33.9161 11.7399L33.9162 11.7246L33.9168 11.6844V11.6691L33.9175 11.627V11.6194L33.9188 11.5983V11.5908L33.9185 11.583L33.9196 11.5218L33.9201 11.5065L33.9197 11.3744L33.9159 11.3762L33.9018 11.361H33.9191L33.9243 11.36L34.1493 11.361C34.1368 11.3818 34.1303 11.4218 34.1303 11.4395V11.4606C34.1303 11.4762 34.1341 11.4982 34.1384 11.5189C34.143 11.541 34.1533 11.5593 34.1587 11.5808C34.1666 11.6003 34.1766 11.6187 34.1886 11.6354C34.1948 11.6422 34.2302 11.6784 34.236 11.6791L34.234 11.6827L34.2355 11.6812L34.3039 11.7494L34.3053 11.748L34.3034 11.7517C34.3134 11.7527 34.3185 11.764 34.3245 11.7705C34.3362 11.783 34.3393 11.7725 34.3466 11.7671C34.3197 11.7052 34.2964 11.6634 34.2964 11.6101C34.2964 11.6069 34.2946 11.6017 34.2946 11.6006C34.2946 11.5822 34.298 11.5453 34.3075 11.5229C34.3144 11.5066 34.3378 11.4623 34.3536 11.4607L34.3517 11.4571C34.3522 11.4569 34.3922 11.435 34.3979 11.4328C34.412 11.4271 34.4267 11.4237 34.4416 11.4227H34.4676C34.478 11.4227 34.4996 11.4225 34.5065 11.439C34.5131 11.4545 34.5189 11.4701 34.5221 11.4853C34.5298 11.5218 34.5372 11.5454 34.5404 11.5835C34.5438 11.6236 34.5435 11.6586 34.5372 11.6931L34.5258 11.7466C34.5258 11.7466 34.5164 11.7737 34.5099 11.7948C34.5008 11.8239 34.4772 11.858 34.4663 11.8795C34.4544 11.9032 34.4203 11.9394 34.4024 11.9592C34.3797 11.9848 34.3549 12.008 34.3283 12.0285L34.2892 12.0561L34.2672 12.0702L34.2445 12.0832C34.2403 12.0769 34.1553 12.0306 34.1392 12.0217C34.1198 12.0109 34.0484 11.9743 34.0264 11.9764L34.0195 11.9761C34.0021 11.9775 33.9988 11.9831 33.9916 11.9953C33.9886 12.0008 33.9829 12.005 33.9797 12.0105L33.9712 12.0262C33.9576 12.05 33.9466 12.073 33.9466 12.0949V12.1084C33.9466 12.1181 33.9601 12.1455 33.9727 12.1467L33.9707 12.1504L33.9721 12.149L34.0404 12.2172L34.042 12.2157L34.04 12.2195C34.0473 12.2203 34.094 12.2706 34.1019 12.2793C34.1182 12.2974 34.1613 12.3046 34.1733 12.3034L34.1802 12.3033L34.1958 12.3018C34.2322 12.2994 34.3339 12.2797 34.3868 12.2509L34.6027 12.3919L34.6008 12.3956C34.6063 12.3961 34.7143 12.469 34.7241 12.4774C34.7446 12.4912 34.7657 12.5038 34.7874 12.5152C34.7975 12.5191 34.8377 12.542 34.8473 12.5479L34.9744 12.618L35.1002 12.6837L35.2328 12.7514L35.3551 12.8114C35.3989 12.8358 35.4508 12.8529 35.4888 12.8739C35.5292 12.8961 35.5741 12.9093 35.6204 12.9333C35.6432 12.9451 35.6625 12.9517 35.6862 12.9621L35.7508 12.988C35.7508 12.988 35.8002 13.0078 35.8178 13.0156C35.8355 13.0233 35.8686 13.0335 35.8858 13.0417C35.9031 13.0498 35.9342 13.0598 35.9571 13.0682L36.0267 13.0927L36.1559 13.1351L36.2204 13.1542L36.2562 13.1646C36.2681 13.1664 36.2864 13.1719 36.2937 13.1745C36.3075 13.1796 36.3517 13.1904 36.3683 13.1928C36.3908 13.1959 36.4087 13.2029 36.4337 13.2075L36.5687 13.2303L36.7038 13.2438H36.8093C36.81 13.2432 36.8916 13.2349 36.9015 13.2335C36.9159 13.2315 36.9324 13.2279 36.9458 13.2244C36.9592 13.2209 36.9794 13.2134 36.9959 13.2108C37.0147 13.2077 37.0639 13.1848 37.0894 13.1707C37.1074 13.1608 37.1189 13.1523 37.1357 13.1414C37.1442 13.1358 37.1723 13.1084 37.1781 13.1077L37.176 13.104L37.1778 13.1057L37.2056 13.0751L37.2039 13.0733C37.2153 13.0719 37.2467 13.0139 37.2518 13.0059C37.2673 12.9813 37.2733 12.9566 37.2862 12.9268C37.2959 12.9046 37.3024 12.8615 37.3071 12.841C37.3119 12.8205 37.3163 12.7607 37.3182 12.7574V12.7383L37.3025 12.7212L37.3037 12.72Z" fill="#2E2E75"/>
<path d="M36.1229 12.2556C36.1157 12.2556 36.1101 12.2534 36.106 12.2489C36.1019 12.2444 36.0991 12.2388 36.0976 12.232C36.0961 12.2253 36.0961 12.2185 36.0976 12.2117C36.0991 12.2048 36.1019 12.1993 36.106 12.1948L36.2858 12.0307C36.3342 11.9856 36.3729 11.945 36.4021 11.9088C36.4312 11.8725 36.4518 11.8388 36.464 11.8072C36.4763 11.7756 36.4823 11.7412 36.4823 11.704C36.4823 11.6808 36.4808 11.6576 36.4777 11.6346C36.4746 11.612 36.4685 11.5924 36.4593 11.5754C36.4501 11.5584 36.4376 11.5446 36.4217 11.5338C36.4059 11.523 36.3853 11.5178 36.3598 11.5178C36.3354 11.5178 36.3144 11.5215 36.297 11.5288C36.2797 11.5361 36.2652 11.545 36.2535 11.5559C36.2417 11.5667 36.2333 11.5779 36.2282 11.5897C36.2237 11.5989 36.2211 11.609 36.2205 11.6193C36.2206 11.6238 36.2208 11.6283 36.2213 11.6328C36.2218 11.6384 36.2233 11.6438 36.2259 11.6488C36.2284 11.6539 36.2328 11.6584 36.2389 11.6623C36.245 11.6662 36.2537 11.6682 36.265 11.6682C36.2823 11.6682 36.2937 11.6738 36.2993 11.6851C36.305 11.6963 36.3078 11.7088 36.3078 11.7223C36.3078 11.7358 36.3019 11.7482 36.2901 11.7595C36.2784 11.7707 36.2623 11.7765 36.242 11.7765C36.2225 11.7765 36.2067 11.7725 36.1946 11.7645C36.183 11.7572 36.1731 11.7471 36.1656 11.7349C36.1584 11.7231 36.1535 11.7099 36.151 11.696C36.1484 11.682 36.1472 11.6688 36.1472 11.6563C36.1472 11.6304 36.1527 11.6049 36.1633 11.5818C36.174 11.5581 36.1895 11.5376 36.2099 11.5201C36.2326 11.5012 36.2583 11.4872 36.2857 11.4785C36.3197 11.4678 36.355 11.4626 36.3904 11.4633C36.4266 11.4627 36.4625 11.4686 36.4969 11.481C36.5279 11.4929 36.5537 11.509 36.5742 11.5293C36.5943 11.5492 36.6102 11.5738 36.6208 11.6012C36.6315 11.6288 36.637 11.6585 36.6369 11.6884C36.6369 11.7324 36.6257 11.7748 36.6032 11.8154C36.5807 11.856 36.5522 11.894 36.5174 11.9297C36.482 11.9659 36.4439 11.9987 36.4035 12.0278L36.2849 12.11C36.2798 12.1122 36.2772 12.1162 36.2772 12.1218C36.2772 12.1263 36.2798 12.1285 36.2849 12.1285H36.5053C36.5169 12.1287 36.5285 12.1273 36.5398 12.1243C36.5494 12.1215 36.5583 12.1164 36.5657 12.1092C36.5749 12.0998 36.5827 12.089 36.5887 12.077C36.5964 12.063 36.6043 12.044 36.6125 12.0203C36.6145 12.0158 36.6181 12.0121 36.6232 12.0093C36.6283 12.0065 36.6335 12.0054 36.6386 12.0059C36.6436 12.0064 36.6484 12.0085 36.6524 12.0118C36.6565 12.0152 36.6585 12.0197 36.6585 12.0253L36.634 12.1363C36.6255 12.1753 36.6218 12.2155 36.6232 12.2556H36.1229ZM37.3349 11.8699C37.3349 11.8275 37.3314 11.7853 37.3242 11.7438C37.317 11.7026 37.3055 11.6658 37.2898 11.6338C37.2741 11.6018 37.2537 11.5757 37.2286 11.556C37.2036 11.5363 37.1728 11.5264 37.136 11.5264C37.0962 11.5264 37.0625 11.5362 37.035 11.556C37.0074 11.576 36.9846 11.6029 36.9685 11.6346C36.9516 11.6672 36.9393 11.7043 36.9317 11.7456C36.9239 11.7876 36.9201 11.8305 36.9202 11.8734C36.9203 11.9132 36.9239 11.9529 36.9309 11.9919C36.9374 12.0303 36.9493 12.0674 36.9662 12.1019C36.9824 12.1346 37.0039 12.1617 37.0304 12.1832C37.057 12.2046 37.0896 12.2153 37.1284 12.2153C37.1673 12.2153 37.1999 12.2052 37.2263 12.1848C37.2528 12.1645 37.274 12.1381 37.2898 12.1054C37.3057 12.0726 37.317 12.0357 37.3242 11.9944C37.3313 11.9531 37.3349 11.9117 37.3349 11.8699ZM37.4895 11.8512C37.4895 11.92 37.4801 11.9809 37.4611 12.034C37.444 12.0841 37.4174 12.1297 37.3831 12.1677C37.3499 12.2038 37.3101 12.2312 37.2637 12.2499C37.2174 12.2685 37.1665 12.2778 37.1114 12.2778C37.0635 12.2778 37.0187 12.2691 36.9768 12.2516C36.9349 12.234 36.8982 12.2082 36.8666 12.1738C36.8351 12.1393 36.8103 12.096 36.7924 12.0434C36.7745 11.9909 36.7656 11.9293 36.7656 11.8581C36.7656 11.8005 36.7748 11.7475 36.7932 11.699C36.8105 11.6521 36.8366 11.6097 36.8697 11.5745C36.9024 11.5401 36.9409 11.513 36.9852 11.4932C37.0317 11.473 37.0814 11.463 37.1314 11.4636C37.1793 11.4632 37.227 11.4721 37.2722 11.4899C37.3144 11.5063 37.3531 11.5319 37.3861 11.5651C37.419 11.599 37.4448 11.6403 37.4619 11.6862C37.4803 11.7342 37.4895 11.7891 37.4895 11.8512ZM37.5934 12.2556C37.5862 12.2556 37.5806 12.2534 37.5765 12.2489C37.5724 12.2444 37.5696 12.2388 37.5681 12.232C37.5666 12.2253 37.5666 12.2185 37.5681 12.2117C37.5696 12.2048 37.5724 12.1993 37.5765 12.1948L37.7563 12.0307C37.8047 11.9856 37.8434 11.945 37.8726 11.9088C37.9017 11.8725 37.9223 11.8388 37.9345 11.8072C37.9468 11.7756 37.9529 11.7412 37.9529 11.704C37.953 11.6808 37.9514 11.6576 37.9483 11.6346C37.9453 11.612 37.9391 11.5924 37.9301 11.5754C37.9208 11.5584 37.9079 11.5441 37.8925 11.5338C37.8767 11.5231 37.8561 11.5178 37.8305 11.5178C37.806 11.5178 37.7852 11.5215 37.7678 11.5288C37.7504 11.5361 37.736 11.545 37.7242 11.5559C37.7125 11.5667 37.704 11.5779 37.6989 11.5897C37.6945 11.5989 37.6919 11.609 37.6913 11.6193C37.6913 11.6238 37.6916 11.6283 37.692 11.6328C37.6925 11.6384 37.6941 11.6438 37.6966 11.6488C37.6992 11.6539 37.7035 11.6584 37.7097 11.6623C37.7158 11.6662 37.7245 11.6682 37.7357 11.6682C37.7531 11.6682 37.7645 11.6738 37.7701 11.6851C37.7757 11.6963 37.7785 11.7088 37.7785 11.7223C37.7785 11.7358 37.7727 11.7482 37.7609 11.7595C37.7491 11.7707 37.733 11.7765 37.7127 11.7765C37.6933 11.7765 37.6775 11.7725 37.6653 11.7645C37.6537 11.7573 37.6437 11.7471 37.6362 11.7349C37.629 11.7231 37.6242 11.7101 37.6216 11.696C37.6191 11.682 37.6178 11.6688 37.6178 11.6563C37.6178 11.6304 37.6233 11.6049 37.6339 11.5818C37.6446 11.5581 37.6601 11.5376 37.6805 11.5201C37.7033 11.5012 37.729 11.4872 37.7563 11.4785C37.7903 11.4678 37.8257 11.4626 37.8611 11.4633C37.8972 11.4627 37.9332 11.4686 37.9675 11.481C37.9986 11.4929 38.0244 11.509 38.0448 11.5293C38.0649 11.5492 38.0809 11.5738 38.0914 11.6012C38.1021 11.6288 38.1076 11.6585 38.1075 11.6884C38.1075 11.7324 38.0963 11.7748 38.0739 11.8154C38.0516 11.856 38.023 11.894 37.9882 11.9297C37.9528 11.9659 37.9147 11.9987 37.8742 12.0278L37.7557 12.11C37.7505 12.1122 37.748 12.1162 37.748 12.1218C37.748 12.1263 37.7505 12.1285 37.7557 12.1285H37.9761C37.9877 12.1287 37.9993 12.1273 38.0106 12.1243C38.0202 12.1215 38.029 12.1164 38.0365 12.1092C38.0457 12.0998 38.0534 12.089 38.0595 12.077C38.0689 12.0589 38.0768 12.0399 38.0833 12.0203C38.0853 12.0158 38.0889 12.0121 38.094 12.0093C38.0991 12.0065 38.1042 12.0054 38.1093 12.0059C38.1143 12.0064 38.1191 12.0085 38.1231 12.0118C38.1272 12.0152 38.1293 12.0197 38.1293 12.0253L38.1047 12.1363C38.0962 12.1753 38.0926 12.2155 38.094 12.2556H37.5936H37.5934ZM38.5131 11.9763C38.5498 11.9763 38.5845 11.983 38.6171 11.9967C38.6497 12.0103 38.6785 12.0288 38.7036 12.0526C38.7282 12.0758 38.7483 12.1043 38.7625 12.1364C38.777 12.1694 38.7843 12.2055 38.784 12.2421C38.784 12.3087 38.7719 12.3638 38.7481 12.4071C38.7242 12.4505 38.694 12.4855 38.6577 12.512C38.6218 12.5384 38.5819 12.5573 38.5399 12.5679C38.4976 12.5788 38.4575 12.5841 38.4198 12.5841C38.3944 12.584 38.3691 12.5818 38.344 12.5773C38.3201 12.5734 38.2967 12.5663 38.2744 12.5561C38.2553 12.5475 38.2381 12.5346 38.2239 12.5181C38.2107 12.5024 38.204 12.4826 38.204 12.459C38.204 12.4341 38.2107 12.415 38.2239 12.4014C38.2372 12.3878 38.2541 12.381 38.2744 12.381C38.288 12.3811 38.3013 12.3855 38.3127 12.3937C38.325 12.4021 38.3311 12.4153 38.3311 12.4334C38.3311 12.4435 38.3291 12.4517 38.325 12.458C38.3209 12.4643 38.3189 12.4723 38.3189 12.4826C38.3189 12.4893 38.3227 12.4955 38.3304 12.5011C38.338 12.5067 38.3477 12.5115 38.3594 12.5154C38.371 12.5194 38.3834 12.5224 38.3962 12.5247C38.4089 12.5269 38.4208 12.5281 38.4321 12.5281C38.4974 12.5281 38.5466 12.5043 38.5798 12.457C38.613 12.4097 38.6295 12.3424 38.6295 12.2556C38.6295 12.1868 38.6101 12.132 38.5713 12.0915C38.5326 12.0509 38.4658 12.0277 38.3709 12.0221C38.3576 12.021 38.3512 12.0145 38.3517 12.0027C38.3522 11.9909 38.3571 11.9828 38.3663 11.9781C38.4377 11.9499 38.49 11.9141 38.5232 11.8707C38.5564 11.8273 38.5729 11.7717 38.5729 11.704C38.5729 11.6808 38.5714 11.6576 38.5683 11.6346C38.5652 11.612 38.5591 11.5924 38.5499 11.5754C38.5407 11.5584 38.5278 11.5442 38.5124 11.534C38.4966 11.5233 38.4759 11.5178 38.4505 11.5178C38.4259 11.5178 38.4049 11.5217 38.387 11.5297C38.3691 11.5377 38.3545 11.547 38.3433 11.5577C38.332 11.5684 38.3236 11.5797 38.3181 11.5915C38.3126 11.6033 38.3097 11.6133 38.3097 11.6212C38.3097 11.6257 38.31 11.6302 38.3104 11.6346C38.3109 11.6403 38.3125 11.6457 38.315 11.6507C38.3176 11.6557 38.3219 11.6599 38.3281 11.6633C38.3342 11.6667 38.3429 11.6683 38.3541 11.6683C38.3715 11.6683 38.3833 11.674 38.3893 11.6852C38.3954 11.6964 38.3986 11.7093 38.3985 11.7224C38.3985 11.736 38.3926 11.7484 38.3808 11.7596C38.3691 11.7709 38.353 11.7765 38.3327 11.7765C38.3132 11.7765 38.2974 11.7725 38.2853 11.7647C38.2736 11.7574 38.2636 11.7473 38.2561 11.735C38.249 11.7233 38.244 11.71 38.2416 11.6961C38.2391 11.6831 38.2378 11.6698 38.2377 11.6564C38.2377 11.6306 38.2432 11.6051 38.2538 11.582C38.2646 11.5584 38.28 11.5377 38.3005 11.5202C38.3232 11.5014 38.3489 11.4873 38.3762 11.4788C38.4064 11.4687 38.4413 11.4636 38.481 11.4636C38.5207 11.4636 38.5563 11.4695 38.5874 11.4813C38.6159 11.4915 38.6422 11.5079 38.6647 11.5296C38.6849 11.5495 38.7008 11.5741 38.7114 11.6015C38.7221 11.6291 38.7276 11.6587 38.7275 11.6887C38.7279 11.7238 38.7211 11.7585 38.7075 11.7902C38.6943 11.8207 38.6774 11.8478 38.6571 11.8715C38.6368 11.8953 38.6138 11.9149 38.5882 11.9308C38.5627 11.9467 38.5372 11.9585 38.5117 11.9663C38.5096 11.9675 38.5086 11.9697 38.5086 11.9732C38.5086 11.9755 38.5101 11.9766 38.5132 11.9766L38.5131 11.9763Z" fill="#2E2E75"/>
</g>
<path d="M27.5299 5.94996C27.5299 7.97075 29.0164 9.61477 30.8435 9.61477C31.6752 9.61537 32.4762 9.27005 33.0857 8.64819C33.694 8.03038 34.0711 7.18576 34.1436 6.27899L34.1898 5.70379H30.7574V6.57207H33.3088C33.1943 7.12346 32.9314 7.62419 32.5543 8.00909C32.0893 8.48362 31.4781 8.74711 30.8435 8.74663C29.4493 8.74663 28.3151 7.49217 28.3151 5.9501C28.3151 4.40804 29.4494 3.15358 30.8435 3.15358C31.2916 3.15358 31.7315 3.28474 32.116 3.53302C32.3028 3.65365 32.4758 3.80138 32.6302 3.972L32.7684 4.12465L33.3233 3.51041L33.1852 3.35776C32.9833 3.13462 32.7566 2.94139 32.5117 2.78312C32.0058 2.45691 31.4299 2.28501 30.8434 2.28516C29.0163 2.28516 27.5298 3.92917 27.5298 5.94996H27.5299Z" fill="url(#paint21_linear_380_3312)"/>
<path d="M34.8414 2.76112C34.6017 2.93554 34.3924 3.17371 34.236 3.44993L34.1903 3.53054L34.7724 4.17497L34.8392 4.02584C34.9368 3.80845 35.0903 3.61606 35.2716 3.4842C35.4193 3.37669 35.5862 3.30518 35.7611 3.27449C35.936 3.2438 36.1149 3.25464 36.2857 3.30627C36.7176 3.43701 37.0629 3.8451 37.1655 4.34574C37.2031 4.52956 37.2815 4.91195 36.6143 5.79315L35.7456 6.90732L35.7399 6.91462L35.0962 7.7346L33.7424 9.48646H37.9707V8.62085H35.4409L35.6911 8.29716L36.3289 7.48463L36.3349 7.47705L37.2142 6.34911C37.5663 5.88401 37.7893 5.47086 37.8957 5.08566C38.0109 4.66971 37.9696 4.35514 37.9286 4.15475C37.763 3.34629 37.1993 2.68557 36.492 2.4717C36.3176 2.41895 36.1374 2.39222 35.9564 2.39221C35.5637 2.39221 35.1752 2.51818 34.841 2.7614L34.8414 2.76112Z" fill="url(#paint22_linear_380_3312)"/>
<path d="M40.418 9.33507C41.3132 10.0438 42.2927 9.62843 42.2927 9.62843C42.2927 9.62843 41.2262 9.40472 41.1165 8.38211C41.0932 8.16276 41.1157 7.92445 41.1654 7.68558C40.2271 7.25783 39.0513 7.06165 39.0513 7.06165C39.0513 7.06165 39.523 8.62618 40.418 9.33507Z" fill="url(#paint23_linear_380_3312)"/>
<path d="M41.2637 8.30051C41.2637 9.28802 42.2242 9.60413 42.2973 9.62674C42.3705 9.60413 43.331 9.28802 43.331 8.30051C43.331 7.31427 42.3728 6.01754 42.2973 5.91699C42.2219 6.01754 41.2637 7.31427 41.2637 8.30051Z" fill="url(#paint24_linear_380_3312)"/>
<path d="M40.4336 7.25565L41.1993 7.53862C41.2619 7.29048 41.3496 7.04557 41.4421 6.82439C40.9599 6.45632 40.5295 6.21057 40.5295 6.21057C40.5295 6.21057 40.4392 6.67764 40.4336 7.25565Z" fill="url(#paint25_linear_380_3312)"/>
<path d="M38.1002 8.326L38.0955 8.32684C38.4818 8.62245 40.5061 11.0517 42.2974 9.63073L42.2926 9.62849C42.2926 9.62849 41.3605 10.1134 40.3942 9.47219C40.1574 9.31519 39.9406 9.1051 39.7482 8.87747C39.4397 8.51263 38.9418 8.29932 38.419 8.29932C38.3122 8.29929 38.2057 8.30821 38.1002 8.326Z" fill="url(#paint26_linear_380_3312)"/>
<path d="M43.4297 7.68558C43.4794 7.92459 43.5019 8.16276 43.4784 8.38211C43.3689 9.40472 42.3022 9.62843 42.3022 9.62843C42.3022 9.62843 43.2819 10.0438 44.177 9.33507C45.0722 8.62632 45.5438 7.06165 45.5438 7.06165C45.5438 7.06165 44.3679 7.25797 43.4297 7.68558Z" fill="url(#paint27_linear_380_3312)"/>
<path d="M43.1531 6.82451C43.2455 7.04569 43.3332 7.2906 43.3958 7.53874C43.6452 7.42864 43.909 7.33456 44.1614 7.25577C44.1558 6.67762 44.0655 6.21069 44.0655 6.21069C44.0655 6.21069 43.6353 6.45645 43.1531 6.82451Z" fill="url(#paint28_linear_380_3312)"/>
<path d="M44.847 8.87759C44.6545 9.10523 44.4376 9.31531 44.2009 9.47231C43.2345 10.1135 42.3025 9.62861 42.3025 9.62861L42.2976 9.63086C44.0889 11.0519 46.1132 8.62243 46.4997 8.32696C46.4997 8.32696 46.4982 8.32668 46.495 8.32612C46.3895 8.30833 46.2828 8.29941 46.1761 8.29944C45.6532 8.29944 45.1553 8.51275 44.847 8.87759Z" fill="url(#paint29_linear_380_3312)"/>
</g>
<defs>
<radialGradient id="paint0_radial_380_3312" cx="0" cy="0" r="1" gradientUnits="userSpaceOnUse" gradientTransform="translate(472.112 179.361) rotate(5.30098) scale(2.89254 1.72858)">
<stop stop-color="#C0DBF1"/>
<stop offset="0.579" stop-color="#2093CD"/>
<stop offset="0.665" stop-color="#2093CD"/>
<stop offset="0.922" stop-color="#0473B7"/>
</radialGradient>
<radialGradient id="paint1_radial_380_3312" cx="0" cy="0" r="1" gradientUnits="userSpaceOnUse" gradientTransform="translate(473.54 177.263) rotate(5.30102) scale(3.5031 1.74998)">
<stop stop-color="#C0DBF1"/>
<stop offset="0.579" stop-color="#2093CD"/>
<stop offset="0.665" stop-color="#2093CD"/>
<stop offset="0.922" stop-color="#0473B7"/>
</radialGradient>
<radialGradient id="paint2_radial_380_3312" cx="0" cy="0" r="1" gradientUnits="userSpaceOnUse" gradientTransform="translate(469.052 178.124) rotate(5.30104) scale(3.77721 2.57732)">
<stop stop-color="#C0DBF1"/>
<stop offset="0.579" stop-color="#2093CD"/>
<stop offset="0.665" stop-color="#2093CD"/>
<stop offset="0.922" stop-color="#0473B7"/>
</radialGradient>
<radialGradient id="paint3_radial_380_3312" cx="0" cy="0" r="1" gradientUnits="userSpaceOnUse" gradientTransform="translate(473.256 164.55) rotate(5.301) scale(6.3506 9.71322)">
<stop stop-color="#C0DBF1"/>
<stop offset="0.579" stop-color="#2093CD"/>
<stop offset="0.665" stop-color="#2093CD"/>
<stop offset="0.922" stop-color="#0473B7"/>
</radialGradient>
<radialGradient id="paint4_radial_380_3312" cx="0" cy="0" r="1" gradientUnits="userSpaceOnUse" gradientTransform="translate(474.05 131.071) rotate(5.301) scale(6.70135 11.7049)">
<stop stop-color="#C0DBF1"/>
<stop offset="0.579" stop-color="#2093CD"/>
<stop offset="0.665" stop-color="#2093CD"/>
<stop offset="0.922" stop-color="#0473B7"/>
</radialGradient>
<radialGradient id="paint5_radial_380_3312" cx="0" cy="0" r="1" gradientUnits="userSpaceOnUse" gradientTransform="translate(370.341 137.579) rotate(5.30103) scale(1.90306 1.57195)">
<stop stop-color="#C0DBF1"/>
<stop offset="0.579" stop-color="#2093CD"/>
<stop offset="0.665" stop-color="#2093CD"/>
<stop offset="0.922" stop-color="#0473B7"/>
</radialGradient>
<radialGradient id="paint6_radial_380_3312" cx="0" cy="0" r="1" gradientUnits="userSpaceOnUse" gradientTransform="translate(396.608 221.376) rotate(5.30105) scale(1.6965 1.22581)">
<stop stop-color="#C0DBF1"/>
<stop offset="0.579" stop-color="#2093CD"/>
<stop offset="0.665" stop-color="#2093CD"/>
<stop offset="0.922" stop-color="#0473B7"/>
</radialGradient>
<radialGradient id="paint7_radial_380_3312" cx="0" cy="0" r="1" gradientUnits="userSpaceOnUse" gradientTransform="translate(410.169 152.137) rotate(5.30099) scale(4.51042 7.45306)">
<stop stop-color="#C0DBF1"/>
<stop offset="0.579" stop-color="#2093CD"/>
<stop offset="0.665" stop-color="#2093CD"/>
<stop offset="0.922" stop-color="#0473B7"/>
</radialGradient>
<radialGradient id="paint8_radial_380_3312" cx="0" cy="0" r="1" gradientUnits="userSpaceOnUse" gradientTransform="translate(358.063 176.476) rotate(5.30101) scale(8.30091 16.7452)">
<stop stop-color="#C0DBF1"/>
<stop offset="0.579" stop-color="#2093CD"/>
<stop offset="0.665" stop-color="#2093CD"/>
<stop offset="0.922" stop-color="#0473B7"/>
</radialGradient>
<radialGradient id="paint9_radial_380_3312" cx="0" cy="0" r="1" gradientUnits="userSpaceOnUse" gradientTransform="translate(439.104 167.805) rotate(5.30104) scale(1.8868 1.64883)">
<stop stop-color="#C0DBF1"/>
<stop offset="0.579" stop-color="#2093CD"/>
<stop offset="0.665" stop-color="#2093CD"/>
<stop offset="0.922" stop-color="#0473B7"/>
</radialGradient>
<radialGradient id="paint10_radial_380_3312" cx="0" cy="0" r="1" gradientUnits="userSpaceOnUse" gradientTransform="translate(455.742 172.63) rotate(5.30103) scale(1.73773 1.7239)">
<stop stop-color="#C0DBF1"/>
<stop offset="0.579" stop-color="#2093CD"/>
<stop offset="0.665" stop-color="#2093CD"/>
<stop offset="0.922" stop-color="#0473B7"/>
</radialGradient>
<radialGradient id="paint11_radial_380_3312" cx="0" cy="0" r="1" gradientUnits="userSpaceOnUse" gradientTransform="translate(472.38 118.616) rotate(5.30101) scale(2.51664 6.24547)">
<stop stop-color="#C0DBF1"/>
<stop offset="0.579" stop-color="#2093CD"/>
<stop offset="0.665" stop-color="#2093CD"/>
<stop offset="0.922" stop-color="#0473B7"/>
</radialGradient>
<radialGradient id="paint12_radial_380_3312" cx="0" cy="0" r="1" gradientUnits="userSpaceOnUse" gradientTransform="translate(459.016 152.779) rotate(5.301) scale(15.5514 20.4547)">
<stop stop-color="#C0DBF1"/>
<stop offset="0.579" stop-color="#2093CD"/>
<stop offset="0.665" stop-color="#2093CD"/>
<stop offset="0.922" stop-color="#0473B7"/>
</radialGradient>
<radialGradient id="paint13_radial_380_3312" cx="0" cy="0" r="1" gradientUnits="userSpaceOnUse" gradientTransform="translate(303.733 13.5246) rotate(-2.89991) scale(137.349 152.792)">
<stop stop-color="#C0DBF1"/>
<stop offset="0.579" stop-color="#2093CD"/>
<stop offset="0.665" stop-color="#2093CD"/>
<stop offset="0.922" stop-color="#0473B7"/>
</radialGradient>
<radialGradient id="paint14_radial_380_3312" cx="0" cy="0" r="1" gradientUnits="userSpaceOnUse" gradientTransform="translate(434.105 146.04) rotate(5.30096) scale(0.275624 0.407208)">
<stop stop-color="#C0DBF1"/>
<stop offset="0.579" stop-color="#22AADD"/>
<stop offset="0.665" stop-color="#22AADD"/>
<stop offset="0.922" stop-color="#0473B7"/>
</radialGradient>
<radialGradient id="paint15_radial_380_3312" cx="0" cy="0" r="1" gradientUnits="userSpaceOnUse" gradientTransform="translate(432.173 146.669) rotate(5.30104) scale(0.856573 3.78731)">
<stop stop-color="#C0DBF1"/>
<stop offset="0.579" stop-color="#22AADD"/>
<stop offset="0.665" stop-color="#22AADD"/>
<stop offset="0.922" stop-color="#0473B7"/>
</radialGradient>
<radialGradient id="paint16_radial_380_3312" cx="0" cy="0" r="1" gradientUnits="userSpaceOnUse" gradientTransform="translate(432.397 151.234) rotate(5.30107) scale(0.477103 0.949134)">
<stop stop-color="#C0DBF1"/>
<stop offset="0.579" stop-color="#22AADD"/>
<stop offset="0.665" stop-color="#22AADD"/>
<stop offset="0.922" stop-color="#0473B7"/>
</radialGradient>
<radialGradient id="paint17_radial_380_3312" cx="0" cy="0" r="1" gradientUnits="userSpaceOnUse" gradientTransform="translate(432.82 153.681) rotate(5.3011) scale(0.267656 0.421844)">
<stop stop-color="#C0DBF1"/>
<stop offset="0.579" stop-color="#22AADD"/>
<stop offset="0.665" stop-color="#22AADD"/>
<stop offset="0.922" stop-color="#0473B7"/>
</radialGradient>
<radialGradient id="paint18_radial_380_3312" cx="0" cy="0" r="1" gradientUnits="userSpaceOnUse" gradientTransform="translate(432.211 154.739) rotate(5.3009) scale(0.826749 1.2724)">
<stop stop-color="#C0DBF1"/>
<stop offset="0.579" stop-color="#22AADD"/>
<stop offset="0.665" stop-color="#22AADD"/>
<stop offset="0.922" stop-color="#0473B7"/>
</radialGradient>
<radialGradient id="paint19_radial_380_3312" cx="0" cy="0" r="1" gradientUnits="userSpaceOnUse" gradientTransform="translate(432.854 156.623) rotate(5.30106) scale(0.805208 1.19247)">
<stop stop-color="#C0DBF1"/>
<stop offset="0.579" stop-color="#22AADD"/>
<stop offset="0.665" stop-color="#22AADD"/>
<stop offset="0.922" stop-color="#0473B7"/>
</radialGradient>
<radialGradient id="paint20_radial_380_3312" cx="0" cy="0" r="1" gradientUnits="userSpaceOnUse" gradientTransform="translate(398.894 151.918) rotate(5.30134) scale(0.490858 1.3024)">
<stop stop-color="#C0DBF1"/>
<stop offset="0.579" stop-color="#22AADD"/>
<stop offset="0.665" stop-color="#22AADD"/>
<stop offset="0.922" stop-color="#0473B7"/>
</radialGradient>
<linearGradient id="paint21_linear_380_3312" x1="261.19" y1="236.686" x2="265.263" y2="490.375" gradientUnits="userSpaceOnUse">
<stop stop-color="#F68E2B"/>
<stop offset="0.232" stop-color="#F68E2B"/>
<stop offset="0.866" stop-color="#0F8141"/>
</linearGradient>
<linearGradient id="paint22_linear_380_3312" x1="346.912" y1="225.237" x2="352.921" y2="470.702" gradientUnits="userSpaceOnUse">
<stop stop-color="#F68E2B"/>
<stop offset="0.232" stop-color="#F68E2B"/>
<stop offset="0.866" stop-color="#0F8141"/>
</linearGradient>
<linearGradient id="paint23_linear_380_3312" x1="401.865" y1="92.3438" x2="401.865" y2="205.046" gradientUnits="userSpaceOnUse">
<stop stop-color="#F68E2B"/>
<stop offset="0.232" stop-color="#F68E2B"/>
<stop offset="0.866" stop-color="#0F8141"/>
</linearGradient>
<linearGradient id="paint24_linear_380_3312" x1="298.961" y1="123.627" x2="298.961" y2="279.184" gradientUnits="userSpaceOnUse">
<stop stop-color="#F68E2B"/>
<stop offset="0.232" stop-color="#F68E2B"/>
<stop offset="0.866" stop-color="#0F8141"/>
</linearGradient>
<linearGradient id="paint25_linear_380_3312" x1="155.414" y1="48.3508" x2="155.414" y2="104.039" gradientUnits="userSpaceOnUse">
<stop stop-color="#F68E2B"/>
<stop offset="0.232" stop-color="#F68E2B"/>
<stop offset="0.866" stop-color="#0F8141"/>
</linearGradient>
<linearGradient id="paint26_linear_380_3312" x1="492.792" y1="64.5907" x2="492.792" y2="138.979" gradientUnits="userSpaceOnUse">
<stop stop-color="#F68E2B"/>
<stop offset="0.232" stop-color="#F68E2B"/>
<stop offset="0.866" stop-color="#0F8141"/>
</linearGradient>
<linearGradient id="paint27_linear_380_3312" x1="487.611" y1="92.3438" x2="487.611" y2="205.046" gradientUnits="userSpaceOnUse">
<stop stop-color="#F68E2B"/>
<stop offset="0.232" stop-color="#F68E2B"/>
<stop offset="0.866" stop-color="#0F8141"/>
</linearGradient>
<linearGradient id="paint28_linear_380_3312" x1="179.58" y1="48.351" x2="179.58" y2="104.039" gradientUnits="userSpaceOnUse">
<stop stop-color="#F68E2B"/>
<stop offset="0.232" stop-color="#F68E2B"/>
<stop offset="0.866" stop-color="#0F8141"/>
</linearGradient>
<linearGradient id="paint29_linear_380_3312" x1="635.211" y1="64.5921" x2="635.211" y2="138.98" gradientUnits="userSpaceOnUse">
<stop stop-color="#F68E2B"/>
<stop offset="0.232" stop-color="#F68E2B"/>
<stop offset="0.866" stop-color="#0F8141"/>
</linearGradient>
</defs>
</svg>
