<svg width="91" height="28" viewBox="0 0 91 28" fill="none" xmlns="http://www.w3.org/2000/svg">
<g clip-path="url(#clip0_380_3080)">
<path d="M0.655029 3.52233C0.655029 1.84991 2.0108 0.494141 3.68322 0.494141H87.5639C89.2367 0.494141 90.5922 1.84991 90.5922 3.52233V24.114C90.5922 25.7864 89.2367 27.1422 87.5639 27.1422H3.68321C2.01079 27.1422 0.655029 25.7864 0.655029 24.114V3.52233Z" fill="black"/>
<path d="M46.0473 14.9849C44.4804 14.9849 43.2033 16.1768 43.2033 17.8183C43.2033 19.4498 44.4804 20.6516 46.0473 20.6516C47.6149 20.6516 48.892 19.4498 48.892 17.8183C48.8913 16.1768 47.6142 14.9849 46.0473 14.9849ZM46.0473 19.5364C45.1886 19.5364 44.4484 18.8282 44.4484 17.8189C44.4484 16.799 45.1893 16.1014 46.0473 16.1014C46.9061 16.1014 47.6462 16.799 47.6462 17.8189C47.6462 18.8275 46.9061 19.5364 46.0473 19.5364ZM39.8423 14.9849C38.2754 14.9849 36.9983 16.1768 36.9983 17.8183C36.9983 19.4498 38.2754 20.6516 39.8423 20.6516C41.4099 20.6516 42.687 19.4498 42.687 17.8183C42.687 16.1768 41.4099 14.9849 39.8423 14.9849ZM39.8423 19.5364C38.9836 19.5364 38.2434 18.8282 38.2434 17.8189C38.2434 16.799 38.9842 16.1014 39.8423 16.1014C40.7011 16.1014 41.4412 16.799 41.4412 17.8189C41.4419 18.8275 40.7011 19.5364 39.8423 19.5364ZM32.4622 15.855V17.0568H35.3388C35.2529 17.733 35.0277 18.2266 34.684 18.5697C34.2656 18.9881 33.6107 19.4498 32.4622 19.4498C30.6914 19.4498 29.307 18.0221 29.307 16.2514C29.307 14.4806 30.6914 13.0529 32.4622 13.0529C33.4175 13.0529 34.115 13.4286 34.63 13.9117L35.4781 13.0636C34.7586 12.3767 33.8039 11.8511 32.4622 11.8511C30.0365 11.8511 27.9973 13.8257 27.9973 16.2514C27.9973 18.677 30.0365 20.6516 32.4622 20.6516C33.7712 20.6516 34.7592 20.2219 35.5314 19.4172C36.3255 18.623 36.5726 17.5065 36.5726 16.6051C36.5726 16.3266 36.5513 16.0688 36.508 15.8543H32.4622V15.855ZM62.6465 16.7883C62.4106 16.1554 61.6911 14.9849 60.221 14.9849C58.7614 14.9849 57.5481 16.1334 57.5481 17.8183C57.5481 19.4065 58.7503 20.6516 60.3602 20.6516C61.6585 20.6516 62.4101 19.8575 62.7219 19.3958L61.7555 18.7516C61.4337 19.2239 60.9938 19.5351 60.3602 19.5351C59.7272 19.5351 59.2762 19.2453 58.9861 18.6763L62.7752 17.1094L62.6465 16.7883ZM58.7825 17.733C58.7503 16.6378 59.6307 16.0801 60.2642 16.0801C60.758 16.0801 61.1763 16.3273 61.3161 16.6811L58.7825 17.733ZM55.7024 20.4804H56.9473V12.1522H55.7024V20.4804ZM53.6625 15.6185H53.6198C53.3408 15.2854 52.8038 14.9849 52.1285 14.9849C50.7114 14.9849 49.413 16.2301 49.413 17.8296C49.413 19.4178 50.7114 20.6523 52.1285 20.6523C52.8048 20.6523 53.3408 20.3518 53.6198 20.0087H53.6625V20.4165C53.6625 21.5003 53.0833 22.08 52.1496 22.08C51.3874 22.08 50.9153 21.533 50.7221 21.0713L49.6381 21.5224C49.9493 22.2731 50.7753 23.1965 52.1496 23.1965C53.6092 23.1965 54.8436 22.3378 54.8436 20.2446V15.1574H53.6635V15.6185H53.6625ZM52.2356 19.5364C51.3768 19.5364 50.6581 18.8169 50.6581 17.8296C50.6581 16.8309 51.3768 16.1014 52.2356 16.1014C53.0833 16.1014 53.7485 16.8309 53.7485 17.8296C53.7485 18.8169 53.0833 19.5364 52.2356 19.5364ZM68.4784 12.1522H65.4998V20.4804H66.7422V17.3253H68.4778C69.8555 17.3253 71.2105 16.3279 71.2105 14.7391C71.2105 13.1502 69.856 12.1522 68.4784 12.1522ZM68.5105 16.1661H66.7422V13.3114H68.5105C69.4397 13.3114 69.9671 14.0809 69.9671 14.7391C69.9671 15.384 69.4397 16.1661 68.5105 16.1661ZM76.1927 14.9703C75.2927 14.9703 74.361 15.3667 73.9754 16.2453L75.0785 16.7057C75.3143 16.2453 75.7538 16.0948 76.2143 16.0948C76.8569 16.0948 77.5105 16.4805 77.5211 17.1661V17.252C77.2963 17.1234 76.8137 16.9309 76.2249 16.9309C75.0358 16.9309 73.8246 17.5844 73.8246 18.8056C73.8246 19.9201 74.8 20.6376 75.8925 20.6376C76.7277 20.6376 77.1887 20.2626 77.4779 19.8229H77.5206V20.4657H78.7213V17.2726C78.7218 15.795 77.6171 14.9703 76.1927 14.9703ZM76.0424 19.5344C75.6361 19.5344 75.068 19.3305 75.068 18.8269C75.068 18.184 75.7754 17.9375 76.3863 17.9375C76.9318 17.9375 77.1898 18.0554 77.5211 18.216C77.4246 18.9881 76.7604 19.5344 76.0424 19.5344ZM83.0925 15.1521L81.6676 18.7629H81.6249L80.1462 15.1521H78.8072L81.0251 20.1986L79.7605 23.0059H81.0567L84.4752 15.1521H83.0925ZM71.8968 20.4804H73.1392V12.1522H71.8968V20.4804Z" fill="white"/>
<path d="M32.245 7.31795C32.245 7.8762 32.0798 8.32057 31.7487 8.65237C31.373 9.04676 30.8826 9.24395 30.2804 9.24395C29.7034 9.24395 29.2125 9.04409 28.8094 8.64437C28.4057 8.24395 28.2039 7.74829 28.2039 7.15671C28.2039 6.56447 28.4057 6.06881 28.8094 5.66909C29.2125 5.26871 29.7034 5.06885 30.2804 5.06885C30.5668 5.06885 30.8407 5.12481 31.1005 5.23606C31.3609 5.34798 31.5695 5.49655 31.7254 5.68242L31.3743 6.03417C31.1098 5.71771 30.7454 5.55984 30.2797 5.55984C29.8587 5.55984 29.4949 5.70776 29.1878 6.00355C28.8807 6.29934 28.7275 6.68373 28.7275 7.15605C28.7275 7.62838 28.8807 8.01281 29.1878 8.30861C29.4949 8.6044 29.8587 8.75227 30.2797 8.75227C30.7261 8.75227 31.0985 8.6037 31.3963 8.30594C31.5895 8.11206 31.7014 7.84227 31.7314 7.4965H30.2797V7.01618H32.2163C32.2364 7.12076 32.245 7.22137 32.245 7.31795Z" fill="white"/>
<path d="M35.3163 5.64846H33.4962V6.9156H35.1377V7.39592H33.4962V8.66301H35.3163V9.15469H32.9825V5.15747H35.3163V5.64846Z" fill="white"/>
<path d="M37.4819 9.15469H36.9683V5.64846H35.8517V5.15747H38.5985V5.64846H37.4819V9.15469Z" fill="white"/>
<path d="M40.5858 9.15469V5.15747H41.0994V9.15469H40.5858Z" fill="white"/>
<path d="M43.3773 9.15469H42.8636V5.64846H41.7471V5.15747H44.4938V5.64846H43.3773V9.15469Z" fill="white"/>
<path d="M49.6934 8.63847C49.3004 9.04216 48.812 9.24403 48.2277 9.24403C47.6435 9.24403 47.1552 9.04216 46.7628 8.63847C46.3697 8.23473 46.1739 7.74043 46.1739 7.15618C46.1739 6.57189 46.3697 6.07759 46.7628 5.67385C47.1552 5.27015 47.6435 5.06763 48.2277 5.06763C48.8087 5.06763 49.2963 5.27082 49.6907 5.67651C50.0851 6.08227 50.2823 6.57526 50.2823 7.15618C50.2823 7.74043 50.0858 8.23473 49.6934 8.63847ZM47.1419 8.30336C47.4377 8.60317 47.7994 8.7524 48.2277 8.7524C48.6561 8.7524 49.0185 8.60247 49.3137 8.30336C49.6095 8.00359 49.7581 7.62117 49.7581 7.15618C49.7581 6.69115 49.6095 6.30878 49.3137 6.00896C49.0185 5.7092 48.6561 5.55997 48.2277 5.55997C47.7994 5.55997 47.4377 5.70985 47.1419 6.00896C46.8467 6.30878 46.6982 6.69115 46.6982 7.15618C46.6982 7.62117 46.8467 8.00359 47.1419 8.30336Z" fill="white"/>
<path d="M51.0032 9.15469V5.15747H51.6282L53.5705 8.26665H53.5926L53.5705 7.49653V5.15747H54.0844V9.15469H53.5479L51.5156 5.89427H51.4935L51.5156 6.6644V9.15469H51.0032Z" fill="white"/>
<path d="M32.245 7.31795C32.245 7.8762 32.0798 8.32057 31.7487 8.65237C31.373 9.04676 30.8826 9.24395 30.2804 9.24395C29.7034 9.24395 29.2125 9.04409 28.8094 8.64437C28.4057 8.24395 28.2039 7.74829 28.2039 7.15671C28.2039 6.56447 28.4057 6.06881 28.8094 5.66909C29.2125 5.26871 29.7034 5.06885 30.2804 5.06885C30.5668 5.06885 30.8407 5.12481 31.1005 5.23606C31.3609 5.34798 31.5695 5.49655 31.7254 5.68242L31.3743 6.03417C31.1098 5.71771 30.7454 5.55984 30.2797 5.55984C29.8587 5.55984 29.4949 5.70776 29.1878 6.00355C28.8807 6.29934 28.7275 6.68373 28.7275 7.15605C28.7275 7.62838 28.8807 8.01281 29.1878 8.30861C29.4949 8.6044 29.8587 8.75227 30.2797 8.75227C30.7261 8.75227 31.0985 8.6037 31.3963 8.30594C31.5895 8.11206 31.7014 7.84227 31.7314 7.49649H30.2797V7.01618H32.2163C32.2364 7.12076 32.245 7.22137 32.245 7.31795Z" stroke="white" stroke-width="0.240909" stroke-miterlimit="10"/>
<path d="M35.3163 5.64846H33.4962V6.9156H35.1377V7.39592H33.4962V8.66301H35.3163V9.15469H32.9825V5.15747H35.3163V5.64846Z" stroke="white" stroke-width="0.240909" stroke-miterlimit="10"/>
<path d="M37.4819 9.15469H36.9683V5.64846H35.8517V5.15747H38.5985V5.64846H37.4819V9.15469Z" stroke="white" stroke-width="0.240909" stroke-miterlimit="10"/>
<path d="M40.5858 9.15469V5.15747H41.0994V9.15469H40.5858Z" stroke="white" stroke-width="0.240909" stroke-miterlimit="10"/>
<path d="M43.3773 9.15469H42.8636V5.64846H41.7471V5.15747H44.4938V5.64846H43.3773V9.15469Z" stroke="white" stroke-width="0.240909" stroke-miterlimit="10"/>
<path d="M49.6934 8.63847C49.3004 9.04216 48.812 9.24403 48.2277 9.24403C47.6435 9.24403 47.1552 9.04216 46.7628 8.63847C46.3697 8.23473 46.1739 7.74043 46.1739 7.15618C46.1739 6.57189 46.3697 6.07759 46.7628 5.67385C47.1552 5.27015 47.6435 5.06763 48.2277 5.06763C48.8087 5.06763 49.2963 5.27082 49.6907 5.67651C50.0851 6.08227 50.2823 6.57526 50.2823 7.15618C50.2823 7.74043 50.0858 8.23473 49.6934 8.63847ZM47.1419 8.30336C47.4377 8.60317 47.7994 8.7524 48.2277 8.7524C48.6561 8.7524 49.0185 8.60247 49.3137 8.30336C49.6095 8.00359 49.7581 7.62117 49.7581 7.15618C49.7581 6.69115 49.6095 6.30878 49.3137 6.00896C49.0185 5.7092 48.6561 5.55997 48.2277 5.55997C47.7994 5.55997 47.4377 5.70985 47.1419 6.00896C46.8467 6.30878 46.6982 6.69115 46.6982 7.15618C46.6982 7.62117 46.8467 8.00359 47.1419 8.30336Z" stroke="white" stroke-width="0.240909" stroke-miterlimit="10"/>
<path d="M51.0032 9.15469V5.15747H51.6282L53.5705 8.26665H53.5926L53.5705 7.49653V5.15747H54.0844V9.15469H53.5479L51.5156 5.89427H51.4935L51.5156 6.6644V9.15469H51.0032Z" stroke="white" stroke-width="0.240909" stroke-miterlimit="10"/>
<g filter="url(#filter0_dd_380_3080)">
<path d="M7.60747 5.51592C7.4136 5.72109 7.29901 6.03956 7.29901 6.45195V21.1857C7.29901 21.5987 7.4136 21.9165 7.60747 22.1217L7.65675 22.1696L15.9104 13.9161V13.8188V13.7215L7.65675 5.46729L7.60747 5.51592Z" fill="url(#paint0_linear_380_3080)"/>
<path d="M18.6611 16.6683L15.9103 13.9162V13.8189V13.7217L18.6617 10.9702L18.7237 11.0056L21.9834 12.8576C22.9141 13.3865 22.9141 14.2519 21.9834 14.7816L18.7237 16.6336L18.6611 16.6683Z" fill="url(#paint1_linear_380_3080)"/>
<g filter="url(#filter1_d_380_3080)">
<path d="M18.7237 16.6329L15.9097 13.8188L7.60748 22.1217C7.91394 22.4468 8.4209 22.4868 8.99182 22.163L18.7237 16.6329Z" fill="url(#paint2_linear_380_3080)"/>
</g>
<path d="M18.7237 11.0048L8.99182 5.47536C8.4209 5.15092 7.91394 5.19156 7.60748 5.51666L15.9104 13.8195L18.7237 11.0048Z" fill="url(#paint3_linear_380_3080)"/>
</g>
<path d="M3.6832 1.09971H87.5638V-0.111572H3.6832V1.09971ZM89.9863 3.52226V24.1139H91.198V3.52226H89.9863ZM87.5638 26.5365H3.6832V27.7477H87.5638V26.5365ZM1.26066 24.1139V3.52226H0.0493774V24.1139H1.26066ZM3.6832 26.5365C2.34527 26.5365 1.26066 25.4519 1.26066 24.1139H0.0493774C0.0493774 26.1208 1.6763 27.7477 3.6832 27.7477V26.5365ZM89.9863 24.1139C89.9863 25.4519 88.9018 26.5365 87.5638 26.5365V27.7477C89.571 27.7477 91.198 26.1208 91.198 24.1139H89.9863ZM87.5638 1.09971C88.9018 1.09971 89.9863 2.18432 89.9863 3.52226H91.198C91.198 1.51535 89.571 -0.111572 87.5638 -0.111572V1.09971ZM3.6832 -0.111572C1.6763 -0.111572 0.0493774 1.51535 0.0493774 3.52226H1.26066C1.26066 2.18432 2.34527 1.09971 3.6832 1.09971V-0.111572Z" fill="#A6A6A6"/>
</g>
<defs>
<filter id="filter0_dd_380_3080" x="7.29901" y="5.07078" width="15.3824" height="17.4966" filterUnits="userSpaceOnUse" color-interpolation-filters="sRGB">
<feFlood flood-opacity="0" result="BackgroundImageFix"/>
<feColorMatrix in="SourceAlpha" type="matrix" values="0 0 0 0 0 0 0 0 0 0 0 0 0 0 0 0 0 0 127 0" result="hardAlpha"/>
<feOffset dy="-0.180682"/>
<feComposite in2="hardAlpha" operator="out"/>
<feColorMatrix type="matrix" values="0 0 0 0 0 0 0 0 0 0 0 0 0 0 0 0 0 0 0.12 0"/>
<feBlend mode="normal" in2="BackgroundImageFix" result="effect1_dropShadow_380_3080"/>
<feColorMatrix in="SourceAlpha" type="matrix" values="0 0 0 0 0 0 0 0 0 0 0 0 0 0 0 0 0 0 127 0" result="hardAlpha"/>
<feOffset dy="0.180682"/>
<feComposite in2="hardAlpha" operator="out"/>
<feColorMatrix type="matrix" values="0 0 0 0 1 0 0 0 0 1 0 0 0 0 1 0 0 0 0.25 0"/>
<feBlend mode="normal" in2="effect1_dropShadow_380_3080" result="effect2_dropShadow_380_3080"/>
<feBlend mode="normal" in="SourceGraphic" in2="effect2_dropShadow_380_3080" result="shape"/>
</filter>
<filter id="filter1_d_380_3080" x="7.60748" y="13.6382" width="11.1162" height="8.74855" filterUnits="userSpaceOnUse" color-interpolation-filters="sRGB">
<feFlood flood-opacity="0" result="BackgroundImageFix"/>
<feColorMatrix in="SourceAlpha" type="matrix" values="0 0 0 0 0 0 0 0 0 0 0 0 0 0 0 0 0 0 127 0" result="hardAlpha"/>
<feOffset dy="-0.180682"/>
<feComposite in2="hardAlpha" operator="out"/>
<feColorMatrix type="matrix" values="0 0 0 0 0 0 0 0 0 0 0 0 0 0 0 0 0 0 0.08 0"/>
<feBlend mode="normal" in2="BackgroundImageFix" result="effect1_dropShadow_380_3080"/>
<feBlend mode="normal" in="SourceGraphic" in2="effect1_dropShadow_380_3080" result="shape"/>
</filter>
<linearGradient id="paint0_linear_380_3080" x1="15.1787" y1="6.29603" x2="3.99853" y2="17.4762" gradientUnits="userSpaceOnUse">
<stop stop-color="#00A0FF"/>
<stop offset="0.0066" stop-color="#00A1FF"/>
<stop offset="0.2601" stop-color="#00BEFF"/>
<stop offset="0.5122" stop-color="#00D2FF"/>
<stop offset="0.7604" stop-color="#00DFFF"/>
<stop offset="1" stop-color="#00E3FF"/>
</linearGradient>
<linearGradient id="paint1_linear_380_3080" x1="23.1949" y1="13.8189" x2="7.07556" y2="13.8189" gradientUnits="userSpaceOnUse">
<stop stop-color="#FFE000"/>
<stop offset="0.4087" stop-color="#FFBD00"/>
<stop offset="0.7754" stop-color="#FFA500"/>
<stop offset="1" stop-color="#FF9C00"/>
</linearGradient>
<linearGradient id="paint2_linear_380_3080" x1="17.1955" y1="15.347" x2="2.03378" y2="30.5088" gradientUnits="userSpaceOnUse">
<stop stop-color="#FF3A44"/>
<stop offset="1" stop-color="#C31162"/>
</linearGradient>
<linearGradient id="paint3_linear_380_3080" x1="5.51654" y1="0.611958" x2="12.2867" y2="7.38212" gradientUnits="userSpaceOnUse">
<stop stop-color="#32A071"/>
<stop offset="0.0685" stop-color="#2DA771"/>
<stop offset="0.4762" stop-color="#15CF74"/>
<stop offset="0.8009" stop-color="#06E775"/>
<stop offset="1" stop-color="#00F076"/>
</linearGradient>
<clipPath id="clip0_380_3080">
<rect width="90" height="26.648" fill="white" transform="translate(0.655029 0.494141)"/>
</clipPath>
</defs>
</svg>
