<svg width="91" height="24" viewBox="0 0 91 24" fill="none" xmlns="http://www.w3.org/2000/svg">
<path opacity="0.13" d="M72.2539 22.6008C72.2539 22.6008 73.8567 16.7427 81.4105 16.7427C88.9643 16.7427 90.1551 22.8027 90.1551 22.8027L72.2539 22.6008Z" fill="#33FF00"/>
<path d="M81.2711 18.3151V18.7959H80.7807C80.5087 18.7955 80.2481 18.6873 80.0558 18.495C79.8635 18.3027 79.7553 18.0421 79.7549 17.7702V17.2861H80.2437" fill="#ED9A00"/>
<path d="M81.2869 18.2846L81.3222 18.7654H81.2853C81.014 18.7839 80.7464 18.6941 80.5412 18.5156C80.336 18.3372 80.21 18.0847 80.1907 17.8134L80.157 17.3326H80.1938C80.3282 17.3232 80.463 17.3404 80.5907 17.3832C80.7183 17.426 80.8363 17.4935 80.9378 17.5819C81.0393 17.6704 81.1224 17.7779 81.1823 17.8985C81.2422 18.0191 81.2778 18.1503 81.2869 18.2846Z" fill="#FFDF59"/>
<path d="M81.0884 17.7269C81.2078 17.8986 81.2715 18.1028 81.2711 18.3119V18.7959H80.7807C80.5087 18.7955 80.2481 18.6873 80.0558 18.495C79.8635 18.3027 79.7553 18.0421 79.7549 17.7702V17.2861H80.2437C80.457 17.2859 80.665 17.3526 80.8383 17.4769" stroke="#413E45" stroke-width="0.666667" stroke-miterlimit="10" stroke-linecap="round"/>
<path d="M82.9109 17.2651V17.7572C82.9117 18.0294 82.8045 18.2908 82.6128 18.484C82.4211 18.6772 82.1605 18.7865 81.8883 18.7878H81.4075V18.2941C81.4071 18.1594 81.4332 18.0259 81.4843 17.9013C81.5355 17.7767 81.6107 17.6634 81.7056 17.5678C81.8006 17.4723 81.9134 17.3964 82.0377 17.3444C82.162 17.2925 82.2953 17.2656 82.43 17.2651H82.9109Z" fill="#ED9A00"/>
<path d="M82.8833 17.2861V17.7766C82.8829 18.0485 82.7747 18.3092 82.5824 18.5014C82.3901 18.6937 82.1294 18.8019 81.8575 18.8023H81.8463V18.3151C81.8463 18.0433 81.9542 17.7827 82.1462 17.5903C82.3382 17.398 82.5987 17.2898 82.8705 17.2893L82.8833 17.2861Z" fill="#FFDF59"/>
<path d="M82.8833 17.2861V17.7766C82.8829 18.0485 82.7747 18.3092 82.5824 18.5014C82.3901 18.6937 82.1294 18.8019 81.8575 18.8023H81.3655V18.3151C81.3659 18.0432 81.4741 17.7825 81.6664 17.5902C81.8587 17.398 82.1193 17.2898 82.3912 17.2893L82.8833 17.2861Z" stroke="#413E45" stroke-width="0.666667" stroke-miterlimit="10"/>
<path d="M82.8738 18.645V19.1403C82.8764 19.2737 82.8526 19.4064 82.8039 19.5306C82.7551 19.6549 82.6824 19.7683 82.5899 19.8645C82.4973 19.9606 82.3867 20.0376 82.2643 20.091C82.142 20.1444 82.0103 20.1732 81.8769 20.1757H81.3961V19.6804C81.3935 19.547 81.4173 19.4143 81.466 19.29C81.5147 19.1658 81.5875 19.0523 81.68 18.9562C81.7726 18.86 81.8832 18.7831 82.0056 18.7297C82.1279 18.6763 82.2595 18.6475 82.393 18.645H82.8738Z" fill="#ED9A00"/>
<path d="M82.8833 18.655V19.1359C82.8833 19.2706 82.8568 19.4039 82.8052 19.5284C82.7537 19.6529 82.6781 19.7659 82.5829 19.8612C82.4876 19.9564 82.3745 20.032 82.2501 20.0835C82.1256 20.1351 81.9922 20.1616 81.8575 20.1616H81.8463V19.6792C81.8463 19.4076 81.9542 19.1471 82.1463 18.955C82.3384 18.7629 82.5989 18.655 82.8705 18.655H82.8833Z" fill="#FFDF59"/>
<path d="M82.8833 18.655V19.1359C82.8833 19.2706 82.8568 19.4039 82.8052 19.5284C82.7537 19.6529 82.6781 19.7659 82.5828 19.8612C82.4876 19.9564 82.3745 20.032 82.2501 20.0835C82.1256 20.1351 81.9922 20.1616 81.8575 20.1616H81.3655V19.6792C81.3659 19.4074 81.4742 19.1469 81.6665 18.9549C81.8588 18.7629 82.1195 18.655 82.3912 18.655H82.8833Z" stroke="#413E45" stroke-width="0.666667" stroke-miterlimit="10"/>
<path d="M80.8209 20.1692C80.6862 20.1694 80.5527 20.143 80.4282 20.0915C80.3036 20.0401 80.1904 19.9645 80.0951 19.8692C79.9998 19.7739 79.9243 19.6608 79.8728 19.5362C79.8213 19.4117 79.795 19.2782 79.7952 19.1434V18.6626H80.2856C80.5572 18.6626 80.8177 18.7705 81.0098 18.9626C81.2019 19.1546 81.3098 19.4151 81.3098 19.6868V20.1772L80.8209 20.1692Z" fill="#ED9A00"/>
<path d="M81.2209 20.1003C81.0881 20.102 80.9563 20.0775 80.8329 20.0282C80.7096 19.979 80.5972 19.9059 80.502 19.8132C80.4069 19.7204 80.331 19.6099 80.2787 19.4878C80.2263 19.3658 80.1985 19.2346 80.1968 19.1018V18.6209H80.216C80.4844 18.6175 80.7432 18.7207 80.9355 18.908C81.1278 19.0952 81.238 19.3511 81.2418 19.6194V20.1003H81.2209Z" fill="#FFDF59"/>
<path d="M80.7787 20.1692C80.644 20.1692 80.5106 20.1427 80.3862 20.0911C80.2617 20.0396 80.1486 19.964 80.0534 19.8687C79.9581 19.7735 79.8826 19.6604 79.831 19.536C79.7795 19.4115 79.7529 19.2781 79.7529 19.1434V18.6626H80.2434C80.5152 18.6626 80.7758 18.7704 80.9681 18.9625C81.1605 19.1545 81.2687 19.415 81.2692 19.6868V20.1772L80.7787 20.1692Z" stroke="#413E45" stroke-width="0.666667" stroke-miterlimit="10"/>
<path d="M82.8991 20.0156V20.5125C82.8999 20.6484 82.874 20.7833 82.8227 20.9092C82.7715 21.0351 82.6959 21.1497 82.6004 21.2465C82.5048 21.3432 82.3911 21.4202 82.2659 21.473C82.1406 21.5258 82.0061 21.5534 81.8701 21.5543H81.3797V21.0574C81.378 20.7831 81.4852 20.5193 81.6778 20.324C81.8704 20.1286 82.1327 20.0177 82.407 20.0156H82.8991Z" fill="#ED9A00"/>
<path d="M82.8833 20.022V20.5124C82.8829 20.7842 82.7746 21.0447 82.5823 21.2367C82.39 21.4287 82.1293 21.5366 81.8575 21.5366H81.8463V21.0558C81.8461 20.9211 81.8724 20.7878 81.9238 20.6633C81.9752 20.5389 82.0506 20.4258 82.1457 20.3305C82.2408 20.2353 82.3538 20.1597 82.4782 20.1081C82.6025 20.0565 82.7358 20.03 82.8705 20.03L82.8833 20.022Z" fill="#FFDF59"/>
<path d="M82.8833 20.022V20.5124C82.8829 20.7842 82.7746 21.0447 82.5823 21.2367C82.39 21.4287 82.1293 21.5366 81.8575 21.5366H81.3655V21.0558C81.3655 20.7837 81.4735 20.5228 81.6659 20.3304C81.8583 20.1381 82.1192 20.03 82.3912 20.03L82.8833 20.022Z" stroke="#413E45" stroke-width="0.666667" stroke-miterlimit="10"/>
<path d="M80.7938 21.5366C80.661 21.5349 80.5298 21.5071 80.4077 21.4547C80.2856 21.4023 80.1751 21.3264 80.0824 21.2313C79.9897 21.1362 79.9166 21.0238 79.8673 20.9004C79.818 20.7771 79.7936 20.6452 79.7952 20.5124V20.022H80.2761C80.409 20.0236 80.5404 20.0515 80.6625 20.104C80.7847 20.1565 80.8953 20.2325 80.988 20.3278C81.0808 20.4231 81.1538 20.5357 81.203 20.6592C81.2522 20.7828 81.2765 20.9148 81.2746 21.0477V21.5286L80.7938 21.5366Z" fill="#ED9A00"/>
<path d="M81.2242 21.4691C80.9562 21.4733 80.6975 21.3711 80.5048 21.1848C80.3122 20.9985 80.2014 20.7433 80.1968 20.4753V19.9945H80.216C80.4841 19.9902 80.743 20.0924 80.9359 20.2787C81.1288 20.465 81.2399 20.7201 81.245 20.9882V21.4691H81.2242Z" fill="#FFDF59"/>
<path d="M80.7582 21.5363C80.6247 21.5359 80.4927 21.5092 80.3696 21.4577C80.2464 21.4063 80.1347 21.3311 80.0406 21.2364C79.9465 21.1418 79.872 21.0295 79.8214 20.9061C79.7707 20.7826 79.7448 20.6504 79.7452 20.517V20.0361H80.2261C80.3596 20.0366 80.4918 20.0633 80.6151 20.1149C80.7383 20.1664 80.8501 20.2418 80.9442 20.3366C81.0383 20.4314 81.1128 20.5439 81.1633 20.6675C81.2139 20.7911 81.2396 20.9235 81.239 21.0571V21.5379L80.7582 21.5363Z" stroke="#413E45" stroke-width="0.666667" stroke-miterlimit="10"/>
<path d="M81.3127 21.115V23.0287" stroke="#413E45" stroke-width="0.666667" stroke-miterlimit="10" stroke-linecap="round"/>
<path d="M81.2456 16.1511V17.5183" stroke="#413E45" stroke-width="0.666667" stroke-miterlimit="10" stroke-linecap="round"/>
<path d="M81.9298 16.5615V17.1081" stroke="#413E45" stroke-width="0.666667" stroke-miterlimit="10" stroke-linecap="round"/>
<path d="M80.5629 16.5615V17.1081" stroke="#413E45" stroke-width="0.666667" stroke-miterlimit="10" stroke-linecap="round"/>
<path d="M83.1736 14.5696C83.2426 14.5696 83.2986 14.5136 83.2986 14.4446C83.2986 14.3756 83.2426 14.3196 83.1736 14.3196C83.1046 14.3196 83.0486 14.3756 83.0486 14.4446C83.0486 14.5136 83.1046 14.5696 83.1736 14.5696Z" stroke="#DDE9AF" stroke-width="1.33333" stroke-miterlimit="10"/>
<path d="M82.0515 14.8897C82.1206 14.8897 82.1766 14.8337 82.1766 14.7647C82.1766 14.6956 82.1206 14.6396 82.0515 14.6396C81.9825 14.6396 81.9265 14.6956 81.9265 14.7647C81.9265 14.8337 81.9825 14.8897 82.0515 14.8897Z" stroke="#E7DA74" stroke-width="1.33333" stroke-miterlimit="10"/>
<path d="M80.0834 13.9073C80.2162 13.9073 80.3238 13.7997 80.3238 13.6669C80.3238 13.5342 80.2162 13.4265 80.0834 13.4265C79.9507 13.4265 79.843 13.5342 79.843 13.6669C79.843 13.7997 79.9507 13.9073 80.0834 13.9073Z" stroke="#E7DA74" stroke-width="1.33333" stroke-miterlimit="10"/>
<path d="M78.849 15.8931C79.0208 15.8931 79.16 15.7539 79.16 15.5822C79.16 15.4104 79.0208 15.2712 78.849 15.2712C78.6773 15.2712 78.5381 15.4104 78.5381 15.5822C78.5381 15.7539 78.6773 15.8931 78.849 15.8931Z" stroke="#DDE9AF" stroke-width="2.66667" stroke-miterlimit="10"/>
<path opacity="0.13" d="M0.155029 22.7478C0.155029 22.7478 4.94428 17.0356 27.6224 17.0356C50.3006 17.0356 53.8586 22.9434 53.8586 22.9434L0.155029 22.7478Z" fill="#2296F3"/>
<path opacity="0.5" d="M46.9979 6.72087C48.8536 6.72087 50.358 5.21652 50.358 3.3608C50.358 1.50509 48.8536 0.000732422 46.9979 0.000732422C45.1422 0.000732422 43.6378 1.50509 43.6378 3.3608C43.6378 5.21652 45.1422 6.72087 46.9979 6.72087Z" fill="#F4D13C"/>
<path d="M46.9979 6.00761C48.4596 6.00761 49.6446 4.82268 49.6446 3.36098C49.6446 1.89929 48.4596 0.714355 46.9979 0.714355C45.5363 0.714355 44.3513 1.89929 44.3513 3.36098C44.3513 4.82268 45.5363 6.00761 46.9979 6.00761Z" fill="#F4D13C"/>
<path d="M38.5999 7.29391V7.2778C38.6762 7.28774 38.753 7.29311 38.83 7.29391C38.9116 7.29328 38.993 7.2879 39.074 7.2778C39.0743 7.28317 39.0743 7.28854 39.074 7.29391H46.0035C45.8246 6.99211 45.5709 6.74148 45.267 6.56614C44.9631 6.3908 44.6191 6.29666 44.2683 6.29279C43.8703 6.2931 43.4816 6.41253 43.1521 6.63571C43.0781 6.1477 42.8336 5.70168 42.462 5.37684C42.0904 5.052 41.6157 4.86935 41.1222 4.86131C41.0407 4.86202 40.9592 4.8674 40.8783 4.87742C40.8051 4.36371 40.5408 3.89652 40.1382 3.56926C39.7355 3.24199 39.2241 3.07876 38.7063 3.11219C38.1885 3.14563 37.7024 3.37327 37.3452 3.7496C36.9879 4.12594 36.7859 4.62324 36.7794 5.14209C36.7794 5.19502 36.7794 5.24565 36.7794 5.29858C36.7031 5.28942 36.6262 5.28481 36.5493 5.28477C36.0164 5.29477 35.5073 5.50734 35.1256 5.87927C34.7438 6.2512 34.518 6.75456 34.4941 7.28701L38.5999 7.29391Z" fill="#EDF7FA"/>
<path d="M5.76802 13.1969C6.30821 13.1969 6.74612 12.759 6.74612 12.2188C6.74612 11.6786 6.30821 11.2407 5.76802 11.2407C5.22783 11.2407 4.78992 11.6786 4.78992 12.2188C4.78992 12.759 5.22783 13.1969 5.76802 13.1969Z" stroke="#DDE9AF" stroke-width="6.66667" stroke-miterlimit="10"/>
<path d="M10.8541 5.91058C11.2202 5.91058 11.5169 5.61383 11.5169 5.24777C11.5169 4.88171 11.2202 4.58496 10.8541 4.58496C10.488 4.58496 10.1913 4.88171 10.1913 5.24777C10.1913 5.61383 10.488 5.91058 10.8541 5.91058Z" stroke="#DDE9AF" stroke-width="2" stroke-miterlimit="10"/>
<path d="M9.55646 9.34217C9.75983 9.34217 9.92469 9.17731 9.92469 8.97394C9.92469 8.77057 9.75983 8.60571 9.55646 8.60571C9.35309 8.60571 9.18823 8.77057 9.18823 8.97394C9.18823 9.17731 9.35309 9.34217 9.55646 9.34217Z" stroke="#AEDD88" stroke-width="2" stroke-miterlimit="10"/>
<path d="M39.8729 16.4191V16.9416H39.3505C39.0606 16.9416 38.7825 16.8264 38.5775 16.6214C38.3725 16.4164 38.2573 16.1383 38.2573 15.8484V15.3306H38.7797" fill="#ED9A00"/>
<path d="M39.8911 16.3936L39.9279 16.916H39.8888C39.7456 16.926 39.6017 16.9077 39.4655 16.8621C39.3293 16.8165 39.2035 16.7445 39.0951 16.6503C38.9868 16.556 38.898 16.4414 38.834 16.3128C38.77 16.1842 38.7319 16.0443 38.722 15.9011L38.6852 15.3786H38.7243C38.8676 15.3686 39.0114 15.3869 39.1476 15.4325C39.2838 15.4781 39.4096 15.5501 39.518 15.6443C39.6264 15.7386 39.7151 15.8533 39.7791 15.9818C39.8431 16.1104 39.8812 16.2503 39.8911 16.3936Z" fill="#FFDF59"/>
<path d="M39.6773 15.8001C39.8054 15.9828 39.8737 16.2006 39.8729 16.4238V16.9462H39.3505C39.0606 16.9462 38.7825 16.831 38.5775 16.626C38.3725 16.421 38.2573 16.1429 38.2573 15.853V15.3306H38.7797C39.0069 15.3292 39.2285 15.4002 39.4126 15.5331" stroke="#413E45" stroke-width="0.666667" stroke-miterlimit="10" stroke-linecap="round"/>
<path d="M41.6129 15.3164V15.8365C41.6129 15.98 41.5847 16.122 41.5297 16.2545C41.4747 16.387 41.3942 16.5074 41.2926 16.6087C41.1911 16.71 41.0706 16.7903 40.9379 16.845C40.8053 16.8997 40.6632 16.9277 40.5198 16.9274H40.002V16.405C40.0023 16.2617 40.0308 16.1199 40.0859 15.9877C40.141 15.8555 40.2216 15.7354 40.3231 15.6343C40.4246 15.5332 40.545 15.4531 40.6775 15.3986C40.81 15.344 40.9519 15.3161 41.0951 15.3164H41.6129Z" fill="#ED9A00"/>
<path d="M41.5989 15.3305V15.853C41.5989 16.1429 41.4837 16.4209 41.2787 16.6259C41.0737 16.831 40.7956 16.9461 40.5057 16.9461H40.485V16.4191C40.4847 16.2755 40.5128 16.1332 40.5676 16.0004C40.6224 15.8676 40.7029 15.747 40.8045 15.6454C40.9061 15.5439 41.0267 15.4634 41.1595 15.4085C41.2922 15.3537 41.4345 15.3256 41.5782 15.3259L41.5989 15.3305Z" fill="#FFDF59"/>
<path d="M41.5987 15.3305V15.853C41.5987 16.1429 41.4836 16.4209 41.2786 16.6259C41.0736 16.831 40.7955 16.9461 40.5056 16.9461H39.9832V16.4191C39.9829 16.2755 40.0109 16.1332 40.0658 16.0004C40.1206 15.8676 40.2011 15.747 40.3027 15.6454C40.4042 15.5439 40.5249 15.4634 40.6576 15.4085C40.7904 15.3537 40.9327 15.3256 41.0763 15.3259L41.5987 15.3305Z" stroke="#413E45" stroke-width="0.666667" stroke-miterlimit="10"/>
<path d="M41.6125 16.7642V17.2912C41.6168 17.5801 41.5063 17.859 41.3052 18.0665C41.1042 18.274 40.829 18.3933 40.5401 18.3982H40.0245V17.8688C40.0224 17.7259 40.0485 17.5839 40.1012 17.451C40.1539 17.3181 40.2324 17.1969 40.3319 17.0944C40.4315 16.9918 40.5504 16.9098 40.6816 16.8532C40.8129 16.7965 40.954 16.7663 41.097 16.7642H41.6125Z" fill="#ED9A00"/>
<path d="M41.5989 16.7896V17.312C41.5989 17.6019 41.4837 17.88 41.2787 18.085C41.0737 18.29 40.7956 18.4051 40.5057 18.4051H40.485V17.8827C40.4847 17.7391 40.5128 17.5968 40.5676 17.464C40.6224 17.3313 40.7029 17.2106 40.8045 17.1091C40.9061 17.0075 41.0267 16.927 41.1595 16.8721C41.2922 16.8173 41.4345 16.7892 41.5782 16.7896H41.5989Z" fill="#FFDF59"/>
<path d="M41.5987 16.7896V17.312C41.5987 17.6019 41.4836 17.88 41.2786 18.085C41.0736 18.29 40.7955 18.4051 40.5056 18.4051H39.9832V17.8827C39.9829 17.7391 40.0109 17.5968 40.0658 17.464C40.1206 17.3313 40.2011 17.2106 40.3027 17.1091C40.4042 17.0075 40.5249 16.927 40.6576 16.8721C40.7904 16.8173 40.9327 16.7892 41.0763 16.7896H41.5987Z" stroke="#413E45" stroke-width="0.666667" stroke-miterlimit="10"/>
<path d="M39.38 18.4052C39.0874 18.4077 38.8058 18.2939 38.597 18.089C38.3881 17.884 38.2692 17.6046 38.2661 17.312V16.7896H38.7977C38.9426 16.7881 39.0863 16.8152 39.2207 16.8694C39.355 16.9235 39.4773 17.0037 39.5806 17.1053C39.6839 17.2069 39.7661 17.3278 39.8225 17.4613C39.8789 17.5947 39.9084 17.7379 39.9093 17.8828V18.4052H39.38Z" fill="#ED9A00"/>
<path d="M39.8634 18.3313C39.7222 18.3341 39.5818 18.3089 39.4504 18.2572C39.3189 18.2056 39.1989 18.1285 39.0974 18.0303C38.9958 17.9321 38.9146 17.8149 38.8585 17.6853C38.8023 17.5557 38.7724 17.4162 38.7703 17.275V16.7687H38.791C39.0762 16.7644 39.3516 16.8734 39.5565 17.0719C39.7615 17.2704 39.8793 17.5421 39.8841 17.8273V18.3313H39.8634Z" fill="#FFDF59"/>
<path d="M39.3622 18.4051C39.0723 18.4051 38.7942 18.29 38.5892 18.085C38.3842 17.88 38.269 17.6019 38.269 17.312V16.7896H38.7915C39.0814 16.7896 39.3594 16.9047 39.5645 17.1097C39.7695 17.3147 39.8846 17.5928 39.8846 17.8827V18.4051H39.3622Z" stroke="#413E45" stroke-width="0.666667" stroke-miterlimit="10"/>
<path d="M41.5992 18.2603V18.785C41.6007 18.9275 41.5741 19.069 41.5209 19.2012C41.4677 19.3334 41.3889 19.4539 41.2891 19.5557C41.1892 19.6574 41.0703 19.7385 40.9391 19.7942C40.8079 19.8499 40.667 19.8792 40.5244 19.8805H40.002V19.3557C40.0005 19.2124 40.0274 19.0702 40.0812 18.9374C40.135 18.8045 40.2146 18.6837 40.3154 18.5818C40.4162 18.4799 40.5362 18.399 40.6685 18.3439C40.8008 18.2887 40.9427 18.2602 41.086 18.2603H41.5992Z" fill="#ED9A00"/>
<path d="M41.5989 18.2603V18.7827C41.5989 19.0726 41.4837 19.3507 41.2787 19.5557C41.0737 19.7607 40.7956 19.8758 40.5057 19.8758H40.485V19.3419C40.488 19.054 40.6045 18.7789 40.8092 18.5764C41.0139 18.3738 41.2902 18.2602 41.5782 18.2603H41.5989Z" fill="#FFDF59"/>
<path d="M41.5987 18.2603V18.7827C41.5987 19.0726 41.4836 19.3507 41.2786 19.5557C41.0736 19.7607 40.7955 19.8758 40.5056 19.8758H39.9832V19.3419C39.9862 19.054 40.1027 18.7789 40.3074 18.5764C40.5121 18.3738 40.7884 18.2602 41.0763 18.2603H41.5987Z" stroke="#413E45" stroke-width="0.666667" stroke-miterlimit="10"/>
<path d="M39.38 19.8713C39.2372 19.8722 39.0956 19.8449 38.9633 19.791C38.831 19.7371 38.7106 19.6576 38.6091 19.5572C38.5076 19.4567 38.4268 19.3372 38.3715 19.2055C38.3162 19.0738 38.2875 18.9324 38.2869 18.7896V18.2603H38.8093C39.0976 18.259 39.3746 18.3722 39.5796 18.575C39.7845 18.7778 39.9006 19.0536 39.9025 19.3419V19.8713H39.38Z" fill="#ED9A00"/>
<path d="M39.8634 19.7907C39.7218 19.7928 39.5811 19.767 39.4495 19.7147C39.3179 19.6624 39.1978 19.5846 39.0963 19.4859C38.9947 19.3871 38.9137 19.2693 38.8577 19.1391C38.8018 19.009 38.7721 18.8691 38.7703 18.7275V18.2188H38.791C39.0769 18.2152 39.3525 18.325 39.5575 18.5244C39.7624 18.7237 39.8799 18.9962 39.8841 19.2821V19.7907H39.8634Z" fill="#FFDF59"/>
<path d="M39.3622 19.8712C39.0723 19.8712 38.7942 19.7561 38.5892 19.5511C38.3842 19.3461 38.269 19.068 38.269 18.7781V18.2603H38.7915C39.0814 18.2603 39.3594 18.3754 39.5645 18.5804C39.7695 18.7854 39.8846 19.0635 39.8846 19.3534V19.8712H39.3622Z" stroke="#413E45" stroke-width="0.666667" stroke-miterlimit="10"/>
<path d="M41.6406 19.6824V20.2094C41.6406 20.5018 41.5244 20.7822 41.3177 20.9889C41.1109 21.1956 40.8305 21.3118 40.5382 21.3118H40.002V20.7917C40.002 20.4993 40.1181 20.2189 40.3248 20.0122C40.5316 19.8054 40.812 19.6893 41.1043 19.6893L41.6406 19.6824Z" fill="#ED9A00"/>
<path d="M41.5989 19.7079V20.2304C41.5989 20.5203 41.4837 20.7983 41.2787 21.0033C41.0737 21.2084 40.7956 21.3235 40.5057 21.3235H40.485V20.7919C40.485 20.502 40.6002 20.2239 40.8052 20.0189C41.0102 19.8139 41.2882 19.6987 41.5782 19.6987L41.5989 19.7079Z" fill="#FFDF59"/>
<path d="M41.5987 19.7079V20.2304C41.5987 20.5203 41.4836 20.7983 41.2786 21.0033C41.0736 21.2084 40.7955 21.3235 40.5056 21.3235H39.9832V20.7919C39.9832 20.502 40.0983 20.2239 40.3033 20.0189C40.5083 19.8139 40.7864 19.6987 41.0763 19.6987L41.5987 19.7079Z" stroke="#413E45" stroke-width="0.666667" stroke-miterlimit="10"/>
<path d="M39.3645 21.3234C39.2224 21.3237 39.0816 21.2959 38.9502 21.2416C38.8188 21.1874 38.6995 21.1077 38.599 21.0072C38.4985 20.9067 38.4188 20.7874 38.3646 20.656C38.3103 20.5246 38.2825 20.3838 38.2828 20.2417V19.7239H38.8007C38.9429 19.7239 39.0837 19.7519 39.2151 19.8064C39.3465 19.8609 39.4659 19.9408 39.5663 20.0415C39.6668 20.1422 39.7464 20.2617 39.8007 20.3932C39.8549 20.5247 39.8826 20.6656 39.8823 20.8078V21.3234H39.3645Z" fill="#ED9A00"/>
<path d="M39.8635 21.252C39.5788 21.26 39.3025 21.1548 39.0954 20.9593C38.8883 20.7638 38.7672 20.4941 38.7588 20.2095V19.7123H38.7795C39.0638 19.7043 39.3397 19.8092 39.5468 20.0042C39.7538 20.1992 39.8752 20.4683 39.8842 20.7526V21.252H39.8635Z" fill="#FFDF59"/>
<path d="M39.3622 21.3234C39.2186 21.3237 39.0763 21.2956 38.9435 21.2408C38.8108 21.1859 38.6901 21.1054 38.5886 21.0039C38.487 20.9023 38.4065 20.7816 38.3516 20.6489C38.2968 20.5161 38.2687 20.3738 38.269 20.2302V19.7078H38.7915C39.0814 19.7078 39.3594 19.8229 39.5645 20.0279C39.7695 20.233 39.8846 20.511 39.8846 20.8009V21.3234H39.3622Z" stroke="#413E45" stroke-width="0.666667" stroke-miterlimit="10"/>
<path d="M39.9467 20.686V22.7274" stroke="#413E45" stroke-width="0.666667" stroke-miterlimit="10" stroke-linecap="round"/>
<path d="M39.8522 14.1177V15.5768" stroke="#413E45" stroke-width="0.666667" stroke-miterlimit="10" stroke-linecap="round"/>
<path d="M40.5817 14.5549V15.1395" stroke="#413E45" stroke-width="0.666667" stroke-miterlimit="10" stroke-linecap="round"/>
<path d="M39.1224 14.5549V15.1395" stroke="#413E45" stroke-width="0.666667" stroke-miterlimit="10" stroke-linecap="round"/>
<path d="M9.87639 16.06V16.6123H9.32405C9.01886 16.6123 8.72617 16.4911 8.51037 16.2753C8.29457 16.0595 8.17334 15.7668 8.17334 15.4616V14.9023H8.72568" fill="#ED9A00"/>
<path d="M9.89473 16.0303L9.93386 16.5803H9.89243C9.7407 16.5916 9.58823 16.5727 9.44386 16.5246C9.29949 16.4766 9.16609 16.4003 9.05137 16.3004C8.93665 16.2004 8.84289 16.0787 8.77552 15.9423C8.70814 15.8059 8.6685 15.6574 8.65887 15.5056L8.61975 14.9555H8.66118C8.81292 14.9443 8.96538 14.9632 9.10975 15.0113C9.25412 15.0593 9.38752 15.1355 9.50224 15.2355C9.61696 15.3355 9.71072 15.4572 9.77809 15.5936C9.84546 15.73 9.88511 15.8785 9.89473 16.0303Z" fill="#FFDF59"/>
<path d="M9.66926 15.3994C9.80446 15.5931 9.87678 15.8237 9.87639 16.06V16.6123H9.32405C9.01886 16.6123 8.72617 16.4911 8.51037 16.2753C8.29457 16.0595 8.17334 15.7668 8.17334 15.4616V14.9023H8.72568C8.9664 14.9027 9.20113 14.9774 9.3977 15.1164" stroke="#413E45" stroke-width="0.666667" stroke-miterlimit="10" stroke-linecap="round"/>
<path d="M11.7196 14.8887V15.441C11.7196 15.7462 11.5984 16.0389 11.3826 16.2547C11.1668 16.4705 10.8741 16.5917 10.5689 16.5917H10.0166V16.0417C10.0166 15.7365 10.1378 15.4438 10.3536 15.228C10.5694 15.0122 10.8621 14.891 11.1673 14.891L11.7196 14.8887Z" fill="#ED9A00"/>
<path d="M11.6945 14.9023V15.457C11.6945 15.7622 11.5733 16.0549 11.3575 16.2707C11.1417 16.4865 10.849 16.6077 10.5438 16.6077H10.5231V16.0554C10.5231 15.7502 10.6443 15.4575 10.8601 15.2417C11.0759 15.0259 11.3686 14.9046 11.6738 14.9046L11.6945 14.9023Z" fill="#FFDF59"/>
<path d="M11.6944 14.9023V15.457C11.6944 15.7622 11.5731 16.0549 11.3573 16.2707C11.1415 16.4865 10.8489 16.6077 10.5437 16.6077H9.99133V16.0554C9.99133 15.7502 10.1126 15.4575 10.3284 15.2417C10.5442 15.0259 10.8369 14.9046 11.142 14.9046L11.6944 14.9023Z" stroke="#413E45" stroke-width="0.666667" stroke-miterlimit="10"/>
<path d="M11.713 16.4189V16.9759C11.7157 17.1274 11.6885 17.2779 11.6329 17.4189C11.5773 17.5599 11.4944 17.6884 11.389 17.7973C11.2836 17.9061 11.1577 17.9931 11.0186 18.0531C10.8795 18.1132 10.7299 18.1452 10.5784 18.1473H10.0352V17.5904C10.0325 17.4389 10.0597 17.2883 10.1153 17.1474C10.1709 17.0064 10.2538 16.8778 10.3592 16.769C10.4646 16.6601 10.5905 16.5732 10.7296 16.5131C10.8687 16.453 11.0183 16.421 11.1698 16.4189H11.713Z" fill="#ED9A00"/>
<path d="M11.6945 16.4468V16.9991C11.6945 17.1502 11.6647 17.2999 11.6069 17.4395C11.5491 17.5791 11.4643 17.7059 11.3575 17.8128C11.2506 17.9196 11.1238 18.0044 10.9841 18.0622C10.8445 18.1201 10.6949 18.1498 10.5438 18.1498H10.5231V17.5975C10.5231 17.2923 10.6443 16.9996 10.8601 16.7838C11.0759 16.568 11.3686 16.4468 11.6738 16.4468H11.6945Z" fill="#FFDF59"/>
<path d="M11.6944 16.4468V16.9991C11.6944 17.1502 11.6646 17.2999 11.6068 17.4395C11.549 17.5791 11.4642 17.7059 11.3573 17.8128C11.2505 17.9196 11.1236 18.0044 10.984 18.0622C10.8444 18.1201 10.6948 18.1498 10.5437 18.1498H9.99133V17.5975C9.99133 17.2923 10.1126 16.9996 10.3284 16.7838C10.5442 16.568 10.8369 16.4468 11.142 16.4468H11.6944Z" stroke="#413E45" stroke-width="0.666667" stroke-miterlimit="10"/>
<path d="M9.35376 18.1567C9.04548 18.1592 8.74875 18.0395 8.5284 17.8239C8.30805 17.6083 8.18198 17.3143 8.17773 17.006V16.4537H8.73928C9.04756 16.4512 9.34428 16.5708 9.56464 16.7864C9.78499 17.002 9.91106 17.2961 9.9153 17.6044V18.1567H9.35376Z" fill="#ED9A00"/>
<path d="M9.86458 18.0784C9.56383 18.082 9.27387 17.9664 9.0582 17.7568C8.84253 17.5471 8.71872 17.2606 8.71387 16.9599V16.419H8.73458C9.03532 16.4153 9.32528 16.531 9.54095 16.7406C9.75662 16.9502 9.88044 17.2368 9.88529 17.5375V18.0714L9.86458 18.0784Z" fill="#FFDF59"/>
<path d="M9.33564 18.1567C9.03046 18.1567 8.73777 18.0354 8.52197 17.8196C8.30617 17.6038 8.18494 17.3111 8.18494 17.006V16.4536H8.73728C8.88839 16.4536 9.03802 16.4834 9.17763 16.5412C9.31724 16.599 9.4441 16.6838 9.55095 16.7906C9.6578 16.8975 9.74256 17.0244 9.80039 17.164C9.85822 17.3036 9.88798 17.4532 9.88798 17.6043V18.1567H9.33564Z" stroke="#413E45" stroke-width="0.666667" stroke-miterlimit="10"/>
<path d="M11.6943 17.9907V18.5454C11.6944 18.8482 11.575 19.1388 11.3622 19.3542C11.1494 19.5696 10.8602 19.6924 10.5574 19.6961H10.0166V19.1414C10.0166 18.839 10.1356 18.5487 10.3479 18.3334C10.5602 18.1181 10.8488 17.995 11.1512 17.9907H11.6943Z" fill="#ED9A00"/>
<path d="M11.6945 17.9911V18.5434C11.6945 18.8486 11.5733 19.1413 11.3575 19.3571C11.1417 19.5729 10.849 19.6941 10.5438 19.6941H10.5231V19.1395C10.5231 18.8343 10.6443 18.5416 10.8601 18.3258C11.0759 18.11 11.3686 17.9888 11.6738 17.9888L11.6945 17.9911Z" fill="#FFDF59"/>
<path d="M11.6944 17.9911V18.5434C11.6944 18.8486 11.5731 19.1413 11.3573 19.3571C11.1415 19.5729 10.8489 19.6941 10.5437 19.6941H9.99133V19.1395C9.99133 18.8343 10.1126 18.5416 10.3284 18.3258C10.5442 18.11 10.8369 17.9888 11.142 17.9888L11.6944 17.9911Z" stroke="#413E45" stroke-width="0.666667" stroke-miterlimit="10"/>
<path d="M9.35383 19.7008C9.04865 19.7008 8.75596 19.5796 8.54016 19.3638C8.32436 19.148 8.20312 18.8553 8.20312 18.5501V18.0093H8.75546C9.06065 18.0093 9.35334 18.1305 9.56914 18.3463C9.78494 18.5621 9.90617 18.8548 9.90617 19.16V19.7077L9.35383 19.7008Z" fill="#ED9A00"/>
<path d="M9.86436 19.6227C9.56035 19.6257 9.26748 19.5084 9.04971 19.2962C8.83195 19.0841 8.707 18.7944 8.70215 18.4904V17.9587H8.72286C9.02371 17.9587 9.31263 18.0764 9.52771 18.2868C9.7428 18.4971 9.86695 18.7834 9.87357 19.0841V19.6227H9.86436Z" fill="#FFDF59"/>
<path d="M9.33564 19.7011C9.03046 19.7011 8.73777 19.5799 8.52197 19.3641C8.30617 19.1483 8.18494 18.8556 8.18494 18.5504V17.998H8.73728C8.88839 17.998 9.03802 18.0278 9.17763 18.0856C9.31724 18.1435 9.4441 18.2282 9.55095 18.3351C9.6578 18.4419 9.74256 18.5688 9.80039 18.7084C9.85822 18.848 9.88798 18.9976 9.88798 19.1488V19.7034L9.33564 19.7011Z" stroke="#413E45" stroke-width="0.666667" stroke-miterlimit="10"/>
<path d="M11.7449 19.5076V20.0645C11.7443 20.3732 11.6214 20.669 11.4031 20.8873C11.1849 21.1055 10.889 21.2284 10.5804 21.229H10.0234V20.6721C10.0231 20.5191 10.053 20.3675 10.1115 20.2261C10.1699 20.0847 10.2556 19.9562 10.3638 19.848C10.472 19.7398 10.6005 19.654 10.742 19.5956C10.8834 19.5372 11.0349 19.5073 11.188 19.5076H11.7449Z" fill="#ED9A00"/>
<path d="M11.6945 19.5327V20.0874C11.6945 20.3925 11.5733 20.6852 11.3575 20.901C11.1417 21.1168 10.849 21.2381 10.5438 21.2381H10.5231V20.6857C10.5231 20.3805 10.6443 20.0879 10.8601 19.8721C11.0759 19.6563 11.3686 19.535 11.6738 19.535L11.6945 19.5327Z" fill="#FFDF59"/>
<path d="M11.6944 19.5327V20.0874C11.6944 20.3925 11.5731 20.6852 11.3573 20.901C11.1415 21.1168 10.8489 21.2381 10.5437 21.2381H9.99133V20.6857C9.99133 20.3805 10.1126 20.0879 10.3284 19.8721C10.5442 19.6563 10.8369 19.535 11.142 19.535L11.6944 19.5327Z" stroke="#413E45" stroke-width="0.666667" stroke-miterlimit="10"/>
<path d="M9.33784 21.2522C9.03266 21.2522 8.73997 21.1309 8.52417 20.9151C8.30837 20.6993 8.18713 20.4066 8.18713 20.1014V19.5537H8.73487C9.04006 19.5537 9.33275 19.6749 9.54855 19.8907C9.76435 20.1065 9.88558 20.3992 9.88558 20.7044V21.2522H9.33784Z" fill="#ED9A00"/>
<path d="M9.86457 21.1669C9.71556 21.1712 9.56716 21.1461 9.42786 21.093C9.28856 21.04 9.16109 20.9599 9.05273 20.8576C8.94436 20.7552 8.85724 20.6324 8.79633 20.4964C8.73542 20.3603 8.70193 20.2136 8.69775 20.0646V19.5398H8.71847C8.86748 19.5352 9.01594 19.5601 9.15536 19.6129C9.29479 19.6657 9.42243 19.7454 9.53101 19.8476C9.63959 19.9498 9.72697 20.0723 9.78815 20.2083C9.84933 20.3442 9.88312 20.4909 9.88759 20.6399V21.1669H9.86457Z" fill="#FFDF59"/>
<path d="M9.33564 21.2522C9.03046 21.2522 8.73777 21.131 8.52197 20.9152C8.30617 20.6994 8.18494 20.4067 8.18494 20.1015V19.5469H8.73728C8.88839 19.5469 9.03802 19.5766 9.17763 19.6345C9.31724 19.6923 9.4441 19.7771 9.55095 19.8839C9.6578 19.9908 9.74256 20.1176 9.80039 20.2572C9.85822 20.3968 9.88798 20.5465 9.88798 20.6976V21.2522H9.33564Z" stroke="#413E45" stroke-width="0.666667" stroke-miterlimit="10"/>
<path d="M9.95215 20.5664V22.7274" stroke="#413E45" stroke-width="0.666667" stroke-miterlimit="10" stroke-linecap="round"/>
<path d="M9.85327 13.6206V15.1649" stroke="#413E45" stroke-width="0.666667" stroke-miterlimit="10" stroke-linecap="round"/>
<path d="M10.6241 14.0854V14.7022" stroke="#413E45" stroke-width="0.666667" stroke-miterlimit="10" stroke-linecap="round"/>
<path d="M9.08252 14.0854V14.7022" stroke="#413E45" stroke-width="0.666667" stroke-miterlimit="10" stroke-linecap="round"/>
<path d="M44.2363 17.694V18.2164H43.7139C43.424 18.2164 43.1459 18.1013 42.9409 17.8962C42.7359 17.6912 42.6207 17.4132 42.6207 17.1233V16.6008H43.1431" fill="#ED9A00"/>
<path d="M44.2543 17.6665L44.2911 18.1866H44.252C44.1087 18.197 43.9647 18.1789 43.8284 18.1334C43.6921 18.0879 43.5661 18.016 43.4577 17.9217C43.3492 17.8274 43.2605 17.7126 43.1966 17.5839C43.1327 17.4552 43.0948 17.3151 43.0852 17.1717L43.0483 16.6493H43.0875C43.231 16.639 43.3751 16.6571 43.5116 16.7028C43.648 16.7484 43.7741 16.8205 43.8826 16.9151C43.991 17.0096 44.0797 17.1247 44.1435 17.2537C44.2073 17.3826 44.2449 17.5229 44.2543 17.6665Z" fill="#FFDF59"/>
<path d="M44.0407 17.0703C44.1688 17.253 44.2371 17.4709 44.2363 17.694V18.2164H43.7139C43.424 18.2164 43.1459 18.1013 42.9409 17.8962C42.7359 17.6912 42.6207 17.4132 42.6207 17.1233V16.6008H43.1431C43.3701 16.6006 43.5914 16.6714 43.776 16.8034" stroke="#413E45" stroke-width="0.666667" stroke-miterlimit="10" stroke-linecap="round"/>
<path d="M45.9855 16.5781V17.1098C45.9861 17.4005 45.8714 17.6796 45.6664 17.8859C45.4615 18.0921 45.1831 18.2086 44.8923 18.2098H44.3745V17.6759C44.3739 17.3858 44.4884 17.1072 44.6929 16.9014C44.8974 16.6956 45.1752 16.5793 45.4654 16.5781H45.9855Z" fill="#ED9A00"/>
<path d="M45.9578 16.6008V17.1233C45.9578 17.4132 45.8426 17.6912 45.6376 17.8962C45.4326 18.1013 45.1546 18.2164 44.8646 18.2164H44.8347V17.694C44.8353 17.4039 44.951 17.1258 45.1564 16.9209C45.3618 16.7159 45.6401 16.6008 45.9302 16.6008H45.9578Z" fill="#FFDF59"/>
<path d="M45.9577 16.6008V17.1233C45.9577 17.4132 45.8426 17.6912 45.6376 17.8962C45.4325 18.1013 45.1545 18.2164 44.8646 18.2164H44.3398V17.694C44.3405 17.4039 44.4561 17.1258 44.6615 16.9209C44.8669 16.7159 45.1452 16.6008 45.4353 16.6008H45.9577Z" stroke="#413E45" stroke-width="0.666667" stroke-miterlimit="10"/>
<path d="M45.9485 18.0508V18.5778C45.9512 18.7204 45.9258 18.862 45.8737 18.9948C45.8216 19.1275 45.7439 19.2486 45.6449 19.3512C45.5459 19.4538 45.4277 19.5359 45.2969 19.5928C45.1662 19.6496 45.0255 19.6801 44.8829 19.6825H44.3743V19.1555C44.3694 18.8677 44.4788 18.5898 44.6786 18.3827C44.8784 18.1756 45.1522 18.0562 45.4399 18.0508H45.9485Z" fill="#ED9A00"/>
<path d="M45.9578 18.0598V18.5822C45.9578 18.8722 45.8426 19.1502 45.6376 19.3552C45.4326 19.5602 45.1546 19.6754 44.8646 19.6754H44.8347V19.153C44.8353 18.8628 44.951 18.5848 45.1564 18.3799C45.3618 18.1749 45.6401 18.0598 45.9302 18.0598H45.9578Z" fill="#FFDF59"/>
<path d="M45.9577 18.0598V18.5822C45.9577 18.8722 45.8426 19.1502 45.6376 19.3552C45.4325 19.5602 45.1545 19.6754 44.8646 19.6754H44.3398V19.153C44.3405 18.8628 44.4561 18.5848 44.6615 18.3799C44.8669 18.1749 45.1452 18.0598 45.4353 18.0598H45.9577Z" stroke="#413E45" stroke-width="0.666667" stroke-miterlimit="10"/>
<path d="M43.7554 19.6754C43.4655 19.6754 43.1874 19.5602 42.9824 19.3552C42.7774 19.1502 42.6622 18.8722 42.6622 18.5822V18.0598H43.1847C43.4748 18.0598 43.7531 18.1749 43.9585 18.3799C44.1638 18.5848 44.2795 18.8628 44.2801 19.153V19.6754H43.7554Z" fill="#ED9A00"/>
<path d="M44.1856 19.604C43.8991 19.6077 43.6228 19.4976 43.4174 19.2978C43.2121 19.098 43.0943 18.8249 43.0901 18.5385V18.0298H43.1131C43.3992 18.0268 43.6749 18.1372 43.8797 18.3369C44.0846 18.5366 44.202 18.8093 44.2063 19.0954V19.6063L44.1856 19.604Z" fill="#FFDF59"/>
<path d="M43.7117 19.6754C43.4218 19.6754 43.1437 19.5602 42.9387 19.3552C42.7337 19.1502 42.6185 18.8722 42.6185 18.5822V18.0598H43.141C43.4309 18.0598 43.7089 18.175 43.9139 18.38C44.119 18.585 44.2341 18.8631 44.2341 19.153V19.6754H43.7117Z" stroke="#413E45" stroke-width="0.666667" stroke-miterlimit="10"/>
<path d="M45.9854 19.5122V20.0438C45.9872 20.3364 45.8729 20.6178 45.6675 20.8262C45.4621 21.0346 45.1825 21.153 44.8899 21.1554H44.3652V20.6238C44.3639 20.4788 44.3913 20.3351 44.4458 20.2007C44.5002 20.0663 44.5806 19.944 44.6823 19.8408C44.7841 19.7375 44.9052 19.6554 45.0388 19.599C45.1723 19.5426 45.3157 19.5131 45.4606 19.5122H45.9854Z" fill="#ED9A00"/>
<path d="M45.9578 19.519V20.0415C45.9578 20.3316 45.8427 20.6099 45.6378 20.8153C45.4328 21.0206 45.1548 21.1363 44.8646 21.1369H44.8347V20.6122C44.8353 20.3221 44.951 20.044 45.1564 19.8391C45.3618 19.6341 45.6401 19.519 45.9302 19.519H45.9578Z" fill="#FFDF59"/>
<path d="M45.9577 19.519V20.0415C45.9577 20.3316 45.8426 20.6099 45.6377 20.8153C45.4328 21.0206 45.1547 21.1363 44.8646 21.1369H44.3398V20.6122C44.3405 20.3221 44.4561 20.044 44.6615 19.8391C44.8669 19.6341 45.1452 19.519 45.4353 19.519H45.9577Z" stroke="#413E45" stroke-width="0.666667" stroke-miterlimit="10"/>
<path d="M43.7279 21.1369C43.4414 21.1327 43.1683 21.015 42.9685 20.8096C42.7688 20.6042 42.6586 20.328 42.6623 20.0415V19.519H43.1732C43.4593 19.5233 43.7321 19.6407 43.9318 19.8456C44.1315 20.0505 44.2419 20.3261 44.2388 20.6122V21.1369H43.7279Z" fill="#ED9A00"/>
<path d="M44.1879 21.0632C43.902 21.0681 43.6258 20.9594 43.42 20.7609C43.2142 20.5624 43.0955 20.2904 43.0901 20.0045V19.4982H43.1131C43.2545 19.4958 43.3951 19.5212 43.5267 19.5731C43.6583 19.625 43.7784 19.7023 43.8801 19.8006C43.9819 19.8989 44.0632 20.0163 44.1196 20.1461C44.1759 20.2758 44.2062 20.4154 44.2086 20.5569V21.0632H44.1879Z" fill="#FFDF59"/>
<path d="M43.684 21.1369C43.5413 21.1363 43.4002 21.1076 43.2686 21.0524C43.1371 20.9973 43.0177 20.9168 42.9172 20.8155C42.8168 20.7142 42.7373 20.5941 42.6832 20.462C42.6292 20.33 42.6017 20.1887 42.6023 20.046V19.5259H43.1201C43.2625 19.5265 43.4033 19.5551 43.5346 19.6102C43.6659 19.6652 43.785 19.7455 43.8853 19.8466C43.9855 19.9477 44.0648 20.0675 44.1187 20.1993C44.1727 20.331 44.2001 20.4721 44.1995 20.6144V21.1369H43.684Z" stroke="#413E45" stroke-width="0.666667" stroke-miterlimit="10"/>
<path d="M44.2822 20.686V22.7274" stroke="#413E45" stroke-width="0.666667" stroke-miterlimit="10" stroke-linecap="round"/>
<path d="M44.2111 15.3879V16.8493" stroke="#413E45" stroke-width="0.666667" stroke-miterlimit="10" stroke-linecap="round"/>
<path d="M44.9406 15.8274V16.4097" stroke="#413E45" stroke-width="0.666667" stroke-miterlimit="10" stroke-linecap="round"/>
<path d="M43.4812 15.8274V16.4097" stroke="#413E45" stroke-width="0.666667" stroke-miterlimit="10" stroke-linecap="round"/>
<path d="M31.6408 7.53784H30.2507V16.9069" stroke="#413E45" stroke-width="0.466667" stroke-linecap="round" stroke-linejoin="round"/>
<path d="M20.6836 21.2522H16.4352C16.2801 21.2522 16.1314 21.1906 16.0218 21.0809C15.9122 20.9713 15.8506 20.8226 15.8506 20.6676V2.04914C15.85 1.97199 15.8647 1.89548 15.8938 1.82403C15.9229 1.75257 15.9658 1.68759 16.0202 1.63282C16.0745 1.57805 16.1392 1.53458 16.2104 1.50491C16.2816 1.47525 16.358 1.45998 16.4352 1.45998H20.7779C20.8654 1.45998 21.0196 1.43696 21.0702 1.4991C21.1209 1.56124 21.0564 1.66941 21.0564 1.72924V20.8586C21.0589 20.9092 21.0511 20.9598 21.0335 21.0073C21.0159 21.0548 20.9889 21.0982 20.9541 21.135C20.9192 21.1718 20.8773 21.2011 20.8308 21.2213C20.7843 21.2414 20.7342 21.2519 20.6836 21.2522Z" fill="#4CAF50"/>
<path d="M20.6032 21.2521H19.3213V1.4599H20.7298C20.831 1.4599 21.0059 1.42768 21.0658 1.50132C21.1256 1.57497 21.0658 1.70615 21.0658 1.7844V20.7918C21.0658 20.8524 21.0538 20.9125 21.0305 20.9685C21.0072 21.0245 20.9731 21.0753 20.9301 21.1181C20.8871 21.1609 20.8361 21.1947 20.78 21.2177C20.7239 21.2407 20.6638 21.2524 20.6032 21.2521Z" fill="#2E7D32"/>
<path d="M21.427 18.8148C21.3174 18.8015 21.2174 18.7459 21.1482 18.66C21.079 18.574 21.046 18.4644 21.0565 18.3545V1.87408C21.0565 1.64394 21.0288 1.36086 21.3833 1.46673H27.2703C27.3676 1.49305 27.4553 1.54672 27.523 1.62136C27.5907 1.69601 27.6356 1.78851 27.6523 1.88789V18.366C27.6621 18.4716 27.6303 18.5769 27.5637 18.6594C27.497 18.7419 27.4009 18.7952 27.2956 18.8079" fill="#2296F3"/>
<path d="M27.1944 18.122H26.0437V1.45972H27.1944C27.3762 1.45972 27.6409 1.65994 27.6409 1.83945V17.6571C27.6421 17.7776 27.5961 17.8938 27.5126 17.9807C27.4291 18.0676 27.3149 18.1184 27.1944 18.122Z" fill="#1566C0"/>
<path d="M16.3339 18.1221C16.2033 18.1185 16.0793 18.0636 15.9889 17.9693C15.8984 17.875 15.8488 17.7488 15.8506 17.6181V1.96851C15.8488 1.83805 15.8985 1.71215 15.989 1.61819C16.0795 1.52423 16.2035 1.46982 16.3339 1.4668H27.1644C27.2952 1.46922 27.4198 1.52337 27.5108 1.61739C27.6018 1.71142 27.6518 1.83766 27.65 1.96851V17.6181C27.6519 17.7492 27.6019 17.8757 27.5109 17.9701C27.42 18.0645 27.2954 18.1191 27.1644 18.1221" stroke="#413E45" stroke-width="0.466667" stroke-miterlimit="10"/>
<path d="M21.0889 1.47583V21.0977" stroke="#413E45" stroke-width="0.466667" stroke-miterlimit="10"/>
<path d="M18.843 1.45972H15.3311" stroke="#413E45" stroke-width="0.466667" stroke-miterlimit="10" stroke-linecap="round"/>
<path d="M18.843 10.4814H15.3311" stroke="#413E45" stroke-width="0.466667" stroke-miterlimit="10" stroke-linecap="round"/>
<path d="M15.8276 11.6368L15.9036 11.7035L19.2982 11.6368V10.249L16.212 10.3204L15.846 10.5206L15.8276 11.6368Z" fill="#568B3E"/>
<path d="M15.8506 10.0742V11.6484" stroke="#413E45" stroke-width="0.466667" stroke-miterlimit="10" stroke-linecap="round"/>
<path d="M27.6041 18.4283L27.7169 12.2996V11.2249L34.0389 12.0327C34.1749 12.0489 34.2992 12.1176 34.3853 12.2243C34.4713 12.3309 34.5121 12.467 34.4992 12.6034V18.4283H27.6041Z" fill="#4CAF50"/>
<path d="M27.7491 11.2708L34.0366 12.0717C34.162 12.0884 34.2761 12.1531 34.3547 12.2523C34.4332 12.3515 34.4702 12.4774 34.4578 12.6033V18.389H27.6456L27.7583 12.2995V11.2708M27.6778 11.1787V12.2995L27.5742 18.4696H34.5475V12.6033C34.5604 12.4559 34.5152 12.3094 34.4214 12.195C34.3276 12.0805 34.1928 12.0074 34.0458 11.9911L27.6778 11.1787Z" fill="#413E45"/>
<path d="M33.7512 18.8172H23.8045H21.9242V12.2236L27.8365 12.5458L33.8939 13.5101L33.7512 18.8172Z" fill="#4CAF50"/>
<path d="M33.7215 13.4362L28.2372 12.5387L24.7759 12.396" fill="#4CAF50"/>
<path d="M33.7215 13.4362L28.2372 12.5387L24.7759 12.396" stroke="#413E45" stroke-width="0.466667" stroke-linecap="round" stroke-linejoin="round"/>
<path d="M22.4443 18.8263L25.6893 18.8286L25.9149 17.427H22.4443V18.8263Z" fill="#568B3E"/>
<path d="M15.8918 10.4814C18.0736 9.10055 20.8537 9.46188 22.9434 10.822C23.8787 11.4191 24.6564 12.2329 25.2105 13.1944C25.7645 14.1559 26.0786 15.2367 26.1262 16.3454C26.1495 17.1955 25.9721 18.0392 25.6084 18.8079" fill="#568B3E"/>
<path d="M15.8918 10.4814C18.0736 9.10055 20.8537 9.46188 22.9434 10.822C23.8787 11.4191 24.6564 12.2329 25.2105 13.1944C25.7645 14.1559 26.0786 15.2367 26.1262 16.3454C26.1495 17.1955 25.9721 18.0392 25.6084 18.8079" stroke="#413E45" stroke-width="0.466667" stroke-miterlimit="10" stroke-linecap="round"/>
<path d="M24.3524 18.8032H31.6387" stroke="#413E45" stroke-width="0.466667" stroke-miterlimit="10" stroke-linecap="round"/>
<path d="M37.0099 18.9895C37.0104 19.6283 36.8431 20.2561 36.5247 20.8099C36.2063 21.3636 35.7479 21.824 35.1955 22.1449C34.6432 22.4658 34.0162 22.6359 33.3774 22.6381C32.7386 22.6404 32.1104 22.4748 31.5558 22.1578C31.0012 21.8409 30.5395 21.3838 30.2172 20.8323C29.8948 20.2808 29.7231 19.6543 29.7191 19.0155C29.7151 18.3767 29.879 17.7481 30.1945 17.1926C30.5099 16.6371 30.9658 16.1742 31.5164 15.8504C31.9313 15.608 32.3907 15.4514 32.8673 15.3901C33.0322 15.3689 33.1982 15.3582 33.3644 15.3579C34.3289 15.3579 35.254 15.7401 35.9373 16.4207C36.6205 17.1014 37.0062 18.0251 37.0099 18.9895Z" fill="#607D8B" stroke="#413E45" stroke-width="0.466667" stroke-miterlimit="10"/>
<path d="M34.8743 18.9897C34.8742 19.172 34.8415 19.3528 34.7776 19.5236C34.6453 19.8745 34.3866 20.1632 34.0523 20.3331C33.718 20.503 33.3323 20.5417 32.9708 20.4417C32.6094 20.3418 32.2984 20.1103 32.0989 19.7928C31.8995 19.4752 31.8259 19.0946 31.8927 18.7256C31.9595 18.3566 32.1618 18.0259 32.46 17.7985C32.7581 17.571 33.1305 17.4633 33.5041 17.4963C33.8776 17.5294 34.2253 17.701 34.4788 17.9773C34.7323 18.2536 34.8734 18.6147 34.8743 18.9897Z" fill="#FDD834" stroke="#413E45" stroke-width="0.466667" stroke-miterlimit="10"/>
<path d="M24.8723 16.7342C24.8731 17.8666 24.548 18.9753 23.9357 19.928C23.3235 20.8806 22.4499 21.6368 21.4194 22.1064C20.3889 22.5759 19.245 22.7389 18.1244 22.5758C17.0038 22.4127 15.9538 21.9305 15.0998 21.1868C14.2458 20.4431 13.624 19.4692 13.3086 18.3816C12.9932 17.294 12.9975 16.1386 13.3211 15.0534C13.6447 13.9681 14.2738 12.999 15.1333 12.2617C15.9928 11.5244 17.0464 11.0501 18.1682 10.8955C18.4353 10.8604 18.7044 10.8427 18.9737 10.8425C20.5371 10.8419 22.0367 11.4622 23.1428 12.5671C24.249 13.6719 24.871 15.1708 24.8723 16.7342Z" fill="#607D8B" stroke="#413E45" stroke-width="0.466667" stroke-miterlimit="10"/>
<path d="M21.4042 16.7345C21.4042 17.201 21.27 17.6577 21.0175 18.05C20.7651 18.4423 20.405 18.7537 19.9803 18.9469C19.5557 19.1401 19.0844 19.207 18.6228 19.1396C18.1611 19.0722 17.7287 18.8734 17.377 18.5668C17.0253 18.2603 16.7693 17.859 16.6395 17.4109C16.5097 16.9627 16.5117 16.4867 16.6451 16.0397C16.7786 15.5926 17.0378 15.1935 17.392 14.8898C17.7462 14.5861 18.1803 14.3908 18.6425 14.3272C18.7523 14.3125 18.863 14.3048 18.9739 14.3042C19.6184 14.3042 20.2366 14.5602 20.6924 15.016C21.1481 15.4718 21.4042 16.0899 21.4042 16.7345Z" fill="#FDD834" stroke="#413E45" stroke-width="0.466667" stroke-miterlimit="10"/>
</svg>
