<svg width="26" height="25" viewBox="0 0 26 25" fill="none" xmlns="http://www.w3.org/2000/svg">
<g clip-path="url(#clip0_380_3137)">
<path d="M13.3473 3.16437C16.5257 3.16437 16.923 3.16437 18.2142 3.2637C21.4919 3.36302 22.9818 4.9522 23.0811 8.13058C23.1804 9.42179 23.1804 9.71976 23.1804 12.8981C23.1804 16.0765 23.1804 16.4738 23.0811 17.6657C22.9818 20.8441 21.3925 22.4332 18.2142 22.5325C16.923 22.6319 16.625 22.6319 13.3473 22.6319C10.169 22.6319 9.77168 22.6319 8.5798 22.5325C5.3021 22.4332 3.81224 20.8441 3.71292 17.6657C3.61359 16.3745 3.61359 16.0765 3.61359 12.8981C3.61359 9.71976 3.61359 9.32246 3.71292 8.13058C3.81224 4.9522 5.40143 3.36302 8.5798 3.2637C9.77168 3.16437 10.169 3.16437 13.3473 3.16437ZM13.3473 0.979248C10.0697 0.979248 9.67235 0.979248 8.48047 1.07857C4.11022 1.27722 1.72644 3.661 1.52779 8.03126C1.42847 9.22314 1.42847 9.62044 1.42847 12.8981C1.42847 16.1758 1.42847 16.5731 1.52779 17.765C1.72644 22.1353 4.11022 24.519 8.48047 24.7177C9.67235 24.817 10.0697 24.817 13.3473 24.817C16.625 24.817 17.0224 24.817 18.2142 24.7177C22.5844 24.519 24.9682 22.1353 25.1669 17.765C25.2662 16.5731 25.2662 16.1758 25.2662 12.8981C25.2662 9.62044 25.2662 9.22314 25.1669 8.03126C24.9682 3.661 22.5844 1.27722 18.2142 1.07857C17.0224 0.979248 16.625 0.979248 13.3473 0.979248ZM13.3473 6.74004C9.97034 6.74004 7.18926 9.52112 7.18926 12.8981C7.18926 16.2751 9.97034 19.0562 13.3473 19.0562C16.7244 19.0562 19.5054 16.2751 19.5054 12.8981C19.5054 9.52112 16.7244 6.74004 13.3473 6.74004ZM13.3473 16.8711C11.1622 16.8711 9.37439 15.0832 9.37439 12.8981C9.37439 10.713 11.1622 8.92517 13.3473 8.92517C15.5325 8.92517 17.3203 10.713 17.3203 12.8981C17.3203 15.0832 15.5325 16.8711 13.3473 16.8711ZM19.7041 5.15086C18.9095 5.15086 18.3135 5.7468 18.3135 6.5414C18.3135 7.33598 18.9095 7.93192 19.7041 7.93192C20.4986 7.93192 21.0946 7.33598 21.0946 6.5414C21.0946 5.7468 20.4986 5.15086 19.7041 5.15086Z" fill="black"/>
</g>
<defs>
<clipPath id="clip0_380_3137">
<rect width="24.9912" height="24.03" fill="white" transform="translate(0.659424 0.979248)"/>
</clipPath>
</defs>
</svg>
