<svg width="101" height="204" viewBox="0 0 101 204" fill="none" xmlns="http://www.w3.org/2000/svg">
<path d="M88.629 0.000732422H11.681C5.31539 0.000732422 0.155029 5.16109 0.155029 11.5267V192.414C0.155029 198.78 5.31539 203.94 11.681 203.94H88.629C94.9947 203.94 100.155 198.78 100.155 192.414V11.5267C100.155 5.16109 94.9947 0.000732422 88.629 0.000732422Z" fill="#292A2E"/>
<path d="M88.5928 3.59973H11.717C7.34592 3.59973 3.80249 7.14317 3.80249 11.5142V192.157C3.80249 196.528 7.34592 200.072 11.717 200.072H88.5928C92.9639 200.072 96.5073 196.528 96.5073 192.157V11.5142C96.5073 7.14317 92.9639 3.59973 88.5928 3.59973Z" fill="white"/>
<path d="M31.1682 2.11157H69.1415V6.04075C69.1417 6.59887 69.032 7.15156 68.8185 7.66725C68.6051 8.18294 68.2921 8.65152 67.8975 9.04624C67.503 9.44096 67.0345 9.75408 66.5189 9.96771C66.0033 10.1813 65.4506 10.2913 64.8925 10.2913H35.4172C34.2903 10.2913 33.2096 9.84363 32.4127 9.04679C31.6159 8.24995 31.1682 7.1692 31.1682 6.04229V2.11157Z" fill="#292A2E"/>
</svg>
