<svg width="19" height="18" viewBox="0 0 19 18" fill="none" xmlns="http://www.w3.org/2000/svg">
<path d="M9.50496 18.0007C4.54235 18.0007 0.505005 13.9632 0.505005 9.00049C0.505005 4.03788 4.54235 0.000366211 9.50496 0.000366211C14.4676 0.000366211 18.505 4.03788 18.505 9.00049C18.505 13.9632 14.4676 18.0007 9.50496 18.0007ZM9.50496 1.23242C5.2217 1.23242 1.73705 4.71714 1.73697 9.00049C1.73697 13.2838 5.22162 16.7686 9.50496 16.7686C13.7882 16.7686 17.2729 13.2838 17.2729 9.00041C17.2729 4.71723 13.7882 1.23242 9.50496 1.23242Z" fill="white"/>
<path d="M10.7136 12.8553C10.473 13.0958 10.0829 13.0957 9.84245 12.8553C9.60179 12.6146 9.60179 12.2246 9.84253 11.984L12.2097 9.61689L5.35483 9.61624C5.01462 9.61615 4.73889 9.34042 4.73889 9.00005C4.73897 8.65984 5.01471 8.38419 5.35492 8.38419L12.21 8.38484L9.84229 6.01725C9.60171 5.77668 9.60171 5.38653 9.84229 5.14603C9.96262 5.02578 10.1202 4.96558 10.2779 4.96558C10.4356 4.96558 10.5932 5.02578 10.7135 5.14595L14.1328 8.56513C14.2483 8.68062 14.3132 8.83725 14.3132 9.0007C14.3132 9.16416 14.2483 9.32071 14.1327 9.43644L10.7136 12.8553Z" fill="white"/>
</svg>
