<svg width="13" height="9" viewBox="0 0 13 9" fill="none" xmlns="http://www.w3.org/2000/svg">
<path d="M4.15557 8.42924C3.95662 8.42937 3.76537 8.3575 3.6221 8.22876L0.398964 5.33914C0.326077 5.27381 0.2677 5.19572 0.22717 5.10935C0.186641 5.02297 0.16475 4.93 0.162749 4.83573C0.160747 4.74147 0.178676 4.64776 0.215506 4.55996C0.252337 4.47216 0.307354 4.39198 0.37741 4.324C0.447466 4.25603 0.531188 4.20159 0.623804 4.16379C0.71642 4.12599 0.816112 4.10558 0.917188 4.10371C1.01826 4.10184 1.11874 4.11856 1.21289 4.15291C1.30704 4.18726 1.39301 4.23857 1.4659 4.3039L4.14249 6.70373L10.8515 0.38963C10.9957 0.256623 11.1903 0.182054 11.3931 0.182129C11.5959 0.182204 11.7905 0.256916 11.9346 0.39003C12.0787 0.523144 12.1606 0.703906 12.1626 0.893037C12.1645 1.08217 12.0864 1.26439 11.9452 1.4001L4.70232 8.21584C4.63092 8.28345 4.54581 8.33714 4.45194 8.37378C4.35807 8.41041 4.25733 8.42927 4.15557 8.42924Z" fill="#4CAF50"/>
</svg>
