<svg width="14" height="14" viewBox="0 0 14 14" fill="none" xmlns="http://www.w3.org/2000/svg">
<path d="M11.2309 13.9399H2.07896C1.56888 13.9394 1.07987 13.7365 0.719188 13.3758C0.35851 13.0151 0.155619 12.5261 0.155029 12.016V2.86403C0.155577 2.35392 0.358447 1.86487 0.71913 1.50416C1.07981 1.14344 1.56885 0.940532 2.07896 0.939941H11.2309C11.7411 0.940532 12.2301 1.14344 12.5908 1.50415C12.9515 1.86485 13.1544 2.35391 13.155 2.86403V12.016C13.1544 12.5261 12.9515 13.0152 12.5908 13.3758C12.2301 13.7365 11.741 13.9394 11.2309 13.9399ZM2.07896 1.25898C1.65331 1.25948 1.24525 1.4288 0.944291 1.72979C0.643331 2.03078 0.47405 2.43886 0.473586 2.86451V12.0165C0.47405 12.4421 0.643337 12.8502 0.944301 13.1511C1.24527 13.4521 1.65333 13.6214 2.07896 13.6219H11.2309C11.6566 13.6214 12.0647 13.4521 12.3657 13.1512C12.6666 12.8502 12.836 12.4421 12.8365 12.0165V2.86403C12.836 2.43837 12.6667 2.03029 12.3657 1.72931C12.0647 1.42832 11.6566 1.259 11.2309 1.2585L2.07896 1.25898Z" fill="#292A2E"/>
</svg>
