<svg width="26" height="22" viewBox="0 0 26 22" fill="none" xmlns="http://www.w3.org/2000/svg">
<g clip-path="url(#clip0_380_3134)">
<path d="M8.45441 20.2412C17.8133 20.2412 22.9314 12.4875 22.9314 5.76423C22.9314 5.54394 22.9269 5.32477 22.9167 5.10645C23.9101 4.38832 24.7738 3.49191 25.455 2.47197C24.5434 2.87701 23.5623 3.14977 22.5331 3.27275C23.5835 2.6429 24.3902 1.64608 24.7707 0.458019C23.7874 1.04105 22.6987 1.46471 21.5399 1.69318C20.6111 0.704262 19.2888 0.0856934 17.8257 0.0856934C15.0155 0.0856934 12.7367 2.3645 12.7367 5.1733C12.7367 5.57271 12.7815 5.96083 12.8684 6.33344C8.64001 6.12104 4.89024 4.0961 2.38099 1.01764C1.9435 1.76934 1.69162 2.64318 1.69162 3.57484C1.69162 5.34 2.59 6.89841 3.95604 7.81033C3.12141 7.78466 2.33727 7.55506 1.65157 7.17371C1.65044 7.19486 1.65044 7.2163 1.65044 7.23858C1.65044 9.70298 3.4046 11.7604 5.73248 12.2266C5.30515 12.3431 4.85554 12.4057 4.39126 12.4057C4.0635 12.4057 3.74477 12.373 3.43478 12.3141C4.0824 14.3353 5.96095 15.8066 8.18814 15.8481C6.44639 17.213 4.25249 18.0262 1.86876 18.0262C1.45835 18.0262 1.05331 18.0028 0.655029 17.9557C2.90675 19.3987 5.58045 20.2412 8.45441 20.2412Z" fill="black"/>
</g>
<defs>
<clipPath id="clip0_380_3134">
<rect width="25" height="21" fill="white" transform="translate(0.655029 0.0192871)"/>
</clipPath>
</defs>
</svg>
