<svg width="35" height="36" viewBox="0 0 35 36" fill="none" xmlns="http://www.w3.org/2000/svg">
<circle cx="17.5" cy="18" r="17.5" fill="#66BD66"/>
<path d="M16.7855 13.1884V14.897H14.9262C13.8953 14.8955 12.9071 14.511 12.1782 13.8277C11.4493 13.1445 11.0391 12.2183 11.0375 11.252V9.5321H12.8907" fill="#4CAF50"/>
<path d="M16.8445 13.0802L16.9782 14.7888H16.8385C15.8099 14.8545 14.7955 14.5354 14.0176 13.9012C13.2397 13.2671 12.7618 12.3697 12.6886 11.4059L12.5609 9.6973H12.7007C13.2098 9.664 13.721 9.72513 14.205 9.87718C14.6889 10.0292 15.1361 10.2692 15.521 10.5834C15.9059 10.8976 16.2208 11.2799 16.448 11.7083C16.6751 12.1367 16.8098 12.6029 16.8445 13.0802Z" fill="white"/>
<path d="M16.0928 11.0983C16.5453 11.7084 16.7871 12.434 16.7855 13.177V14.897H14.9262C13.8953 14.8955 12.9071 14.511 12.1782 13.8277C11.4493 13.1445 11.0391 12.2183 11.0375 11.252V9.53211H12.8907C13.6992 9.53141 14.4876 9.76844 15.1449 10.2098" stroke="white" stroke-width="0.666667" stroke-miterlimit="10" stroke-linecap="round"/>
<path d="M22.9993 9.45813V11.2065C23.0026 12.1738 22.5962 13.1027 21.8693 13.7893C21.1425 14.4759 20.1547 14.864 19.1228 14.8685H17.3V13.1144C17.2984 12.6358 17.3974 12.1615 17.5913 11.7187C17.7853 11.2759 18.0704 10.8733 18.4304 10.5337C18.7903 10.1942 19.2181 9.92449 19.6893 9.73994C20.1605 9.55538 20.6659 9.45962 21.1765 9.45813H22.9993Z" fill="#4CAF50"/>
<path d="M22.8952 9.5321V11.2748C22.8936 12.2411 22.4834 13.1673 21.7545 13.8505C21.0256 14.5337 20.0374 14.9182 19.0065 14.9197H18.9641V13.1884C18.964 12.2227 19.3729 11.2965 20.1009 10.6131C20.8288 9.92969 21.8164 9.545 22.8466 9.54349L22.8952 9.5321Z" fill="white"/>
<path d="M22.8969 9.5321V11.2748C22.8953 12.2411 22.4851 13.1673 21.7562 13.8505C21.0273 14.5337 20.0391 14.9182 19.0083 14.9197H17.1429V13.1884C17.1446 12.2222 17.5548 11.296 18.2837 10.6127C19.0126 9.9295 20.0008 9.545 21.0316 9.54349L22.8969 9.5321Z" stroke="white" stroke-width="0.666667" stroke-miterlimit="10"/>
<path d="M22.8607 14.3617V16.1215C22.8703 16.5957 22.7802 17.067 22.5955 17.5086C22.4108 17.9501 22.1351 18.3532 21.7842 18.6949C21.4332 19.0365 21.0139 19.31 20.5501 19.4998C20.0864 19.6895 19.5872 19.7917 19.0813 19.8006H17.2585V18.0408C17.2488 17.5666 17.339 17.0953 17.5237 16.6537C17.7084 16.2122 17.9841 15.8091 18.3351 15.4674C18.6861 15.1257 19.1054 14.8522 19.5691 14.6625C20.0329 14.4728 20.532 14.3706 21.0379 14.3617H22.8607Z" fill="#4CAF50"/>
<path d="M22.8952 14.396V16.1045C22.8952 16.5832 22.7946 17.0572 22.5992 17.4994C22.4038 17.9416 22.1174 18.3434 21.7563 18.6819C21.3952 19.0204 20.9665 19.2888 20.4947 19.472C20.0229 19.6552 19.5172 19.7495 19.0065 19.7495H18.9641V18.0352C18.9641 17.07 19.3731 16.1444 20.1012 15.4619C20.8294 14.7794 21.8169 14.396 22.8466 14.396H22.8952Z" fill="white"/>
<path d="M22.8969 14.396V16.1045C22.8969 16.5832 22.7963 17.0572 22.6009 17.4994C22.4055 17.9416 22.1191 18.3434 21.758 18.6819C21.3969 19.0204 20.9682 19.2888 20.4964 19.472C20.0246 19.6552 19.5189 19.7495 19.0083 19.7495H17.1429V18.0352C17.1446 17.0695 17.555 16.1439 18.2841 15.4616C19.0131 14.7792 20.0013 14.396 21.0316 14.396H22.8969Z" stroke="white" stroke-width="0.666667" stroke-miterlimit="10"/>
<path d="M15.0785 19.7778C14.5676 19.7785 14.0616 19.6848 13.5895 19.5019C13.1173 19.319 12.6883 19.0505 12.327 18.7119C11.9657 18.3733 11.6793 17.9712 11.4842 17.5286C11.2891 17.086 11.189 16.6117 11.1898 16.1329V14.4243H13.0491C14.0789 14.4243 15.0664 14.8077 15.7945 15.4902C16.5227 16.1727 16.9317 17.0984 16.9317 18.0635V19.8063L15.0785 19.7778Z" fill="#4CAF50"/>
<path d="M16.5959 19.5329C16.0924 19.539 15.5925 19.452 15.1249 19.2769C14.6573 19.1018 14.2311 18.8422 13.8705 18.5127C13.51 18.1832 13.2222 17.7904 13.0237 17.3567C12.8251 16.9229 12.7196 16.4568 12.7133 15.9848V14.2763H12.7862C13.8036 14.2641 14.7846 14.6309 15.5137 15.2962C16.2428 15.9615 16.6604 16.8707 16.6748 17.8244V19.5329H16.5959Z" fill="white"/>
<path d="M14.9191 19.7778C14.4085 19.7778 13.9028 19.6835 13.4311 19.5003C12.9593 19.3172 12.5306 19.0487 12.1695 18.7102C11.8084 18.3718 11.5219 17.9699 11.3265 17.5277C11.131 17.0855 11.0305 16.6115 11.0305 16.1329V14.4243H12.8898C13.92 14.4243 14.9082 14.8075 15.6373 15.4899C16.3664 16.1722 16.7768 17.0978 16.7784 18.0635V19.8063L14.9191 19.7778Z" stroke="white" stroke-width="0.666667" stroke-miterlimit="10"/>
<path d="M22.957 19.231V20.9965C22.9602 21.4796 22.8619 21.9586 22.6676 22.4061C22.4733 22.8536 22.1868 23.2609 21.8246 23.6047C21.4624 23.9484 21.0315 24.2219 20.5565 24.4096C20.0815 24.5972 19.5717 24.6953 19.0563 24.6983H17.197V22.9328C17.1905 21.958 17.597 21.0207 18.3273 20.3266C19.0575 19.6325 20.0518 19.2385 21.0917 19.231H22.957Z" fill="#4CAF50"/>
<path d="M22.8952 19.2537V20.9964C22.8936 21.9621 22.4832 22.8877 21.7541 23.57C21.025 24.2524 20.0368 24.6356 19.0066 24.6356H18.9641V22.9271C18.9633 22.4487 19.0631 21.9748 19.2578 21.5326C19.4526 21.0904 19.7385 20.6886 20.0991 20.3501C20.4597 20.0115 20.888 19.7429 21.3595 19.5597C21.8309 19.3765 22.3363 19.2821 22.8467 19.2821L22.8952 19.2537Z" fill="white"/>
<path d="M22.8969 19.2537V20.9964C22.8953 21.9621 22.4849 22.8877 21.7558 23.57C21.0267 24.2524 20.0385 24.6356 19.0083 24.6356H17.1429V22.9271C17.1429 21.9604 17.5526 21.0333 18.2819 20.3497C19.0112 19.6662 20.0003 19.2821 21.0316 19.2821L22.8969 19.2537Z" stroke="white" stroke-width="0.666667" stroke-miterlimit="10"/>
<path d="M14.9732 24.6356C14.4697 24.6297 13.9724 24.5308 13.5096 24.3447C13.0469 24.1586 12.6278 23.8889 12.2763 23.5509C11.9248 23.213 11.6477 22.8134 11.461 22.3751C11.2742 21.9368 11.1814 21.4683 11.1878 20.9964V19.2537H13.0106C13.5146 19.2596 14.0125 19.3586 14.4756 19.5451C14.9388 19.7316 15.3581 20.0018 15.7097 20.3404C16.0613 20.6789 16.3382 21.0791 16.5246 21.5181C16.711 21.9571 16.8033 22.4262 16.7961 22.8986V24.6071L14.9732 24.6356Z" fill="#4CAF50"/>
<path d="M16.608 24.3966C15.5922 24.4119 14.6114 24.0486 13.8811 23.3865C13.1509 22.7244 12.7308 21.8178 12.7133 20.8656V19.1571H12.7862C13.8026 19.1418 14.784 19.505 15.5152 20.1669C16.2464 20.8288 16.6678 21.7354 16.687 22.6881V24.3966H16.608Z" fill="white"/>
<path d="M14.84 24.6359C14.3342 24.6344 13.8336 24.5395 13.3668 24.3567C12.9 24.1738 12.4763 23.9066 12.1197 23.5703C11.7631 23.2339 11.4807 22.835 11.2886 22.3964C11.0965 21.9577 10.9984 21.4879 11 21.0137V19.3052H12.8228C13.3292 19.3067 13.8303 19.4017 14.2975 19.5849C14.7646 19.7681 15.1887 20.0358 15.5453 20.3728C15.902 20.7098 16.1843 21.1093 16.376 21.5486C16.5678 21.9879 16.6653 22.4584 16.6629 22.933V24.6416L14.84 24.6359Z" stroke="white" stroke-width="0.666667" stroke-miterlimit="10"/>
<path d="M16.9437 23.1381V29.9381" stroke="white" stroke-width="0.666667" stroke-miterlimit="10" stroke-linecap="round"/>
<path d="M16.6859 5.5V10.358" stroke="white" stroke-width="0.666667" stroke-miterlimit="10" stroke-linecap="round"/>
<path d="M19.2805 6.95776V8.89982" stroke="white" stroke-width="0.666667" stroke-miterlimit="10" stroke-linecap="round"/>
<path d="M14.0984 6.95776V8.89982" stroke="white" stroke-width="0.666667" stroke-miterlimit="10" stroke-linecap="round"/>
</svg>
